<?xml version="1.0" encoding="utf-8"?>
<!DOCTYPE svg PUBLIC "-//W3C//DTD SVG 1.1//EN" "http://www.w3.org/Graphics/SVG/1.1/DTD/svg11.dtd">
<svg xmlns="http://www.w3.org/2000/svg" xmlns:xlink="http://www.w3.org/1999/xlink" version="1.1" baseProfile="full" width="170.079" height="135.272" viewBox="0 0 170.08 135.27" enable-background="new 0 0 170.08 135.27" xml:space="preserve">
	<path fill="#A785E3" fill-opacity="1" stroke-width="0.2" stroke-linejoin="miter" d="M 79.7723,61.4368C 71.944,53.7066 65.3324,35.9766 55.1508,24.9361C 32.4009,0.266205 15.1388,-2.64316 6.03198,1.63077C -8.36884,8.39066 7.29718,30.6073 5.32739,48.6615C 3.8736,61.9771 6.20685,79.1432 35.1131,75.567C 34.0674,75.7384 12.2192,79.601 13.6781,105.961C 14.7959,126.153 30.3934,135.742 43.3027,135.272C 72.1392,134.221 70.3826,100.176 80.8151,89.8429L 80.8289,90.0125C 81.0433,92.4555 81.3275,94.8941 81.7276,97.3141C 82.0009,98.9669 82.3268,100.613 82.7483,102.235C 83.0021,103.212 83.2887,104.183 83.6456,105.127L 84.1744,106.345C 84.3534,106.669 84.6575,106.904 85.0394,106.904C 85.3633,106.904 85.6788,106.738 85.8536,106.438C 85.948,106.277 88.1646,102.368 89.2498,90.0124L 89.2637,89.8429C 99.6961,100.176 97.9395,134.221 126.776,135.272C 139.685,135.742 155.283,126.153 156.401,105.961C 157.859,79.601 136.011,75.7384 134.966,75.567C 163.872,79.1432 166.205,61.9771 164.751,48.6615C 162.781,30.6073 178.447,8.39066 164.047,1.63077C 154.94,-2.64316 137.678,0.266205 114.928,24.9361C 104.382,36.3711 98.3741,54.3233 90.1725,61.5647L 90.1725,54.4598C 90.1725,52.9777 88.9708,51.7762 87.4891,51.7762L 82.4557,51.7762C 80.9738,51.7762 79.7723,52.9777 79.7723,54.4598L 79.7723,61.4368 Z M 121.853,103.938C 128.732,112.238 137.694,119.987 140.505,121.729C 140.859,121.948 140.89,122.497 140.742,122.878C 139.867,125.129 136.919,124.762 136.547,124.697C 132.888,124.051 129.079,118.298 125.046,112.206C 123.156,109.354 121.229,106.441 119.162,103.798C 119.216,103.811 120.919,104.367 121.853,103.938 Z M 29.5618,121.729C 32.3734,119.987 41.3353,112.238 48.2139,103.938C 49.1442,104.366 50.837,103.815 50.9045,103.798C 48.8375,106.441 46.9105,109.354 45.0214,112.206C 40.9883,118.298 37.1788,124.051 33.52,124.697C 33.1476,124.762 30.1998,125.129 29.3248,122.878C 29.1768,122.497 29.2079,121.948 29.5618,121.729 Z M 144.729,16.781C 144.729,12.0682 148.549,8.24771 153.262,8.24771C 157.975,8.24771 161.795,12.0682 161.795,16.781C 161.795,21.4938 157.975,25.3143 153.262,25.3143C 148.549,25.3143 144.729,21.4938 144.729,16.781 Z M 10.2271,17.2607C 10.2271,12.5479 14.0476,8.72739 18.7604,8.72739C 23.4732,8.72739 27.2937,12.5479 27.2937,17.2607C 27.2937,21.9735 23.4732,25.794 18.7604,25.794C 14.0476,25.794 10.2271,21.9735 10.2271,17.2607 Z M 31.4051,27.2971C 36.0187,28.7665 45.4144,32.6751 56.0571,42.2785C 62.575,48.1601 69.4398,57.3343 73.8369,63.6501C 71.6329,62.4922 69.2695,61.4167 66.7501,60.2702C 59.0586,56.7699 50.3407,52.8028 40.821,44.0726C 36.9153,40.4911 33.7087,33.352 31.4051,27.2971 Z M 25.2054,44.1148C 21.7371,44.1148 15.4195,43.8431 12.6565,42.0096C 10.4608,40.5525 10.8049,36.6383 11.1082,36.0699C 11.986,34.4247 17.2338,35.5329 22.3922,35.2909C 24.6304,35.1859 26.6044,35.208 28.4868,35.0326C 29.1559,36.8926 30.5423,40.392 32.5552,43.7149C 30.7407,43.9102 28.1398,44.1148 25.2054,44.1148 Z M 25.7721,58.0651C 20.3961,58.0651 16.3926,57.3972 13.8286,56.1712C 12.6377,55.6018 11.2986,51.9967 12.8569,50.5357C 13.5406,49.8947 14.5332,49.4513 15.9005,49.6692C 21.1355,50.5032 26.8007,51.1212 36.6732,49.3554C 38.0941,50.5457 41.5892,53.3354 46.138,55.995C 41.1602,56.8714 33.0455,58.0651 25.7721,58.0651 Z M 70.0675,68.5677C 63.0062,67.6242 53.8331,67.9112 53.1422,67.9181C 49.8062,67.9523 33.7903,69.9411 29.528,69.9411C 27.9852,69.9411 21.2385,69.9411 18.242,67.7454C 16.9879,66.8264 16.1398,64.6614 19.6694,64.6916C 34.7319,64.8206 50.8904,61.482 54.1166,60.8426C 56.0303,61.6927 63.2088,64.9243 70.0675,68.5677 Z M 39.869,95.9452C 39.8215,96.2879 39.3993,97.1895 36.8762,98.7711C 29.5303,103.376 20.9295,105.455 20.2505,103.989C 19.89,103.211 20.5142,101.59 21.775,100.473C 27.2131,95.6518 36.4005,91.8445 42.4794,90.01C 41.2608,91.6349 40.1875,93.6505 39.869,95.9452 Z M 57.7784,86.815C 67.1629,84.6166 74.6685,81.851 78.6136,80.2589L 78.4109,81.2835C 75.5872,83.375 62.2531,93.191 57.6116,95.5177C 54.1379,97.2599 50.328,98.3421 47.6685,98.3421C 46.4244,98.3421 44.0022,97.6142 46.7762,93.6714C 48.8898,90.668 53.0741,87.9171 57.7784,86.815 Z M 103.317,60.2702C 100.797,61.4167 98.4338,62.4922 96.23,63.6501C 100.627,57.3343 107.492,48.1601 114.01,42.2785C 124.653,32.6751 134.048,28.7665 138.662,27.2971C 136.358,33.352 133.152,40.4911 129.246,44.0726C 119.726,52.8028 111.008,56.7699 103.317,60.2702 Z M 112.455,95.5177C 107.814,93.191 94.4796,83.375 91.6558,81.2835L 91.4532,80.2589C 95.3983,81.851 102.904,84.6166 112.289,86.815C 116.993,87.9171 121.177,90.668 123.291,93.6714C 126.065,97.6142 123.643,98.3421 122.398,98.3421C 119.739,98.3421 115.929,97.2599 112.455,95.5177 Z M 127.588,90.01C 133.666,91.8445 142.854,95.6518 148.292,100.473C 149.553,101.59 150.177,103.211 149.816,103.989C 149.137,105.455 140.537,103.376 133.191,98.7711C 130.668,97.1895 130.245,96.2879 130.198,95.9452C 129.879,93.6505 128.806,91.6349 127.588,90.01 Z M 115.95,60.8426C 119.177,61.482 135.335,64.8206 150.398,64.6916C 153.927,64.6614 153.079,66.8264 151.825,67.7454C 148.828,69.9411 142.082,69.9411 140.539,69.9411C 136.277,69.9411 120.261,67.9523 116.925,67.9181C 116.234,67.9112 107.061,67.6242 99.9993,68.5677C 106.858,64.9243 114.037,61.6927 115.95,60.8426 Z M 154.166,49.6692C 155.534,49.4513 156.526,49.8947 157.21,50.5357C 158.768,51.9967 157.429,55.6018 156.238,56.1712C 153.674,57.3972 149.671,58.0651 144.295,58.0651C 137.021,58.0651 128.907,56.8714 123.929,55.995C 128.478,53.3354 131.973,50.5457 133.394,49.3554C 143.266,51.1212 148.931,50.5032 154.166,49.6692 Z M 147.675,35.2909C 152.833,35.5329 158.081,34.4247 158.959,36.0699C 159.262,36.6383 159.606,40.5525 157.41,42.0096C 154.647,43.8431 148.33,44.1148 144.862,44.1148C 141.927,44.1148 139.326,43.9102 137.512,43.7149C 139.525,40.392 140.911,36.8926 141.58,35.0326C 143.462,35.208 145.436,35.1859 147.675,35.2909 Z "/>
</svg>
