<?xml version="1.0" encoding="utf-8"?>
<!DOCTYPE svg PUBLIC "-//W3C//DTD SVG 1.1//EN" "http://www.w3.org/Graphics/SVG/1.1/DTD/svg11.dtd">
<svg xmlns="http://www.w3.org/2000/svg" xmlns:xlink="http://www.w3.org/1999/xlink" version="1.1" baseProfile="full" width="56.5656" height="108.584" viewBox="0 0 56.57 108.58" enable-background="new 0 0 56.57 108.58" xml:space="preserve">
	<g>
		<rect x="22.8214" y="66.8481" fill="#CCA85D" fill-opacity="1" stroke-width="0.2" stroke-linejoin="round" width="10.9231" height="40.7539"/>
		<path fill="#CCA85D" fill-opacity="1" stroke-width="0.2" stroke-linejoin="round" d="M 22.2353,70.9165L 34.3287,70.9165C 35.4555,70.9165 36.3689,71.83 36.3689,72.9567L 36.3689,72.9567C 36.3689,74.0834 35.4555,74.9968 34.3287,74.9968L 22.2353,74.9968C 21.1085,74.9968 20.1951,74.0834 20.1951,72.9567L 20.1951,72.9567C 20.1951,71.83 21.1085,70.9165 22.2353,70.9165 Z "/>
		<path fill="#CCA85D" fill-opacity="1" stroke-width="0.2" stroke-linejoin="round" d="M 28.2828,95.9465C 20.6572,100.342 13.0316,104.738 16.8444,106.936C 20.6572,109.134 35.9084,109.134 39.7213,106.936C 43.5341,104.738 35.9084,100.342 28.2828,95.9465 Z "/>
		<path fill="#CCA85D" fill-opacity="1" stroke-width="0.2" stroke-linejoin="round" d="M 3.05176e-005,46.1494C 1.52228,60.4242 13.6041,71.5429 28.2828,71.5429C 42.9615,71.5429 55.0434,60.4242 56.5656,46.1494L 3.05176e-005,46.1494 Z "/>
		<path fill="#CCA85D" fill-opacity="1" stroke-width="0.2" stroke-linejoin="round" d="M 28.2828,14.3098C 36.2651,14.3098 42.7359,20.7807 42.7359,28.7629C 42.7359,36.7451 36.2651,43.216 28.2828,43.216C 20.3005,43.216 13.8297,36.7451 13.8297,28.7629C 13.8297,20.7807 20.3005,14.3098 28.2828,14.3098 Z "/>
		<g>
			<path fill="#FFFFFF" fill-opacity="1" stroke-width="0.2" stroke-linejoin="round" d="M 28.2874,17.4191L 28.2874,17.4191C 29.1911,17.4191 29.9237,18.1516 29.9237,19.0554L 29.9237,38.4707C 29.9237,39.3745 29.1911,40.1071 28.2874,40.1071L 28.2874,40.1071C 27.3837,40.1071 26.6511,39.3745 26.6511,38.4707L 26.6511,19.0554C 26.6511,18.1516 27.3837,17.4191 28.2874,17.4191 Z "/>
			<path fill="#FFFFFF" fill-opacity="1" stroke-width="0.2" stroke-linejoin="round" d="M 20.5154,23.4865L 36.0466,23.4865C 36.9019,23.4865 37.5953,24.1798 37.5953,25.0351L 37.5953,25.0351C 37.5953,25.8904 36.9019,26.5838 36.0466,26.5838L 20.5154,26.5838C 19.66,26.5838 18.9667,25.8904 18.9667,25.0351L 18.9667,25.0351C 18.9667,24.1798 19.66,23.4865 20.5154,23.4865 Z "/>
		</g>
		<g>
			<path fill="#CCA85D" fill-opacity="1" stroke-width="0.2" stroke-linejoin="round" d="M 43.814,21.4504L 51.7778,21.4504C 52.1647,21.4504 52.4784,21.7641 52.4784,22.151L 52.4784,22.151C 52.4784,22.5379 52.1647,22.8515 51.7778,22.8515L 43.814,22.8515C 43.4271,22.8515 43.1134,22.5379 43.1134,22.151L 43.1134,22.151C 43.1134,21.7641 43.4271,21.4504 43.814,21.4504 Z "/>
			<path fill="#CCA85D" fill-opacity="1" stroke-width="0.2" stroke-linejoin="round" d="M 42.6962,17.9649L 50.4395,16.1041C 50.8157,16.0137 51.194,16.2454 51.2844,16.6216L 51.2844,16.6216C 51.3748,16.9978 51.1431,17.3761 50.7668,17.4665L 43.0236,19.3273C 42.6474,19.4177 42.2691,19.186 42.1787,18.8098L 42.1787,18.8098C 42.0883,18.4336 42.32,18.0553 42.6962,17.9649 Z "/>
			<path fill="#CCA85D" fill-opacity="1" stroke-width="0.2" stroke-linejoin="round" d="M 40.1598,15.3427L 47.9675,10.9856C 48.3054,10.7971 48.732,10.9182 48.9205,11.256L 48.9205,11.256C 49.1091,11.5939 48.988,12.0205 48.6502,12.209L 40.8425,16.5661C 40.5046,16.7546 40.078,16.6335 39.8895,16.2957L 39.8895,16.2957C 39.701,15.9579 39.822,15.5312 40.1598,15.3427 Z "/>
			<path fill="#CCA85D" fill-opacity="1" stroke-width="0.2" stroke-linejoin="round" d="M 36.9911,13.2407L 44.4263,6.40084C 44.711,6.13887 45.1542,6.15737 45.4161,6.4421L 45.4161,6.4421C 45.6781,6.72683 45.6596,7.16994 45.3749,7.4319L 37.9397,14.2719C 37.655,14.5338 37.2118,14.5153 36.9498,14.2306L 36.9498,14.2306C 36.6879,13.9459 36.7064,13.5027 36.9911,13.2407 Z "/>
			<path fill="#CCA85D" fill-opacity="1" stroke-width="0.2" stroke-linejoin="round" d="M 33.793,11.9492L 39.1243,3.36715C 39.3284,3.03853 39.7603,2.93764 40.0889,3.14174L 40.0889,3.14174C 40.4175,3.34591 40.5184,3.77779 40.3143,4.1064L 34.983,12.6884C 34.7789,13.017 34.347,13.1179 34.0183,12.9138L 34.0183,12.9138C 33.6898,12.7097 33.5888,12.2778 33.793,11.9492 Z "/>
			<path fill="#CCA85D" fill-opacity="1" stroke-width="0.2" stroke-linejoin="round" d="M 30.6633,11.3581L 33.59,1.15523C 33.6967,0.783405 34.0845,0.568501 34.4564,0.675068L 34.4564,0.675068C 34.8282,0.781757 35.0432,1.16964 34.9365,1.54152L 32.0099,11.7443C 31.9032,12.1162 31.5153,12.3313 31.1435,12.2246L 31.1435,12.2246C 30.7716,12.1179 30.5567,11.73 30.6633,11.3581 Z "/>
			<path fill="#CCA85D" fill-opacity="1" stroke-width="0.2" stroke-linejoin="round" d="M 27.4554,11.3095L 27.5288,0.695576C 27.5315,0.308735 27.8473,-0.00272751 28.2343,-4.19617e-005L 28.2343,-4.19617e-005C 28.6212,0.00264359 28.9326,0.318501 28.9299,0.70528L 28.8565,11.3192C 28.8538,11.706 28.538,12.0175 28.1511,12.0149L 28.1511,12.0149C 27.7642,12.0122 27.4527,11.6963 27.4554,11.3095 Z "/>
			<path fill="#CCA85D" fill-opacity="1" stroke-width="0.2" stroke-linejoin="round" d="M 12.7516,21.4465L 4.78754,21.4465C 4.40067,21.4465 4.08704,21.76 4.08704,22.1469L 4.08704,22.1469C 4.08704,22.5339 4.40067,22.8476 4.78754,22.8476L 12.7516,22.8476C 13.1384,22.8476 13.4521,22.5339 13.4521,22.1469L 13.4521,22.1469C 13.4521,21.76 13.1384,21.4465 12.7516,21.4465 Z "/>
			<path fill="#CCA85D" fill-opacity="1" stroke-width="0.2" stroke-linejoin="round" d="M 13.8702,17.9617L 6.12628,16.1008C 5.75006,16.0104 5.37189,16.242 5.28149,16.6181L 5.28149,16.6181C 5.1911,16.9943 5.42273,17.3725 5.79895,17.4629L 13.5428,19.3239C 13.919,19.4143 14.2972,19.1826 14.3876,18.8064L 14.3876,18.8064C 14.478,18.4303 14.2464,18.052 13.8702,17.9617 Z "/>
			<path fill="#CCA85D" fill-opacity="1" stroke-width="0.2" stroke-linejoin="round" d="M 16.4058,15.3389L 8.59918,10.9824C 8.26135,10.794 7.83463,10.915 7.64612,11.2529L 7.64612,11.2529C 7.45758,11.5907 7.57864,12.0174 7.91644,12.206L 15.7231,16.5623C 16.0609,16.7509 16.4876,16.6298 16.6761,16.292L 16.6761,16.292C 16.8647,15.9541 16.7436,15.5274 16.4058,15.3389 Z "/>
			<path fill="#CCA85D" fill-opacity="1" stroke-width="0.2" stroke-linejoin="round" d="M 19.575,13.237L 12.1398,6.39699C 11.8551,6.13515 11.412,6.15358 11.15,6.43825L 11.15,6.43825C 10.8881,6.72304 10.9066,7.16616 11.1913,7.428L 18.6266,14.268C 18.9113,14.53 19.3544,14.5115 19.6163,14.2268L 19.6163,14.2268C 19.8782,13.9421 19.8597,13.499 19.575,13.237 Z "/>
			<path fill="#CCA85D" fill-opacity="1" stroke-width="0.2" stroke-linejoin="round" d="M 22.7707,11.9464L 17.4397,3.36477C 17.2355,3.03615 16.8035,2.9352 16.4749,3.13936L 16.4749,3.13936C 16.1462,3.34352 16.0453,3.77553 16.2495,4.10421L 21.5805,12.6858C 21.7847,13.0144 22.2166,13.1154 22.5453,12.9113L 22.5453,12.9113C 22.874,12.7071 22.9749,12.2751 22.7707,11.9464 Z "/>
			<path fill="#CCA85D" fill-opacity="1" stroke-width="0.2" stroke-linejoin="round" d="M 25.9022,11.3543L 22.9756,1.15157C 22.8689,0.779682 22.481,0.564655 22.1091,0.671345L 22.1091,0.671345C 21.7372,0.778034 21.5221,1.16603 21.6288,1.53786L 24.5554,11.7406C 24.662,12.1125 25.05,12.3275 25.4219,12.2208L 25.4219,12.2208C 25.7939,12.1142 26.0089,11.7262 25.9022,11.3543 Z "/>
		</g>
	</g>
</svg>
