<?xml version="1.0" encoding="utf-8"?>
<!DOCTYPE svg PUBLIC "-//W3C//DTD SVG 1.1//EN" "http://www.w3.org/Graphics/SVG/1.1/DTD/svg11.dtd">
<svg xmlns="http://www.w3.org/2000/svg" xmlns:xlink="http://www.w3.org/1999/xlink" version="1.1" baseProfile="full" width="171.793" height="310.113" viewBox="0 0 171.79 310.11" enable-background="new 0 0 171.79 310.11" xml:space="preserve">
	<path fill="#0D0D0C" fill-opacity="1" stroke-width="1.33333" stroke-linejoin="miter" d="M 90.6855,72.5286C 91.6465,72.1074 92.666,71.7956 93.7025,71.6099L 93.6764,71.4421C 95.0424,70.0767 94.3002,67.9785 92.4473,67.6503L 92.2871,67.5241C 91.748,69.1581 91.2246,70.8015 90.7363,72.4532L 90.6855,72.5286 Z M 66.9506,171.565L 66.875,171.641L 66.5631,171.725L 66.2682,171.616C 66.1166,171.556 66.0404,171.456 66.024,171.296C 65.6699,168.186 65.8301,165.355 64.8945,162.28C 64.0605,159.566 62.8893,156.964 62.1224,154.233C 61.4316,151.781 61.0189,149.329 61.2461,146.919C 59.9655,149.667 58.4576,152.303 56.7552,154.798C 56.9492,166.392 53.9244,178.348 49.8209,189.09L 49.7539,189.199C 50.3431,190.009 50.9414,190.801 51.5397,191.585C 51.8014,191.93 51.2617,192.258 50.9838,192.014C 50.2084,191.357 49.4166,190.725 48.6328,190.109C 48.2369,191.432 47.7904,192.721 47.3099,194.003C 60.1088,194.391 72.7643,195.107 85.5801,194.466C 85.765,194.457 85.8912,194.559 85.942,194.694C 86.0605,193.674 86.4642,192.629 86.9877,191.954C 78.6543,190.329 70.9531,184.928 68.0463,176.714C 67.4564,175.044 67.0938,173.318 66.9506,171.565 Z M 106.18,31.3522C 105.136,34.1328 104.066,36.8964 102.979,39.6601C 104.993,40.3087 107.209,38.3373 107.807,36.5255C 108.439,34.5794 107.656,32.6581 106.189,31.3522L 106.18,31.3522 Z M 17.1627,262.681C 16.0424,269.648 15.5033,276.727 15.5117,283.779C 34.166,289.163 53.2422,290.191 72.5533,290.587C 82.1764,290.78 91.8405,291.025 101.471,290.646C 111.101,290.267 122.645,289.82 131.045,284.563L 131.214,284.521C 130.581,279.12 129.714,273.802 128.635,268.546C 109.712,272.243 90.3483,272.799 71.1381,271.62C 61.7012,271.039 52.2643,270.104 42.8951,268.849C 34.2168,267.686 25.3359,266.237 17.2389,262.79L 17.1627,262.681 Z M 45.8861,165.776C 45.8359,166.029 45.4902,166.021 45.4564,165.751C 45.2377,164.033 45.9453,162.591 46.3666,160.957C 46.6361,159.904 47.5631,156.685 47.0319,155.194C 46.8802,157.107 46.1895,158.716 45.2207,160.477C 43.2487,164.023 41.7324,167.208 41.901,171.396C 42.1621,177.867 45.541,183.419 49.265,188.534C 53.2338,177.605 55.0026,166.703 56.4518,155.228C 53.6211,159.28 50.2592,162.953 46.4844,166.038C 46.2233,166.249 45.8861,166.029 45.8861,165.776 Z M 45.8945,165.725L 45.9961,165.557C 59.8307,153.888 66.1836,137.255 65.442,119.409L 65.1895,119.106C 64.8613,118.727 65.4088,118.163 65.7455,118.55C 69.6217,122.889 69.0573,128.56 69.5541,133.986C 69.9668,138.418 71.1041,143.137 74.1211,146.557C 76.9603,149.776 80.7689,150.913 84.7793,151.486C 88.0996,151.301 91.4615,151.857 94.5033,153.163C 95.64,153.652 96.7103,154.225 97.7377,154.874C 90.2142,148.065 81.274,141.788 79.5306,131.644C 78.4603,125.417 80.2715,118.499 82.5801,112.762C 84.6361,107.647 87.7793,101.075 92.3627,97.7382C 92.0345,97.9745 91.6127,97.4271 91.9238,97.1738L 92.0931,97.0475C 85.2506,94.8314 81.2402,87.4173 83.515,80.4238C 84.6777,76.8177 87.3158,74.0704 90.5176,72.6047C 90.3822,72.5964 90.2559,72.4948 90.2897,72.3262C 92.649,61.3138 97.6881,50.9843 101.791,40.5527C 106.012,29.8183 109.906,18.9745 113.537,8.03839C 107.445,3.05011 98.5215,1.64325 90.8795,1.17108C 83.1869,0.699158 75.4271,1.5755 68.0463,3.79169C 54.5566,7.82745 42.6588,16.4218 34.4271,27.8215C 26.2631,39.112 24.1901,52.5007 18.6543,64.9708C 18.267,65.847 10.6328,79.1511 8.98181,78.8985C 10.3379,79.3958 17.3906,75.4694 18.6967,74.7278C 22.2096,72.7142 25.3444,70.2032 28.1836,67.33C 28.5463,66.9675 29.0514,67.5071 28.7402,67.886C 17.7865,81.1901 6.74023,97.8568 12.7057,115.846C 15.0143,122.797 18.6627,129.057 19.0586,136.539C 19.3789,142.521 18.0137,148.361 15.3431,153.66C 21.7383,149.953 27.1055,145.142 31.276,138.949C 31.5117,138.586 32.1693,138.806 32.0092,139.26C 28.8666,148.158 27.2233,156.71 29.8861,165.995C 32.4135,174.792 37.8568,181.836 45.3301,187.001C 45.642,187.211 47.9252,188.99 49.3073,189.941C 48.5319,189.082 47.6641,187.565 47.209,186.9C 44.9596,183.647 42.9375,180.159 41.8842,176.316C 40.957,172.922 40.7383,169.247 41.7408,165.844C 42.9375,161.783 46.375,158.622 46.2656,154.199C 46.2572,153.794 46.7539,153.719 46.9648,153.964L 47.0072,153.971C 48.3802,154.697 47.875,156.66 47.7318,157.949C 47.4199,160.62 46.1641,163.081 45.8945,165.725 Z M 170.579,41.5977C 172.382,48.7851 172.373,58.2388 169.501,65.1647C 167.234,70.6158 162.709,72.2845 157.611,72.4023C 158.893,85.1334 156.045,98.2441 150.887,109.846L 150.846,109.906C 153.045,111.202 154.072,114.051 153.609,116.536C 153.02,119.755 149.7,120.665 146.818,120.665C 146.624,120.665 146.43,120.665 146.236,120.656C 142.109,133.488 129.292,139.724 116.594,140.802C 109.525,141.409 101.672,140.921 94.6127,138.595C 93.7103,142.353 93.1881,145.984 93.373,149.868C 93.5006,149.978 93.6348,150.087 93.7611,150.206C 105.044,147.358 112.744,158.362 112.846,168.514C 114.193,168.077 115.887,168.75 116.671,169.88C 117.531,171.118 117.218,172.988 115.66,173.427C 115.676,173.561 115.693,173.68 115.693,173.823C 115.686,174.801 115.314,175.491 114.742,175.98C 115.382,177.185 115.154,178.768 114.236,179.755C 119.064,182.484 123.84,185.409 128.501,188.408L 128.593,188.534C 129.596,185.661 130.691,182.797 131.441,179.839C 131.887,178.103 132.309,176.309 132.258,174.505C 132.174,171.422 130.885,170.141 129.377,167.681C 126.891,163.62 127.751,157.25 127.54,152.674L 127.549,152.624C 127.321,150.981 129.141,149.422 130.758,149.987L 130.953,150.206C 131.105,150.012 131.281,149.835 131.501,149.684C 131.727,149.523 131.997,149.422 132.266,149.371C 132.368,147.745 131.787,146.009 132.385,144.467C 132.807,143.363 133.943,142.588 135.098,142.993C 135.317,142.741 135.594,142.547 135.915,142.454C 136.699,142.227 137.575,142.622 137.988,143.305C 138.249,142.841 138.73,142.53 139.252,142.411C 140.465,142.134 141.568,142.884 141.889,143.962C 142.252,143.355 142.84,143.027 143.658,143.188C 144.282,143.128 144.872,143.87 145.117,144.375C 145.546,145.234 145.571,146.262 145.486,147.223C 145.74,146.987 146.051,146.802 146.439,146.725C 147.525,146.507 148.663,147.298 148.874,148.378L 148.814,148.596C 148.975,149.456 148.967,150.332 148.891,151.216C 149.229,154.958 149.363,158.792 148.36,162.414C 147.787,164.479 146.86,166.223 145.58,167.934C 143.389,170.857 143.869,173.747 144.029,177.277C 144.568,188.846 147.105,202.664 142.495,213.685L 142.301,213.803C 142.277,213.98 142.126,214.156 141.906,214.124C 129.941,212.505 117.766,208.512 107.277,202.1C 108.212,209.262 112.037,216.095 114.758,222.7C 117.497,229.34 120.16,236.022 122.535,242.805C 127.296,256.336 130.691,270.255 132.09,284.546C 132.132,284.9 131.804,285.026 131.533,284.934L 131.39,285.152C 128.189,287.284 124.524,288.641 120.689,289.534L 120.808,289.786C 121.347,297.589 114.758,301.608 107.782,301.978C 106.172,302.771 104.411,303.393 102.684,303.9C 93.2728,306.663 83.2715,306.798 73.5645,306.048C 62.9486,305.23 52.0541,302.281 41.4037,302.948C 33.8627,303.419 26.903,308.281 19.5221,308.794C 19.6146,308.862 19.623,309.039 19.4713,309.09C 15.4102,310.522 3.56384,311.609 5.24023,303.966C 6.03259,300.344 10.8014,297.462 13.5065,295.348C 17.3483,292.348 21.4264,289.711 25.6816,287.352C 22.151,286.534 18.6627,285.556 15.2338,284.361C 15.0143,284.41 14.7448,284.293 14.7448,284.006C 14.5254,268.107 17.2474,251.777 23.5156,237.091C 23.3978,237.059 23.3053,236.974 23.2715,236.814C 22.901,235.112 22.8002,230.309 21.5443,229.214C 19.8594,227.723 13.7252,228.716 11.3658,228.725C 10.9615,228.725 10.7592,228.118 11.1471,227.932C 15.4863,225.885 19.4883,223.349 23.0944,220.181C 24.7377,218.741 26.2709,217.19 27.7123,215.547C 28.7311,214.376 31.4615,211.84 31.8998,209.852C 29.0768,210.669 26.2207,211.368 23.3639,211.983C 20.601,212.581 17.8119,213.095 15.0059,213.517C 13.0092,213.82 10.3717,214.612 8.40039,214.326C 5.55212,213.896 4.82751,209.691 3.94275,207.323C 2.02209,202.15 0.757813,196.799 0,191.34C -0.0423584,191.012 0.244141,190.793 0.496704,190.793C 0.665405,190.793 0.808594,190.885 0.842407,191.104C 1.45764,195.57 2.401,199.967 3.79944,204.266C 4.57483,206.658 5.28259,209.809 6.7572,211.84C 8.375,214.073 10.8353,213.18 13.2955,212.835C 22.4375,211.561 31.1752,209.085 40.0306,206.557C 40.5189,205.698 40.9908,204.829 41.4629,203.962C 36.2897,203.793 31.1328,203.819 25.9681,203.853C 25.7572,203.861 25.7656,203.557 25.9681,203.54C 31.2084,203.12 36.5084,203.111 41.7578,203.339L 41.8002,203.346C 42.0612,202.858 42.3053,202.37 42.5664,201.88L 42.5494,201.829C 40.4935,201.266 38.4127,200.87 36.2897,200.617C 36.0703,200.591 36.0619,200.263 36.2897,200.271C 38.5221,200.38 40.7045,200.76 42.8698,201.307C 43.2324,200.617 43.6113,199.926 43.9648,199.227L 43.957,199.227C 29.8184,194.129 15.4694,191.677 0.513672,190.607L 0.471313,190.607C 0.134766,190.582 0.126343,190.068 0.471313,190.06C 7.98694,190.043 15.5287,190.868 22.9596,192.352C 19.9857,190.186 17.1543,187.861 14.4244,185.4C 12.6803,183.832 9.10803,181.516 8.23181,179.309C 7.55725,177.605 8.72009,176.789 9.97595,175.82C 13.1016,173.384 16.5983,171.329 20.0781,169.466C 21.6451,168.633 25.6478,165.734 27.6615,166.266C 28.4869,166.484 29.1615,167.191 29.726,168.068C 28.7064,165.094 28.0488,162.001 27.7709,158.884C 27.4844,155.59 27.6445,152.27 28.2598,149.017C 28.6471,146.987 29.2201,144.99 29.8607,143.018C 29.9869,142.639 30.0963,142.243 30.2142,141.838L 30.0541,142.057C 25.976,147.424 20.7435,151.772 14.7363,154.823C 14.6439,154.991 14.5508,155.168 14.4498,155.337C 14.2057,155.775 13.5651,155.43 13.7168,155C 13.6158,154.857 13.6158,154.646 13.8177,154.536L 13.9948,154.435C 19.8086,143.904 18.8815,133.051 14.3652,122.224C 10.5319,113.04 9.02344,104.462 11.8209,94.722C 13.127,90.1634 15.166,85.8411 17.601,81.78C 19.3705,78.8398 21.4095,75.1745 23.8021,72.2422C 22.6563,73.1185 21.4766,73.9525 20.2467,74.7025C 16.3457,77.0956 12.1412,78.772 7.70898,79.8926C 7.36389,79.9857 7.01819,79.5052 7.3385,79.2441C 18.9746,69.7226 20.7604,54.3542 26.0605,41.1849C 30.3828,30.4421 37.5365,20.9713 46.6615,13.8437C 56.0814,6.47919 67.4056,1.89581 79.278,0.530579C 89.9785,-0.69928 105.212,-0.303406 113.797,7.27997C 113.856,7.10284 113.916,6.92584 113.975,6.74921L 113.807,6.74017C 113.545,6.73187 113.46,6.31903 113.739,6.26886C 121.078,5.00519 133.826,9.05792 133.581,18.1068L 133.581,18.1237C 141.762,17.1379 149.928,19.1432 156.676,23.929C 162.971,28.386 168.658,33.9218 170.579,41.5977 Z M 170.057,60.2779C 171.227,53.7558 171.38,46.2994 169.273,39.9628C 166.906,32.8183 160.333,26.9708 154.006,23.1706C 147.661,19.3705 140.456,18.1575 133.186,18.9492C 129.486,22.8001 127.178,27.4511 124.675,32.1191C 122.468,36.222 119.839,39.9968 117.193,43.8307C 110.865,52.9642 105.127,62.4428 99.1791,71.821C 99.8105,71.9896 100.443,72.1913 101.058,72.4694L 101.328,72.5117C 103.712,76.6992 104.512,81.5189 102.465,86.0098C 99.4824,92.5482 89.8431,97.6036 93.0033,105.768C 94.3092,102.718 96.7103,100.78 99.4655,98.9011C 104.158,95.7077 108.7,92.5988 111.96,87.8464C 118.811,77.8204 118.356,65.0632 118.137,53.4778L 118.238,53.2167L 118.145,53.0234C 118.053,52.821 118.322,52.6607 118.441,52.8464L 118.609,53.1413C 118.744,53.1829 118.861,53.293 118.87,53.4778L 118.87,53.5964C 121.786,58.7949 121.769,64.912 121.684,70.7422L 121.667,70.8183C 129.908,71.7786 137.718,72.5456 146.035,71.6693C 146.219,71.6523 146.329,71.7532 146.363,71.8886C 146.422,72.0905 146.313,72.3599 146.035,72.3937C 137.87,73.3041 129.09,73.3796 121.111,71.1634C 120.943,71.1132 120.934,70.8775 121.053,70.793L 121.044,70.7422C 121.119,65.207 120.976,59.8477 118.912,54.7337C 119.274,65.0214 119.257,75.899 114.421,85.2513C 112.248,89.4556 109.18,92.8599 105.439,95.7245C 101.167,98.9941 95.6061,101.32 93.2637,106.434C 93.3652,106.855 92.7754,107.184 92.5645,106.754C 90.9811,103.477 91.5371,100.275 93.0879,97.3339L 93.0787,97.3339L 92.9186,97.2917C 92.9694,97.3932 92.9694,97.511 92.9186,97.6374C 91.8236,100.132 89.1855,102.288 87.6699,104.614C 85.8326,107.445 84.291,110.453 83.0775,113.596C 81.2402,118.339 79.7246,123.858 80.0111,129.116C 80.0944,130.574 80.3223,132.014 80.7103,133.405C 82.6061,140.129 87.5006,144.746 92.6322,149.22C 92.3965,145.588 92.834,141.838 94.183,138.443C 88.765,136.598 83.8353,133.658 80.1205,129.251L 80.0697,129.116C 80.0697,128.956 80.2545,128.829 80.3978,128.964C 97.0045,144.939 137.061,145.909 145.36,120.252C 145.462,119.949 145.748,119.873 145.984,119.949L 146.236,119.839C 149.025,119.662 152.32,119.393 152.792,116.022C 153.13,113.697 151.999,111.456 150.071,110.191C 149.817,110.023 149.911,109.72 150.12,109.635L 150.154,109.417C 155.361,97.5026 157.206,85.3275 157.308,72.4107C 155.968,72.4277 154.596,72.3432 153.213,72.1835C 153.087,72.1745 153.003,72.1074 152.953,72.0234C 152.783,72.1666 152.438,72.0905 152.413,71.7872C 151.797,62.3757 147.745,54.4388 141.4,47.9343C 146.666,54.5483 149.244,63.6732 146.632,71.8294L 146.447,71.8802L 146.413,71.7702C 147.855,61.6679 145.639,52.2142 137.904,45.1282C 137.718,44.9597 137.811,44.7324 137.971,44.6309L 138.24,44.4877C 147.13,50.5462 152.27,60.9941 153.02,71.56L 153.213,71.5175C 157.215,71.8294 161.488,72.1745 164.976,69.7819C 168.152,67.6081 169.399,63.9173 170.057,60.2779 Z M 146.835,164.462C 149.084,159.465 148.495,153.719 147.872,148.419C 147.846,148.191 148.015,148.074 148.2,148.074C 147.872,147.484 147.256,147.088 146.54,147.232C 145.824,147.366 145.277,148.091 145.183,148.824C 145.335,148.79 145.529,148.874 145.546,149.085C 145.748,151.849 145.85,154.755 145.554,157.51L 145.386,157.536C 144.964,154.814 144.906,151.915 144.973,149.16L 144.956,149.135C 144.872,148.773 144.889,148.411 144.981,148.074C 144.889,148.04 144.821,147.948 144.83,147.812C 144.906,147.046 144.981,146.271 144.864,145.512C 144.77,144.863 144.442,143.844 143.734,143.684L 143.684,143.693C 141.41,143.457 142.15,148.453 142.167,149.507C 142.209,151.191 142.26,152.876 142.192,154.561C 142.184,154.714 141.982,154.704 141.965,154.561C 141.779,152.885 141.712,151.191 141.636,149.507C 141.568,148.174 141.257,146.482 141.485,145.116L 141.359,144.88C 141.417,143.887 140.794,142.926 139.699,142.977C 139.201,143.001 138.468,143.474 138.266,144.013L 138.443,144.181C 139.143,147.383 139.167,150.897 138.771,154.141C 138.747,154.318 138.485,154.326 138.485,154.141C 138.426,150.93 138.165,147.779 137.946,144.586C 137.854,144.426 137.803,144.24 137.794,144.047L 137.618,143.87C 137.348,143.237 136.657,142.79 135.965,143.06C 135.587,143.212 135.275,143.6 135.115,144.021L 135.199,144.24C 135.132,147.467 135.57,150.99 135.047,154.165L 134.887,154.165C 134.635,153.163 134.508,152.085 134.449,150.99C 134.305,151.107 134.019,151.065 133.953,150.854C 133.632,149.868 132.41,149.725 131.686,150.383C 131.171,150.846 130.994,151.57 130.928,152.228C 130.817,153.155 130.936,154.082 130.86,155C 131.045,154.949 131.273,155.042 131.264,155.294C 131.197,157.165 131.079,159.061 131.163,160.931C 131.314,164.217 131.964,165.439 134.331,168.077C 135.258,169.113 135.713,169.4 135.848,170.866C 136.118,173.781 134.643,177.454 133.919,180.251C 132.984,183.849 131.921,187.431 130.547,190.885L 130.372,191.012C 131.297,191.542 132.217,192.073 133.143,192.604C 133.506,192.806 133.176,193.354 132.824,193.151C 126.251,189.444 119.637,185.728 113.334,181.574C 113.266,181.751 113.2,181.928 113.098,182.105C 111.734,184.574 108.709,183.251 106.964,181.928C 108.498,183.37 109.896,186.15 107.967,187.793C 106.476,189.056 104.808,188.307 103.51,187.16C 104.84,189.503 105.515,192.444 102.903,194.163C 100.907,195.477 98.9772,194.146 97.5787,192.359C 97.722,193.151 97.7637,193.944 97.6451,194.66C 111.195,204.29 125.484,211.073 142.075,213.508L 142.126,213.525C 145.377,201.089 143.818,188.29 143.229,175.609C 143.153,173.898 142.689,171.699 143.271,170.031C 143.979,167.967 145.925,166.475 146.835,164.462 Z M 134.693,144.004C 134.693,143.87 134.718,143.727 134.769,143.583C 132.916,143.237 132.781,145.672 132.848,146.97C 132.89,147.822 132.907,148.562 132.68,149.329C 133.421,149.329 134.145,149.701 134.416,150.4C 134.348,148.327 134.508,146.178 134.567,144.24L 134.693,144.004 Z M 133.295,180.083C 134.533,175.272 135.982,172.003 132.756,167.757C 130.118,164.268 130.329,160.367 130.581,156.12L 130.515,156.053C 130.455,154.469 129.831,152.102 130.717,150.551L 130.598,150.551C 129.368,150.315 128.214,151.199 127.969,152.379C 128.088,152.413 128.18,152.514 128.189,152.674C 128.416,156.626 127.945,161.394 128.981,165.22C 129.814,168.279 132.385,169.812 132.831,173.09C 133.581,178.625 130.717,185.012 128.459,189.9C 129.04,190.236 129.613,190.573 130.195,190.902L 130.178,190.784C 131.222,187.22 132.377,183.681 133.295,180.083 Z M 132.739,18.2499L 132.705,18.1068C 132.579,9.68939 122.611,7.44012 115.609,6.8587C 117.572,7.44867 119.426,9.04095 118.912,11.2819C 118.364,13.6581 115.887,14.3405 113.688,14.4413C 115.331,15.8066 116.258,17.8034 115.348,19.9941C 114.472,22.1094 112.348,23.1368 110.191,23.1368C 113.764,24.6198 111.674,31.9335 107.1,31.226C 108.835,33.0117 109.29,35.7669 107.874,37.9329C 107.1,39.112 105.532,40.2499 104.041,40.3001C 105.692,41.362 106.316,43.679 105.566,45.541C 104.74,47.5715 102.786,48.6334 100.747,48.6751C 102.019,49.5683 102.735,50.976 101.968,52.6099C 101.201,54.2194 99.4408,55.121 97.7129,54.9864C 98.8926,55.9466 100.021,57.2526 99.4824,58.8118C 98.8834,60.5729 96.9629,60.9771 95.278,61.0019C 97.308,63.0919 96.3392,66.7824 93.2975,67.3215C 94.9576,68.0462 95.4291,70.3378 93.8535,71.5853C 95.4291,71.3235 97.0645,71.3405 98.6738,71.6946C 104.235,61.4492 110.782,51.6921 117.429,42.1205C 122.712,34.5117 126.1,25.1341 132.562,18.4355L 132.739,18.2499 Z M 128.172,189.73C 128.282,189.41 128.399,189.099 128.508,188.779L 128.273,188.786C 123.454,185.999 118.65,183.074 113.992,180.008C 113.831,180.142 113.654,180.268 113.453,180.361C 113.494,180.647 113.486,180.934 113.426,181.237C 118.39,183.984 123.268,186.883 128.172,189.73 Z M 128.493,267.786C 128.214,266.456 127.92,265.133 127.617,263.81L 127.498,263.861C 108.945,267.053 89.9355,266.859 71.1803,266.203C 53.1914,265.57 34.8236,265.487 17.8789,258.654C 17.6178,259.967 17.3906,261.29 17.1797,262.613L 17.3483,262.521C 35.0084,268.022 53.5455,269.818 71.9557,270.837C 90.8795,271.882 109.821,271.241 128.493,267.786 Z M 127.304,263.152L 127.464,263.161C 125.644,255.359 123.352,247.674 120.58,240.04C 119.881,238.111 119.157,236.19 118.424,234.27C 89.0853,242.518 56.1908,238.331 26.903,231.75C 22.6986,240.176 19.7748,249.141 17.9381,258.341C 35.3457,264.206 52.9642,264.88 71.1803,265.453C 89.9863,266.043 108.658,265.934 127.304,263.152 Z M 108.792,301.448C 114.96,300.378 120.538,296.974 120.1,289.786L 120.117,289.66C 118.162,290.09 116.174,290.427 114.186,290.671C 115.441,295.962 112.693,299.273 108.792,301.448 Z M 117.859,11.8802C 119.257,9.42841 116.611,7.91998 114.623,7.44012C 113.941,9.52094 113.234,11.5937 112.525,13.6666L 112.61,13.6921C 112.753,13.7761 112.887,13.8607 113.031,13.9532C 114.826,13.81 116.882,13.5821 117.859,11.8802 Z M 118.179,233.654C 117.766,232.576 117.337,231.505 116.907,230.427L 116.873,230.444C 88.403,237.328 56.4688,237.875 28.3353,228.986C 27.9479,229.702 27.569,230.418 27.1979,231.143L 27.0547,231.438C 42.5748,233.536 57.834,236.721 73.5143,237.605C 88.5879,238.457 103.535,237.387 118.179,233.654 Z M 115.533,172.803C 116.932,172.323 116.679,170.596 115.744,169.737C 114.893,168.97 113.882,168.927 112.837,169.036C 112.829,169.635 112.804,170.225 112.736,170.815L 112.669,170.983C 113.958,171.076 115.12,171.616 115.533,172.803 Z M 114.843,174.194C 115.145,172.854 113.95,171.919 112.77,171.75C 111.792,171.599 110.916,171.927 110.032,172.247L 110.115,172.534C 110.191,172.811 110.023,173.014 109.804,173.082C 109.719,174.1 109.501,175.129 109.18,176.148L 109.365,176.107C 111.236,176.41 114.286,176.688 114.843,174.194 Z M 114.666,19.7077C 115.567,17.3314 114.118,15.8488 112.458,14.4413L 112.357,14.4413L 112.273,14.4081C 111.321,17.1718 110.351,19.9269 109.365,22.6738C 111.564,22.707 113.824,21.9577 114.666,19.7077 Z M 116.662,229.803C 115.365,226.517 114.042,223.249 112.693,219.979C 111.127,216.188 109.231,212.362 108.01,208.393C 85.4615,208.47 62.8307,209.539 40.2916,209.211C 40.14,209.211 40.0638,209.102 40.0475,208.983C 36.2559,215.605 32.0599,222.052 28.4785,228.708C 43.0469,231.961 57.4799,234.513 72.4609,234.733C 87.3666,234.943 102.162,233.207 116.662,229.803 Z M 113.646,179.418C 114.514,178.592 114.859,177.362 114.429,176.216C 113.351,176.923 111.758,177.042 110.394,176.855C 111.581,177.539 112.821,178.525 113.283,179.721L 113.402,179.62L 113.3,179.552C 113.149,179.452 113.283,179.215 113.443,179.309L 113.646,179.418 Z M 89.7845,305.281C 97.6543,304.641 116.225,302.509 113.41,290.764C 110.462,291.1 107.52,291.286 104.714,291.454C 94.5449,292.07 84.3158,291.775 74.1381,291.564C 66.9336,291.413 59.6205,291.277 52.3151,290.857L 52.3066,290.906C 50.8744,294.648 50.293,298.397 50.1328,302.391C 54.8678,302.846 59.6035,303.714 64.2461,304.262C 72.7057,305.264 81.2662,305.973 89.7845,305.281 Z M 112.559,181.339C 113.225,179.055 110.613,177.766 108.962,176.957L 108.911,176.915C 108.338,178.465 107.537,179.957 106.561,181.314L 106.863,181.254C 108.363,182.181 111.734,184.186 112.559,181.339 Z M 112.037,170.815C 112.079,170.233 112.104,169.652 112.104,169.079L 112.104,168.885C 112.071,158.588 105.255,149.607 94.2076,150.594C 97.2494,153.231 100.266,155.893 102.692,158.986C 105.979,162.482 108.355,166.863 109.795,171.481C 110.453,171.194 111.261,171.009 112.071,170.975L 112.037,170.815 Z M 111.287,27.2487C 111.523,25.6061 110.79,23.9206 109.071,23.5417L 109.054,23.5417C 108.187,25.9343 107.309,28.3275 106.417,30.7116L 106.493,30.6946C 108.877,31.2343 110.941,29.6249 111.287,27.2487 Z M 108.886,172.954C 108.902,172.762 109.012,172.643 109.146,172.568C 105.111,158.564 89.8092,146.22 75.4355,155.294C 68.3242,159.777 66.1674,168.801 68.8887,176.486C 71.8041,184.734 79.5814,189.512 87.6869,191.618L 87.7871,191.702L 87.9056,191.517C 96.5592,188.087 108.01,184.069 108.886,172.954 Z M 107.503,187.203C 109.333,185.535 107.023,183.327 106.063,182.004L 106.054,181.996C 105.035,183.31 103.864,184.482 102.617,185.409C 103.779,186.681 105.801,188.762 107.503,187.203 Z M 107.756,207.543C 107.234,205.664 106.872,203.751 106.787,201.788C 103.527,199.766 100.434,197.516 97.5697,195.022C 97.2832,196.126 96.5502,196.96 95.0762,197.103C 93.1295,197.289 91.916,196.185 91.3014,194.702C 91.0645,196.328 90.265,197.727 88.3014,197.845C 86.4303,197.962 85.8236,196.589 85.9082,195.064C 85.8496,195.182 85.7402,195.267 85.5801,195.275C 72.8822,195.906 59.7969,196.151 47.1836,194.357C 45.2963,199.328 42.8529,204.072 40.1986,208.723L 40.2916,208.68C 62.6113,206.953 85.3861,207.349 107.756,207.543 Z M 104.9,45.3052C 105.743,43.1817 104.622,41.3111 102.684,40.4349L 102.558,40.7636C 101.589,43.207 100.604,45.6419 99.6256,48.0775L 99.9199,48.2038C 102.019,48.2454 104.066,47.4368 104.9,45.3052 Z M 102.811,193.286C 105.212,191.155 103.333,188.053 101.833,185.982C 100.223,187.135 98.4381,188.298 96.5502,189.284C 96.7611,189.689 96.9629,190.177 97.149,190.708C 98.5553,192.798 100.704,195.148 102.811,193.286 Z M 102.221,84.3751C 103.527,80.5247 102.592,76.6153 101.109,72.9837L 101.041,72.9922C 93.9551,71.0124 86.3041,73.6074 84.1816,81.2154C 82.2181,88.2598 86.6842,94.4525 93.2806,96.6009L 93.4408,96.7018C 93.8705,95.9609 94.36,95.2447 94.89,94.5449C 97.4095,91.2253 100.839,88.4446 102.221,84.3751 Z M 101.117,52.9048C 101.757,51.9446 101.917,50.6894 101.075,49.7792C 100.604,49.2819 99.9799,48.987 99.4147,48.6081C 98.6309,50.571 97.8392,52.5345 97.0723,54.4974L 97.1816,54.5735C 98.6816,54.7675 100.249,54.2025 101.117,52.9048 Z M 98.9264,58.6601C 99.4147,57.1432 97.9576,55.9048 96.8457,55.0788C 96.1283,56.899 95.4291,58.7187 94.7559,60.5475L 94.89,60.6569C 96.4316,60.556 98.3873,60.3366 98.9264,58.6601 Z M 94.722,196.445C 98.252,196.43 96.9381,191.66 95.8756,189.638C 94.36,190.379 92.7924,190.995 91.2168,191.391L 91.2246,191.509C 91.2924,191.954 91.351,192.444 91.3678,192.941C 91.7051,194.753 92.6152,196.462 94.722,196.445 Z M 92.7338,66.976C 95.7832,66.6224 96.8197,62.9654 94.5371,61.1536C 93.8041,63.1341 93.0957,65.1224 92.4213,67.1275L 92.5228,67.1191L 92.5566,67.1275L 92.7338,66.976 Z M 88.9252,197.036C 91.183,196.193 90.8549,193.471 90.5514,191.542C 89.683,191.719 88.8158,191.837 87.9473,191.854L 87.8379,191.82C 87.847,191.954 87.7363,192.107 87.5605,192.073L 87.3912,192.039C 86.8105,193.059 86.3549,194.171 86.4642,195.367C 86.5905,196.758 87.6191,197.516 88.9252,197.036 Z M 73.1855,155.826C 75.8568,153.652 79.0918,152.303 82.4707,151.747C 77.39,150.964 73.0846,147.897 70.8346,142.867C 67.6752,135.806 70.3463,126.411 65.931,120.066C 66.892,128.551 65.392,137.214 62.0469,145.116C 61.2299,149.742 62.6953,154.165 64.3385,158.639C 65.2487,161.134 66.1836,163.661 66.5631,166.298C 66.6133,166.686 66.8158,168.144 66.8834,169.332C 67.0098,164.201 69.0742,159.188 73.1855,155.826 Z M 50.5795,294.285C 50.8998,293.105 51.2955,291.952 51.7676,290.823C 50.9414,290.772 50.1158,290.704 49.2904,290.646C 48.4811,290.983 47.875,291.673 47.9928,292.609C 48.1191,293.535 48.9615,294.092 49.8295,294.176C 50.0488,294.168 50.2676,294.185 50.4785,294.219L 50.5795,294.285 Z M 50.4615,294.724L 50.4108,294.741C 49.2227,294.69 47.942,294.926 47.4199,296.139C 46.8971,297.344 47.765,298.65 49.0541,298.499L 49.1302,298.49L 49.2904,298.473L 49.3242,298.473L 49.5599,298.456C 49.6862,298.465 49.7793,298.583 49.7793,298.7L 49.6693,298.861C 48.9701,299.164 48.2455,299.299 47.5717,299.695C 47.2006,299.914 46.8385,300.176 46.5267,300.478C 46.358,300.638 46.181,300.807 46.0801,301.018C 46.0377,301.169 45.9961,301.329 45.9537,301.49C 46.1139,301.7 46.274,301.911 46.4258,302.121L 46.442,302.13C 47.5547,302.181 48.6752,302.256 49.7955,302.358C 49.6862,301.135 49.6947,299.914 49.7955,298.7C 49.9056,297.361 50.1328,296.03 50.4615,294.724 Z M 46.7201,296.654C 46.8385,295.423 47.7402,294.639 48.8184,294.328C 48.1445,294.059 47.6049,293.477 47.4615,292.719C 47.3099,291.935 47.6641,291.1 48.2709,290.578C 46.1563,290.418 44.058,290.25 41.9596,290.022C 42.0189,290.199 41.9596,290.435 41.7324,290.52C 36.3652,292.6 31.1328,294.488 26.3893,297.083C 21.6537,299.678 17.3906,302.98 13.9779,307.927L 14.0873,307.901C 23.0189,309.974 30.4752,303.536 39.028,302.408C 41.2604,302.113 43.5104,302.038 45.7682,302.104C 45.3978,301.667 45.5326,300.875 45.9283,300.385C 46.4258,299.762 47.2682,299.13 48.1445,298.768C 47.2767,298.532 46.6191,297.639 46.7201,296.654 Z M 46.4844,194.02C 47.108,192.646 47.7148,191.255 48.2877,189.849C 44.1842,186.681 40.0391,183.975 36.5924,180.134C 39.6094,184.894 42.8275,189.495 46.4258,193.918L 46.4844,194.02 Z M 46.2402,194.551L 45.8945,194.449C 42.1283,190.396 39.0026,185.754 36.0873,181.077C 34.4948,178.525 32.9694,175.921 31.4615,173.318C 30.7787,172.138 30.1556,170.41 29.2031,169.408C 28.6556,167.638 27.3326,167.15 25.2266,167.941C 24.7799,168.152 24.3248,168.363 23.8783,168.574C 21.1315,169.635 18.5026,171.32 16.0084,172.854C 14.7955,173.604 13.3463,174.388 12.2592,175.306C 11.1471,175.777 10.4896,176.62 10.2877,177.842C 9.15039,178.988 9.25977,179.906 10.6158,180.605C 12.2006,182.973 15.1406,184.97 17.2728,186.858C 19.4713,188.803 21.7383,190.674 23.9961,192.561C 27.2233,193.236 30.4252,194.027 33.5931,194.93C 31.6888,192.823 29.7676,190.826 27.6361,188.93C 27.4928,188.796 27.6953,188.534 27.847,188.652C 30.2734,190.456 32.6074,192.655 34.4271,195.064L 34.4694,195.182C 37.3256,196.008 40.14,196.943 42.9205,197.938C 39.8112,194.23 36.5084,190.969 32.5313,188.113C 32.3541,187.987 32.5143,187.691 32.7084,187.81C 37.0306,190.573 41.0248,194.146 44.024,198.326L 44.1927,198.384L 44.3444,198.477C 45.0013,197.178 45.625,195.872 46.2402,194.551 Z M 39.668,207.206C 37.267,208.167 34.8066,208.992 32.3209,209.725C 32.3463,211.318 30.7539,212.859 29.8776,214.03C 27.7793,216.819 25.3529,219.372 22.6901,221.622C 20.1627,223.754 17.4154,225.633 14.5092,227.208C 11.5684,228.793 13.8092,227.874 16.1348,227.874C 18.2584,227.883 20.3815,227.883 22.5045,227.883C 22.7408,227.883 22.9095,228.068 22.918,228.296C 23.0944,230.915 23.4486,233.493 23.9707,236.064C 24.1901,235.559 24.4088,235.052 24.6367,234.547C 29.0182,225.06 34.5619,216.255 39.668,207.206 Z M 41.2018,289.947C 36.1713,289.382 31.1836,288.59 26.2709,287.486C 26.3385,287.638 26.3217,287.832 26.1283,287.932C 21.056,290.764 16.2279,293.974 11.7623,297.707C 8.86328,300.125 2.48499,305.441 9.20056,308.93C 11.9727,310.37 16.2363,309.477 19.168,308.811C 17.4746,308.896 15.7474,308.753 13.9863,308.255C 13.8346,308.214 13.8431,308.053 13.9193,307.961C 13.776,308.061 13.5651,307.927 13.6576,307.742C 18.6543,297.293 31.192,293.704 41.2018,289.947 Z "/>
	<path fill="#633A0A" fill-opacity="1" stroke-width="1.33333" stroke-linejoin="miter" d="M 169.273,39.9628C 171.38,46.2994 171.227,53.7558 170.057,60.2779C 169.399,63.9173 168.152,67.6081 164.976,69.7819C 161.488,72.1745 157.215,71.8294 153.213,71.5175L 153.02,71.56C 152.27,60.9941 147.13,50.5462 138.24,44.4877L 137.971,44.6309C 137.811,44.7324 137.718,44.9597 137.904,45.1282C 145.639,52.2142 147.855,61.6679 146.413,71.7702L 146.447,71.8802L 146.363,71.8886C 146.329,71.7532 146.219,71.6523 146.035,71.6693C 137.718,72.5456 129.908,71.7786 121.667,70.8183L 121.684,70.7422C 121.769,64.912 121.786,58.7949 118.87,53.5964L 118.87,53.4778C 118.861,53.293 118.744,53.1829 118.609,53.1413L 118.441,52.8464C 118.322,52.6607 118.053,52.821 118.145,53.0234L 118.238,53.2167L 118.137,53.4778C 118.356,65.0632 118.811,77.8204 111.96,87.8464C 108.7,92.5988 104.158,95.7077 99.4655,98.9011C 96.7103,100.78 94.3092,102.718 93.0033,105.768C 89.8431,97.6036 99.4824,92.5482 102.465,86.0098C 104.512,81.5189 103.712,76.6992 101.328,72.5117L 101.058,72.4694C 100.443,72.1913 99.8105,71.9896 99.1791,71.821C 105.127,62.4428 110.865,52.9642 117.193,43.8307C 119.839,39.9968 122.468,36.222 124.675,32.1191C 127.178,27.4511 129.486,22.8001 133.186,18.9492C 140.456,18.1575 147.661,19.3705 154.006,23.1706C 160.333,26.9708 166.906,32.8183 169.273,39.9628 Z M 167.057,37.8653C 167.09,36.1126 165.911,34.3769 164.437,33.5091C 164.26,33.3997 164.107,33.6693 164.277,33.7872C 165.751,34.8235 166.382,36.1888 166.678,37.916C 166.712,38.1347 167.049,38.0755 167.057,37.8653 Z M 165.818,39.3398C 165.979,37.8483 165.262,36.2983 164.217,35.2617C 164.1,35.1437 163.93,35.3204 164.04,35.4472C 165.018,36.6099 165.33,37.8483 165.389,39.3398C 165.406,39.6179 165.792,39.6094 165.818,39.3398 Z M 105.59,77.3228C 105.877,75.7975 105.415,74.121 104.403,72.9583C 104.294,72.8321 104.1,72.9922 104.175,73.1269C 104.993,74.4583 105.255,75.7136 105.102,77.2558C 105.078,77.5338 105.541,77.5925 105.59,77.3228 Z M 104.335,76.8679C 104.571,75.3932 103.838,73.8599 102.903,72.7728L 102.726,72.9075C 103.653,74.1296 103.872,75.3932 104.075,76.8679C 104.092,77.0026 104.318,76.9941 104.335,76.8679 Z "/>
	<path fill="#0D0D0C" fill-opacity="1" stroke-width="1.33333" stroke-linejoin="miter" d="M 164.437,33.5091C 165.911,34.3769 167.09,36.1126 167.057,37.8653C 167.049,38.0755 166.712,38.1347 166.678,37.916C 166.382,36.1888 165.751,34.8235 164.277,33.7872C 164.107,33.6693 164.26,33.3997 164.437,33.5091 Z "/>
	<path fill="#0D0D0C" fill-opacity="1" stroke-width="1.33333" stroke-linejoin="miter" d="M 164.217,35.2617C 165.262,36.2983 165.979,37.8483 165.818,39.3398C 165.792,39.6094 165.406,39.6179 165.389,39.3398C 165.33,37.8483 165.018,36.6099 164.04,35.4472C 163.93,35.3204 164.1,35.1437 164.217,35.2617 Z "/>
	<path fill="#F0CEA0" fill-opacity="1" stroke-width="1.33333" stroke-linejoin="miter" d="M 153.213,72.1835C 154.596,72.3432 155.968,72.4277 157.308,72.4107C 157.206,85.3275 155.361,97.5026 150.154,109.417L 150.12,109.635C 149.911,109.72 149.817,110.023 150.071,110.191C 151.999,111.456 153.13,113.697 152.792,116.022C 152.32,119.393 149.025,119.662 146.236,119.839L 145.984,119.949C 145.748,119.873 145.462,119.949 145.36,120.252C 137.061,145.909 97.0045,144.939 80.3978,128.964C 80.2545,128.829 80.0697,128.956 80.0697,129.116L 80.0111,129.116C 79.7246,123.858 81.2402,118.339 83.0775,113.596C 84.291,110.453 85.8326,107.445 87.6699,104.614C 89.1855,102.288 91.8236,100.132 92.9186,97.6374C 92.9694,97.511 92.9694,97.3932 92.9186,97.2917L 93.0787,97.3339L 93.0879,97.3339C 91.5371,100.275 90.9811,103.477 92.5645,106.754C 92.7754,107.184 93.3652,106.855 93.2637,106.434C 95.6061,101.32 101.167,98.9941 105.439,95.7245C 109.18,92.8599 112.248,89.4556 114.421,85.2513C 119.257,75.899 119.274,65.0214 118.912,54.7337C 120.976,59.8477 121.119,65.207 121.044,70.7422L 121.053,70.793C 120.934,70.8775 120.943,71.1132 121.111,71.1634C 129.09,73.3796 137.87,73.3041 146.035,72.3937C 146.313,72.3599 146.422,72.0905 146.363,71.8886L 146.447,71.8802L 146.632,71.8294C 149.244,63.6732 146.666,54.5483 141.4,47.9343C 147.745,54.4388 151.797,62.3757 152.413,71.7872C 152.438,72.0905 152.783,72.1666 152.953,72.0234C 153.003,72.1074 153.087,72.1745 153.213,72.1835 Z M 133.666,98.0501C 138.51,98.7831 143.566,95.5645 143.389,90.3235C 143.372,89.7253 142.488,89.7253 142.462,90.3235C 142.243,95.261 137.643,98.1179 132.941,96.9296C 130.834,96.3985 128.922,95.4211 127.775,93.5507C 126.495,91.4615 126.799,89.3294 127.11,86.9954C 127.153,86.709 126.756,86.5742 126.663,86.8692C 124.818,92.5905 127.632,97.14 133.666,98.0501 Z M 116.755,123.488C 121.373,122.249 126.403,117.253 124.532,112.104C 122.35,106.114 113.368,105.187 108.102,105.676C 107.883,105.692 107.765,105.878 107.773,106.055C 103.485,107.891 101.143,112.888 103.122,117.328C 105.381,122.392 111.523,124.886 116.755,123.488 Z "/>
	<path fill="#F0CEA0" fill-opacity="1" stroke-width="1.33333" stroke-linejoin="miter" d="M 147.872,148.419C 148.495,153.719 149.084,159.465 146.835,164.462C 145.925,166.475 143.979,167.967 143.271,170.031C 142.689,171.699 143.153,173.898 143.229,175.609C 143.818,188.29 145.377,201.089 142.126,213.525L 142.075,213.508C 125.484,211.073 111.195,204.29 97.6451,194.66C 97.7637,193.944 97.722,193.151 97.5787,192.359C 98.9772,194.146 100.907,195.477 102.903,194.163C 105.515,192.444 104.84,189.503 103.51,187.16C 104.808,188.307 106.476,189.056 107.967,187.793C 109.896,186.15 108.498,183.37 106.964,181.928C 108.709,183.251 111.734,184.574 113.098,182.105C 113.2,181.928 113.266,181.751 113.334,181.574C 119.637,185.728 126.251,189.444 132.824,193.151C 133.176,193.354 133.506,192.806 133.143,192.604C 132.217,192.073 131.297,191.542 130.372,191.012L 130.547,190.885C 131.921,187.431 132.984,183.849 133.919,180.251C 134.643,177.454 136.118,173.781 135.848,170.866C 135.713,169.4 135.258,169.113 134.331,168.077C 131.964,165.439 131.314,164.217 131.163,160.931C 131.079,159.061 131.197,157.165 131.264,155.294C 131.273,155.042 131.045,154.949 130.86,155C 130.936,154.082 130.817,153.155 130.928,152.228C 130.994,151.57 131.171,150.846 131.686,150.383C 132.41,149.725 133.632,149.868 133.953,150.854C 134.019,151.065 134.305,151.107 134.449,150.99C 134.508,152.085 134.635,153.163 134.887,154.165L 135.047,154.165C 135.57,150.99 135.132,147.467 135.199,144.24L 135.115,144.021C 135.275,143.6 135.587,143.212 135.965,143.06C 136.657,142.79 137.348,143.237 137.618,143.87L 137.794,144.047C 137.803,144.24 137.854,144.426 137.946,144.586C 138.165,147.779 138.426,150.93 138.485,154.141C 138.485,154.326 138.747,154.318 138.771,154.141C 139.167,150.897 139.143,147.383 138.443,144.181L 138.266,144.013C 138.468,143.474 139.201,143.001 139.699,142.977C 140.794,142.926 141.417,143.887 141.359,144.88L 141.485,145.116C 141.257,146.482 141.568,148.174 141.636,149.507C 141.712,151.191 141.779,152.885 141.965,154.561C 141.982,154.704 142.184,154.714 142.192,154.561C 142.26,152.876 142.209,151.191 142.167,149.507C 142.15,148.453 141.41,143.457 143.684,143.693L 143.734,143.684C 144.442,143.844 144.77,144.863 144.864,145.512C 144.981,146.271 144.906,147.046 144.83,147.812C 144.821,147.948 144.889,148.04 144.981,148.074C 144.889,148.411 144.872,148.773 144.956,149.135L 144.973,149.16C 144.906,151.915 144.964,154.814 145.386,157.536L 145.554,157.51C 145.85,154.755 145.748,151.849 145.546,149.085C 145.529,148.874 145.335,148.79 145.183,148.824C 145.277,148.091 145.824,147.366 146.54,147.232C 147.256,147.088 147.872,147.484 148.2,148.074C 148.015,148.074 147.846,148.191 147.872,148.419 Z M 142.015,205.596C 142.631,203.936 142.976,202.049 142.825,200.271C 142.808,200.052 142.495,200.052 142.488,200.271C 142.386,202.074 142.192,203.768 141.695,205.504C 141.628,205.715 141.939,205.798 142.015,205.596 Z M 141.83,199.008C 141.847,198.738 141.442,198.746 141.417,199.008C 141.325,200.212 141.131,201.375 140.777,202.538C 140.701,202.773 141.08,202.875 141.156,202.639C 141.527,201.46 141.771,200.246 141.83,199.008 Z "/>
	<path fill="#0D0D0C" fill-opacity="1" stroke-width="1.33333" stroke-linejoin="miter" d="M 143.389,90.3235C 143.566,95.5645 138.51,98.7831 133.666,98.0501C 127.632,97.14 124.818,92.5905 126.663,86.8692C 126.756,86.5742 127.153,86.709 127.11,86.9954C 126.799,89.3294 126.495,91.4615 127.775,93.5507C 128.922,95.4211 130.834,96.3985 132.941,96.9296C 137.643,98.1179 142.243,95.261 142.462,90.3235C 142.488,89.7253 143.372,89.7253 143.389,90.3235 Z "/>
	<path fill="#0D0D0C" fill-opacity="1" stroke-width="1.33333" stroke-linejoin="miter" d="M 142.825,200.271C 142.976,202.049 142.631,203.936 142.015,205.596C 141.939,205.798 141.628,205.715 141.695,205.504C 142.192,203.768 142.386,202.074 142.488,200.271C 142.495,200.052 142.808,200.052 142.825,200.271 Z "/>
	<path fill="#0D0D0C" fill-opacity="1" stroke-width="1.33333" stroke-linejoin="miter" d="M 141.417,199.008C 141.442,198.746 141.847,198.738 141.83,199.008C 141.771,200.246 141.527,201.46 141.156,202.639C 141.08,202.875 140.701,202.773 140.777,202.538C 141.131,201.375 141.325,200.212 141.417,199.008 Z "/>
	<path fill="#F0CEA0" fill-opacity="1" stroke-width="1.33333" stroke-linejoin="miter" d="M 134.769,143.583C 134.718,143.727 134.693,143.87 134.693,144.004L 134.567,144.24C 134.508,146.178 134.348,148.327 134.416,150.4C 134.145,149.701 133.421,149.329 132.68,149.329C 132.907,148.562 132.89,147.822 132.848,146.97C 132.781,145.672 132.916,143.237 134.769,143.583 Z "/>
	<path fill="#F0CEA0" fill-opacity="1" stroke-width="1.33333" stroke-linejoin="miter" d="M 132.756,167.757C 135.982,172.003 134.533,175.272 133.295,180.083C 132.377,183.681 131.222,187.22 130.178,190.784L 130.195,190.902C 129.613,190.573 129.04,190.236 128.459,189.9C 130.717,185.012 133.581,178.625 132.831,173.09C 132.385,169.812 129.814,168.279 128.981,165.22C 127.945,161.394 128.416,156.626 128.189,152.674C 128.18,152.514 128.088,152.413 127.969,152.379C 128.214,151.199 129.368,150.315 130.598,150.551L 130.717,150.551C 129.831,152.102 130.455,154.469 130.515,156.053L 130.581,156.12C 130.329,160.367 130.118,164.268 132.756,167.757 Z "/>
	<path fill="#F3F3F0" fill-opacity="1" stroke-width="1.33333" stroke-linejoin="miter" d="M 132.705,18.1068L 132.739,18.2499L 132.562,18.4355C 126.1,25.1341 122.712,34.5117 117.429,42.1205C 110.782,51.6921 104.235,61.4492 98.6738,71.6946C 97.0645,71.3405 95.4291,71.3235 93.8535,71.5853C 95.4291,70.3378 94.9576,68.0462 93.2975,67.3215C 96.3392,66.7824 97.308,63.0919 95.278,61.0019C 96.9629,60.9771 98.8834,60.5729 99.4824,58.8118C 100.021,57.2526 98.8926,55.9466 97.7129,54.9864C 99.4408,55.121 101.201,54.2194 101.968,52.6099C 102.735,50.976 102.019,49.5683 100.747,48.6751C 102.786,48.6334 104.74,47.5715 105.566,45.541C 106.316,43.679 105.692,41.362 104.041,40.3001C 105.532,40.2499 107.1,39.112 107.874,37.9329C 109.29,35.7669 108.835,33.0117 107.1,31.226C 111.674,31.9335 113.764,24.6198 110.191,23.1368C 112.348,23.1368 114.472,22.1094 115.348,19.9941C 116.258,17.8034 115.331,15.8066 113.688,14.4413C 115.887,14.3405 118.364,13.6581 118.912,11.2819C 119.426,9.04095 117.572,7.44867 115.609,6.8587C 122.611,7.44012 132.579,9.68939 132.705,18.1068 Z M 116.047,43.4265C 116.182,43.207 115.861,43.0384 115.718,43.2324C 114.766,44.5214 113.824,45.735 112.635,46.8132C 112.492,46.9394 112.703,47.1419 112.846,47.0241C 114.05,45.9877 115.222,44.791 116.047,43.4265 Z M 115.686,42.6933C 115.87,42.4992 115.576,42.2043 115.382,42.39C 114.506,43.2578 113.62,44.1679 112.829,45.1028C 112.719,45.2292 112.88,45.3893 112.997,45.28C 113.933,44.4713 114.826,43.5859 115.686,42.6933 Z "/>
	<path fill="#F3F3F0" fill-opacity="1" stroke-width="1.33333" stroke-linejoin="miter" d="M 131.214,284.521L 131.045,284.563C 122.645,289.82 111.101,290.267 101.471,290.646C 91.8405,291.025 82.1764,290.78 72.5533,290.587C 53.2422,290.191 34.166,289.163 15.5117,283.779C 15.5033,276.727 16.0424,269.648 17.1627,262.681L 17.2389,262.79C 25.3359,266.237 34.2168,267.686 42.8951,268.849C 52.2643,270.104 61.7012,271.039 71.1381,271.62C 90.3483,272.799 109.712,272.243 128.635,268.546C 129.714,273.802 130.581,279.12 131.214,284.521 Z M 113.275,273.331C 113.503,273.204 113.292,272.85 113.064,272.986C 111.792,273.736 110.428,274.156 108.953,274.266C 108.76,274.282 108.751,274.586 108.953,274.578C 110.486,274.52 111.936,274.098 113.275,273.331 Z M 112.584,272.286C 112.795,272.21 112.71,271.898 112.501,271.957C 110.831,272.396 109.205,272.656 107.479,272.573C 107.285,272.564 107.285,272.867 107.479,272.884C 109.197,273.003 110.958,272.85 112.584,272.286 Z "/>
	<path fill="#F0CEA0" fill-opacity="1" stroke-width="1.33333" stroke-linejoin="miter" d="M 128.508,188.779C 128.399,189.099 128.282,189.41 128.172,189.73C 123.268,186.883 118.39,183.984 113.426,181.237C 113.486,180.934 113.494,180.647 113.453,180.361C 113.654,180.268 113.831,180.142 113.992,180.008C 118.65,183.074 123.454,185.999 128.273,188.786L 128.508,188.779 Z "/>
	<path fill="#F3F3F0" fill-opacity="1" stroke-width="1.33333" stroke-linejoin="miter" d="M 127.617,263.81C 127.92,265.133 128.214,266.456 128.493,267.786C 109.821,271.241 90.8795,271.882 71.9557,270.837C 53.5455,269.818 35.0084,268.022 17.3483,262.521L 17.1797,262.613C 17.3906,261.29 17.6178,259.967 17.8789,258.654C 34.8236,265.487 53.1914,265.57 71.1803,266.203C 89.9355,266.859 108.945,267.053 127.498,263.861L 127.617,263.81 Z "/>
	<path fill="#F3F3F0" fill-opacity="1" stroke-width="1.33333" stroke-linejoin="miter" d="M 127.464,263.161L 127.304,263.152C 108.658,265.934 89.9863,266.043 71.1803,265.453C 52.9642,264.88 35.3457,264.206 17.9381,258.341C 19.7748,249.141 22.6986,240.176 26.903,231.75C 56.1908,238.331 89.0853,242.518 118.424,234.27C 119.157,236.19 119.881,238.111 120.58,240.04C 123.352,247.674 125.644,255.359 127.464,263.161 Z M 34.3932,259.622C 34.6211,259.647 34.6211,259.285 34.3932,259.26C 32.6412,259.049 30.8802,258.855 29.1276,258.678C 28.9928,258.661 28.9674,258.889 29.0938,258.906C 30.8549,259.159 32.6244,259.394 34.3932,259.622 Z M 32.4896,260.254C 32.6914,260.246 32.6914,259.943 32.4896,259.943C 30.1133,259.917 27.8549,259.613 25.5801,258.906C 25.4537,258.872 25.403,259.057 25.5299,259.1C 27.7455,259.909 30.1217,260.329 32.4896,260.254 Z "/>
	<path fill="#0D0D0C" fill-opacity="1" stroke-width="1.33333" stroke-linejoin="miter" d="M 124.532,112.104C 126.403,117.253 121.373,122.249 116.755,123.488C 111.523,124.886 105.381,122.392 103.122,117.328C 101.143,112.888 103.485,107.891 107.773,106.055C 107.765,105.878 107.883,105.692 108.102,105.676C 113.368,105.187 122.35,106.114 124.532,112.104 Z M 117.589,122.19C 123.328,119.965 126.656,112.694 120.354,108.818C 117.176,106.863 113.234,106.341 109.525,106.341C 109.045,106.341 108.574,106.35 108.102,106.367C 103.939,108.624 101.808,113.655 104.445,117.986C 107.15,122.426 112.88,124.018 117.589,122.19 Z "/>
	<path fill="#F67D9E" fill-opacity="1" stroke-width="1.33333" stroke-linejoin="miter" d="M 120.354,108.818C 126.656,112.694 123.328,119.965 117.589,122.19C 112.88,124.018 107.15,122.426 104.445,117.986C 101.808,113.655 103.939,108.624 108.102,106.367C 108.574,106.35 109.045,106.341 109.525,106.341C 113.234,106.341 117.176,106.863 120.354,108.818 Z "/>
	<path fill="#F3F3F0" fill-opacity="1" stroke-width="1.33333" stroke-linejoin="miter" d="M 114.623,7.44012C 116.611,7.91998 119.257,9.42841 117.859,11.8802C 116.882,13.5821 114.826,13.81 113.031,13.9532C 112.887,13.8607 112.753,13.7761 112.61,13.6921L 112.525,13.6666C 113.234,11.5937 113.941,9.52094 114.623,7.44012 Z "/>
	<path fill="#F3F3F0" fill-opacity="1" stroke-width="1.33333" stroke-linejoin="miter" d="M 116.907,230.427C 117.337,231.505 117.766,232.576 118.179,233.654C 103.535,237.387 88.5879,238.457 73.5143,237.605C 57.834,236.721 42.5748,233.536 27.0547,231.438L 27.1979,231.143C 27.569,230.418 27.9479,229.702 28.3353,228.986C 56.4688,237.875 88.403,237.328 116.873,230.444L 116.907,230.427 Z "/>
	<path fill="#0D0D0C" fill-opacity="1" stroke-width="1.33333" stroke-linejoin="miter" d="M 115.718,43.2324C 115.861,43.0384 116.182,43.207 116.047,43.4265C 115.222,44.791 114.05,45.9877 112.846,47.0241C 112.703,47.1419 112.492,46.9394 112.635,46.8132C 113.824,45.735 114.766,44.5214 115.718,43.2324 Z "/>
	<path fill="#F3F3F0" fill-opacity="1" stroke-width="1.33333" stroke-linejoin="miter" d="M 115.744,169.737C 116.679,170.596 116.932,172.323 115.533,172.803C 115.12,171.616 113.958,171.076 112.669,170.983L 112.736,170.815C 112.804,170.225 112.829,169.635 112.837,169.036C 113.882,168.927 114.893,168.97 115.744,169.737 Z "/>
	<path fill="#0D0D0C" fill-opacity="1" stroke-width="1.33333" stroke-linejoin="miter" d="M 115.382,42.39C 115.576,42.2043 115.87,42.4992 115.686,42.6933C 114.826,43.5859 113.933,44.4713 112.997,45.28C 112.88,45.3893 112.719,45.2292 112.829,45.1028C 113.62,44.1679 114.506,43.2578 115.382,42.39 Z "/>
	<path fill="#F3F3F0" fill-opacity="1" stroke-width="1.33333" stroke-linejoin="miter" d="M 112.77,171.75C 113.95,171.919 115.145,172.854 114.843,174.194C 114.286,176.688 111.236,176.41 109.365,176.107L 109.18,176.148C 109.501,175.129 109.719,174.1 109.804,173.082C 110.023,173.014 110.191,172.811 110.115,172.534L 110.032,172.247C 110.916,171.927 111.792,171.599 112.77,171.75 Z "/>
	<path fill="#F3F3F0" fill-opacity="1" stroke-width="1.33333" stroke-linejoin="miter" d="M 112.458,14.4413C 114.118,15.8488 115.567,17.3314 114.666,19.7077C 113.824,21.9577 111.564,22.707 109.365,22.6738C 110.351,19.9269 111.321,17.1718 112.273,14.4081L 112.357,14.4413L 112.458,14.4413 Z "/>
	<path fill="#F3F3F0" fill-opacity="1" stroke-width="1.33333" stroke-linejoin="miter" d="M 112.693,219.979C 114.042,223.249 115.365,226.517 116.662,229.803C 102.162,233.207 87.3666,234.943 72.4609,234.733C 57.4799,234.513 43.0469,231.961 28.4785,228.708C 32.0599,222.052 36.2559,215.605 40.0475,208.983C 40.0638,209.102 40.14,209.211 40.2916,209.211C 62.8307,209.539 85.4615,208.47 108.01,208.393C 109.231,212.362 111.127,216.188 112.693,219.979 Z M 102.473,210.971C 102.684,210.939 102.592,210.602 102.381,210.643C 101.21,210.845 100.031,210.922 98.8418,210.888C 98.6816,210.888 98.6816,211.132 98.8418,211.141C 100.063,211.216 101.269,211.148 102.473,210.971 Z M 101.623,209.725C 101.757,209.699 101.732,209.473 101.589,209.48C 100.317,209.616 99.0697,209.708 97.7885,209.616C 97.6373,209.599 97.6451,209.835 97.7885,209.852C 99.0697,209.969 100.367,209.969 101.623,209.725 Z "/>
	<path fill="#F3F3F0" fill-opacity="1" stroke-width="1.33333" stroke-linejoin="miter" d="M 114.429,176.216C 114.859,177.362 114.514,178.592 113.646,179.418L 113.443,179.309C 113.283,179.215 113.149,179.452 113.3,179.552L 113.402,179.62L 113.283,179.721C 112.821,178.525 111.581,177.539 110.394,176.855C 111.758,177.042 113.351,176.923 114.429,176.216 Z "/>
	<path fill="#0D0D0C" fill-opacity="1" stroke-width="1.33333" stroke-linejoin="miter" d="M 113.064,272.986C 113.292,272.85 113.503,273.204 113.275,273.331C 111.936,274.098 110.486,274.52 108.953,274.578C 108.751,274.586 108.76,274.282 108.953,274.266C 110.428,274.156 111.792,273.736 113.064,272.986 Z "/>
	<path fill="#F3F3F0" fill-opacity="1" stroke-width="1.33333" stroke-linejoin="miter" d="M 108.962,176.957C 110.613,177.766 113.225,179.055 112.559,181.339C 111.734,184.186 108.363,182.181 106.863,181.254L 106.561,181.314C 107.537,179.957 108.338,178.465 108.911,176.915L 108.962,176.957 Z "/>
	<path fill="#0D0D0C" fill-opacity="1" stroke-width="1.33333" stroke-linejoin="miter" d="M 112.501,271.957C 112.71,271.898 112.795,272.21 112.584,272.286C 110.958,272.85 109.197,273.003 107.479,272.884C 107.285,272.867 107.285,272.564 107.479,272.573C 109.205,272.656 110.831,272.396 112.501,271.957 Z "/>
	<path fill="#F3F3F0" fill-opacity="1" stroke-width="1.33333" stroke-linejoin="miter" d="M 112.104,169.079C 112.104,169.652 112.079,170.233 112.037,170.815L 112.071,170.975C 111.261,171.009 110.453,171.194 109.795,171.481C 108.355,166.863 105.979,162.482 102.692,158.986C 100.266,155.893 97.2494,153.231 94.2076,150.594C 105.255,149.607 112.071,158.588 112.104,168.885L 112.104,169.079 Z "/>
	<path fill="#F3F3F0" fill-opacity="1" stroke-width="1.33333" stroke-linejoin="miter" d="M 109.071,23.5417C 110.79,23.9206 111.523,25.6061 111.287,27.2487C 110.941,29.6249 108.877,31.2343 106.493,30.6946L 106.417,30.7116C 107.309,28.3275 108.187,25.9343 109.054,23.5417L 109.071,23.5417 Z "/>
	<path fill="#F3F3F0" fill-opacity="1" stroke-width="1.33333" stroke-linejoin="miter" d="M 109.146,172.568C 109.012,172.643 108.902,172.762 108.886,172.954C 108.01,184.069 96.5592,188.087 87.9056,191.517L 87.7871,191.702L 87.6869,191.618C 79.5814,189.512 71.8041,184.734 68.8887,176.486C 66.1674,168.801 68.3242,159.777 75.4355,155.294C 89.8092,146.22 105.111,158.564 109.146,172.568 Z M 77.2806,182.829C 77.4824,182.914 77.6256,182.577 77.4238,182.477C 76.2526,181.911 75.3848,181.12 74.7109,179.991C 74.6432,179.882 74.4323,179.957 74.483,180.091C 75.0059,181.322 76.0416,182.333 77.2806,182.829 Z M 75.3848,183.133C 75.528,183.227 75.7051,183.006 75.5703,182.889C 74.1211,181.608 72.9668,180.311 72.1237,178.542C 72.0736,178.432 71.8795,178.508 71.9219,178.634C 72.5957,180.37 73.8092,182.096 75.3848,183.133 Z "/>
	<path fill="#F3F3F0" fill-opacity="1" stroke-width="1.33333" stroke-linejoin="miter" d="M 106.189,31.3522C 107.656,32.6581 108.439,34.5794 107.807,36.5255C 107.209,38.3373 104.993,40.3087 102.979,39.6601C 104.066,36.8964 105.136,34.1328 106.18,31.3522L 106.189,31.3522 Z "/>
	<path fill="#F3F3F0" fill-opacity="1" stroke-width="1.33333" stroke-linejoin="miter" d="M 106.063,182.004C 107.023,183.327 109.333,185.535 107.503,187.203C 105.801,188.762 103.779,186.681 102.617,185.409C 103.864,184.482 105.035,183.31 106.054,181.996L 106.063,182.004 Z "/>
	<path fill="#F3F3F0" fill-opacity="1" stroke-width="1.33333" stroke-linejoin="miter" d="M 106.787,201.788C 106.872,203.751 107.234,205.664 107.756,207.543C 85.3861,207.349 62.6113,206.953 40.2916,208.68L 40.1986,208.723C 42.8529,204.072 45.2963,199.328 47.1836,194.357C 59.7969,196.151 72.8822,195.906 85.5801,195.275C 85.7402,195.267 85.8496,195.182 85.9082,195.064C 85.8236,196.589 86.4303,197.962 88.3014,197.845C 90.265,197.727 91.0645,196.328 91.3014,194.702C 91.916,196.185 93.1295,197.289 95.0762,197.103C 96.5502,196.96 97.2832,196.126 97.5697,195.022C 100.434,197.516 103.527,199.766 106.787,201.788 Z "/>
	<path fill="#0D0D0C" fill-opacity="1" stroke-width="1.33333" stroke-linejoin="miter" d="M 104.403,72.9583C 105.415,74.121 105.877,75.7975 105.59,77.3228C 105.541,77.5925 105.078,77.5338 105.102,77.2558C 105.255,75.7136 104.993,74.4583 104.175,73.1269C 104.1,72.9922 104.294,72.8321 104.403,72.9583 Z "/>
	<path fill="#F3F3F0" fill-opacity="1" stroke-width="1.33333" stroke-linejoin="miter" d="M 102.684,40.4349C 104.622,41.3111 105.743,43.1817 104.9,45.3052C 104.066,47.4368 102.019,48.2454 99.9199,48.2038L 99.6256,48.0775C 100.604,45.6419 101.589,43.207 102.558,40.7636L 102.684,40.4349 Z "/>
	<path fill="#0D0D0C" fill-opacity="1" stroke-width="1.33333" stroke-linejoin="miter" d="M 102.903,72.7728C 103.838,73.8599 104.571,75.3932 104.335,76.8679C 104.318,76.9941 104.092,77.0026 104.075,76.8679C 103.872,75.3932 103.653,74.1296 102.726,72.9075L 102.903,72.7728 Z "/>
	<path fill="#633A0A" fill-opacity="1" stroke-width="1.33333" stroke-linejoin="miter" d="M 90.8795,1.17108C 98.5215,1.64325 107.445,3.05011 113.537,8.03839C 109.906,18.9745 106.012,29.8183 101.791,40.5527C 97.6881,50.9843 92.649,61.3138 90.2897,72.3262C 90.2559,72.4948 90.3822,72.5964 90.5176,72.6047C 87.3158,74.0704 84.6777,76.8177 83.515,80.4238C 81.2402,87.4173 85.2506,94.8314 92.0931,97.0475L 91.9238,97.1738C 91.6127,97.4271 92.0345,97.9745 92.3627,97.7382C 87.7793,101.075 84.6361,107.647 82.5801,112.762C 80.2715,118.499 78.4603,125.417 79.5306,131.644C 81.274,141.788 90.2142,148.065 97.7377,154.874C 96.7103,154.225 95.64,153.652 94.5033,153.163C 91.4615,151.857 88.0996,151.301 84.7793,151.486C 80.7689,150.913 76.9603,149.776 74.1211,146.557C 71.1041,143.137 69.9668,138.418 69.5541,133.986C 69.0573,128.56 69.6217,122.889 65.7455,118.55C 65.4088,118.163 64.8613,118.727 65.1895,119.106L 65.442,119.409C 66.1836,137.255 59.8307,153.888 45.9961,165.557L 45.8945,165.725C 46.1641,163.081 47.4199,160.62 47.7318,157.949C 47.875,156.66 48.3802,154.697 47.0072,153.971L 46.9648,153.964C 46.7539,153.719 46.2572,153.794 46.2656,154.199C 46.375,158.622 42.9375,161.783 41.7408,165.844C 40.7383,169.247 40.957,172.922 41.8842,176.316C 42.9375,180.159 44.9596,183.647 47.209,186.9C 47.6641,187.565 48.5319,189.082 49.3073,189.941C 47.9252,188.99 45.642,187.211 45.3301,187.001C 37.8568,181.836 32.4135,174.792 29.8861,165.995C 27.2233,156.71 28.8666,148.158 32.0092,139.26C 32.1693,138.806 31.5117,138.586 31.276,138.949C 27.1055,145.142 21.7383,149.953 15.3431,153.66C 18.0137,148.361 19.3789,142.521 19.0586,136.539C 18.6627,129.057 15.0143,122.797 12.7057,115.846C 6.74023,97.8568 17.7865,81.1901 28.7402,67.886C 29.0514,67.5071 28.5463,66.9675 28.1836,67.33C 25.3444,70.2032 22.2096,72.7142 18.6967,74.7278C 17.3906,75.4694 10.3379,79.3958 8.98181,78.8985C 10.6328,79.1511 18.267,65.847 18.6543,64.9708C 24.1901,52.5007 26.2631,39.112 34.4271,27.8215C 42.6588,16.4218 54.5566,7.82745 68.0463,3.79169C 75.4271,1.5755 83.1869,0.699158 90.8795,1.17108 Z M 82.226,89.1693C 82.3535,89.3294 82.623,89.1862 82.5045,89.0013C 81.7545,87.754 81.2494,86.5071 81.0463,85.0494C 81.0293,84.8892 80.7689,84.8724 80.7858,85.0494C 80.8535,86.5156 81.3248,87.9981 82.226,89.1693 Z M 80.1959,89.5403C 80.3301,89.7253 80.601,89.5657 80.5072,89.3548C 80.0527,88.403 79.623,87.5182 79.3365,86.4987C 79.2858,86.33 79.058,86.4056 79.084,86.5657C 79.235,87.5767 79.5983,88.7064 80.1959,89.5403 Z M 64.0521,131.652C 64.5996,130.001 64.608,128.147 64.0521,126.495L 63.8834,126.546C 64.2545,128.299 64.2291,129.841 63.7656,131.576C 63.7148,131.762 63.9928,131.837 64.0521,131.652 Z M 62.6621,133.143C 63.1002,131.559 63.1504,129.832 62.8978,128.206C 62.8809,128.088 62.6705,128.113 62.6791,128.24C 62.8053,129.891 62.6621,131.433 62.3164,133.051C 62.274,133.278 62.6029,133.371 62.6621,133.143 Z M 31.3854,38.8679C 31.5625,38.6575 31.293,38.3874 31.0905,38.5645C 30.1895,39.3568 29.5234,40.6374 29.3463,41.8171C 29.3209,42.0019 29.5658,42.0781 29.6328,41.8926C 30.0463,40.7128 30.5853,39.8196 31.3854,38.8679 Z M 30.5092,37.9329C 30.6191,37.7728 30.3828,37.5956 30.248,37.7304C 28.765,39.2636 27.7963,41.4628 27.1895,43.485C 27.1309,43.679 27.4342,43.763 27.5013,43.5696C 28.2174,41.4543 29.3295,39.7949 30.5092,37.9329 Z M 21.3256,135.182C 21.3588,133.505 21.0469,131.812 20.3477,130.287C 20.2806,130.127 20.0195,130.236 20.0781,130.396C 20.6178,131.972 20.9037,133.514 20.9037,135.182C 20.9037,135.452 21.317,135.452 21.3256,135.182 Z M 19.5391,133.742C 19.7578,132.149 19.2272,130.507 18.1406,129.335L 18.0306,129.411C 18.983,130.717 19.3451,132.098 19.2103,133.699C 19.2018,133.885 19.5137,133.927 19.5391,133.742 Z "/>
	<path fill="#F3F3F0" fill-opacity="1" stroke-width="1.33333" stroke-linejoin="miter" d="M 101.833,185.982C 103.333,188.053 105.212,191.155 102.811,193.286C 100.704,195.148 98.5553,192.798 97.149,190.708C 96.9629,190.177 96.7611,189.689 96.5502,189.284C 98.4381,188.298 100.223,187.135 101.833,185.982 Z "/>
	<path fill="#0D0D0C" fill-opacity="1" stroke-width="1.33333" stroke-linejoin="miter" d="M 102.381,210.643C 102.592,210.602 102.684,210.939 102.473,210.971C 101.269,211.148 100.063,211.216 98.8418,211.141C 98.6816,211.132 98.6816,210.888 98.8418,210.888C 100.031,210.922 101.21,210.845 102.381,210.643 Z "/>
	<path fill="#F0CEA0" fill-opacity="1" stroke-width="1.33333" stroke-linejoin="miter" d="M 101.109,72.9837C 102.592,76.6153 103.527,80.5247 102.221,84.3751C 100.839,88.4446 97.4095,91.2253 94.89,94.5449C 94.36,95.2447 93.8705,95.9609 93.4408,96.7018L 93.2806,96.6009C 86.6842,94.4525 82.2181,88.2598 84.1816,81.2154C 86.3041,73.6074 93.9551,71.0124 101.041,72.9922L 101.109,72.9837 Z M 98.6309,75.3847C 99.1959,75.4269 99.1869,74.5593 98.6309,74.5169C 93.3314,74.0873 85.0905,79.6907 86.4395,85.7402C 86.498,85.9929 86.8691,85.9173 86.877,85.681C 87.0201,82.3782 89.127,79.2779 91.9746,77.3483C 92.5736,77.6601 93.1205,77.9968 93.5931,78.5026C 94.123,79.067 94.36,79.733 94.7467,80.3815C 94.899,80.6511 95.4291,80.5587 95.3795,80.2128C 95.2025,78.8228 93.8627,77.4999 92.515,76.9941C 94.3939,75.8568 96.5332,75.233 98.6309,75.3847 Z M 90.8549,92.8347C 91.6973,92.2364 91.9238,91.0566 91.1244,90.3235C 90.6686,89.9107 89.9955,89.7422 89.4056,89.8775L 89.3209,89.8607C 88.3014,90.0372 87.9642,91.3939 88.3014,92.2364C 88.7233,93.2728 89.9955,93.4415 90.8549,92.8347 Z "/>
	<path fill="#0D0D0C" fill-opacity="1" stroke-width="1.33333" stroke-linejoin="miter" d="M 101.589,209.48C 101.732,209.473 101.757,209.699 101.623,209.725C 100.367,209.969 99.0697,209.969 97.7885,209.852C 97.6451,209.835 97.6373,209.599 97.7885,209.616C 99.0697,209.708 100.317,209.616 101.589,209.48 Z "/>
	<path fill="#F3F3F0" fill-opacity="1" stroke-width="1.33333" stroke-linejoin="miter" d="M 101.075,49.7792C 101.917,50.6894 101.757,51.9446 101.117,52.9048C 100.249,54.2025 98.6816,54.7675 97.1816,54.5735L 97.0723,54.4974C 97.8392,52.5345 98.6309,50.571 99.4147,48.6081C 99.9799,48.987 100.604,49.2819 101.075,49.7792 Z "/>
	<path fill="#F3F3F0" fill-opacity="1" stroke-width="1.33333" stroke-linejoin="miter" d="M 96.8457,55.0788C 97.9576,55.9048 99.4147,57.1432 98.9264,58.6601C 98.3873,60.3366 96.4316,60.556 94.89,60.6569L 94.7559,60.5475C 95.4291,58.7187 96.1283,56.899 96.8457,55.0788 Z "/>
	<path fill="#0D0D0C" fill-opacity="1" stroke-width="1.33333" stroke-linejoin="miter" d="M 98.6309,74.5169C 99.1869,74.5593 99.1959,75.4269 98.6309,75.3847C 96.5332,75.233 94.3939,75.8568 92.515,76.9941C 93.8627,77.4999 95.2025,78.8228 95.3795,80.2128C 95.4291,80.5587 94.899,80.6511 94.7467,80.3815C 94.36,79.733 94.123,79.067 93.5931,78.5026C 93.1205,77.9968 92.5736,77.6601 91.9746,77.3483C 89.127,79.2779 87.0201,82.3782 86.877,85.681C 86.8691,85.9173 86.498,85.9929 86.4395,85.7402C 85.0905,79.6907 93.3314,74.0873 98.6309,74.5169 Z "/>
	<path fill="#F3F3F0" fill-opacity="1" stroke-width="1.33333" stroke-linejoin="miter" d="M 95.8756,189.638C 96.9381,191.66 98.252,196.43 94.722,196.445C 92.6152,196.462 91.7051,194.753 91.3678,192.941C 91.351,192.444 91.2924,191.954 91.2246,191.509L 91.2168,191.391C 92.7924,190.995 94.36,190.379 95.8756,189.638 Z "/>
	<path fill="#F3F3F0" fill-opacity="1" stroke-width="1.33333" stroke-linejoin="miter" d="M 94.5371,61.1536C 96.8197,62.9654 95.7832,66.6224 92.7338,66.976L 92.5566,67.1275L 92.5228,67.1191L 92.4213,67.1275C 93.0957,65.1224 93.8041,63.1341 94.5371,61.1536 Z "/>
	<path fill="#F3F3F0" fill-opacity="1" stroke-width="1.33333" stroke-linejoin="miter" d="M 92.4473,67.6503C 94.3002,67.9785 95.0424,70.0767 93.6764,71.4421L 93.7025,71.6099C 92.666,71.7956 91.6465,72.1074 90.6855,72.5286L 90.7363,72.4532C 91.2246,70.8015 91.748,69.1581 92.2871,67.5241L 92.4473,67.6503 Z "/>
	<path fill="#F0CEA0" fill-opacity="1" stroke-width="1.33333" stroke-linejoin="miter" d="M 94.183,138.443C 92.834,141.838 92.3965,145.588 92.6322,149.22C 87.5006,144.746 82.6061,140.129 80.7103,133.405C 80.3223,132.014 80.0944,130.574 80.0111,129.116L 80.0697,129.116L 80.1205,129.251C 83.8353,133.658 88.765,136.598 94.183,138.443 Z "/>
	<path fill="#0D0D0C" fill-opacity="1" stroke-width="1.33333" stroke-linejoin="miter" d="M 91.1244,90.3235C 91.9238,91.0566 91.6973,92.2364 90.8549,92.8347C 89.9955,93.4415 88.7233,93.2728 88.3014,92.2364C 87.9642,91.3939 88.3014,90.0372 89.3209,89.8607L 89.4056,89.8775C 89.9955,89.7422 90.6686,89.9107 91.1244,90.3235 Z M 90.4498,92.3964C 91.0397,92.0261 91.2924,91.2422 90.7115,90.737C 90.1973,90.2988 89.4642,90.3073 88.9838,90.7617L 88.8574,90.821C 88.7064,91.1497 88.6635,91.5202 88.7988,91.8997C 89.0424,92.6243 89.8353,92.7755 90.4498,92.3964 Z "/>
	<path fill="#F3F3F0" fill-opacity="1" stroke-width="1.33333" stroke-linejoin="miter" d="M 90.7115,90.737C 91.2924,91.2422 91.0397,92.0261 90.4498,92.3964C 89.8353,92.7755 89.0424,92.6243 88.7988,91.8997C 88.6635,91.5202 88.7064,91.1497 88.8574,90.821L 88.9838,90.7617C 89.4642,90.3073 90.1973,90.2988 90.7115,90.737 Z "/>
	<path fill="#F3F3F0" fill-opacity="1" stroke-width="1.33333" stroke-linejoin="miter" d="M 90.5514,191.542C 90.8549,193.471 91.183,196.193 88.9252,197.036C 87.6191,197.516 86.5905,196.758 86.4642,195.367C 86.3549,194.171 86.8105,193.059 87.3912,192.039L 87.5605,192.073C 87.7363,192.107 87.847,191.954 87.8379,191.82L 87.9473,191.854C 88.8158,191.837 89.683,191.719 90.5514,191.542 Z "/>
	<path fill="#F3F3F0" fill-opacity="1" stroke-width="1.33333" stroke-linejoin="miter" d="M 86.9877,191.954C 86.4642,192.629 86.0605,193.674 85.942,194.694C 85.8912,194.559 85.765,194.457 85.5801,194.466C 72.7643,195.107 60.1088,194.391 47.3099,194.003C 47.7904,192.721 48.2369,191.432 48.6328,190.109C 49.4166,190.725 50.2084,191.357 50.9838,192.014C 51.2617,192.258 51.8014,191.93 51.5397,191.585C 50.9414,190.801 50.3431,190.009 49.7539,189.199L 49.8209,189.09C 53.9244,178.348 56.9492,166.392 56.7552,154.798C 58.4576,152.303 59.9655,149.667 61.2461,146.919C 61.0189,149.329 61.4316,151.781 62.1224,154.233C 62.8893,156.964 64.0605,159.566 64.8945,162.28C 65.8301,165.355 65.6699,168.186 66.024,171.296C 66.0404,171.456 66.1166,171.556 66.2682,171.616L 66.5631,171.725L 66.875,171.641L 66.9506,171.565C 67.0938,173.318 67.4564,175.044 68.0463,176.714C 70.9531,184.928 78.6543,190.329 86.9877,191.954 Z M 60.6816,168.565C 60.7916,168.354 60.4799,168.169 60.3698,168.38C 59.8053,169.451 59.3926,170.579 59.2155,171.776C 59.1738,172.036 59.5781,172.155 59.6205,171.885C 59.8307,170.723 60.1595,169.626 60.6816,168.565 Z M 58.6849,165.962C 58.7188,165.793 58.4662,165.725 58.4238,165.885C 58.1035,167.225 57.733,168.565 57.4713,169.913C 57.4381,170.09 57.6908,170.167 57.7416,169.99C 58.1119,168.658 58.3815,167.301 58.6849,165.962 Z "/>
	<path fill="#0D0D0C" fill-opacity="1" stroke-width="1.33333" stroke-linejoin="miter" d="M 82.5045,89.0013C 82.623,89.1862 82.3535,89.3294 82.226,89.1693C 81.3248,87.9981 80.8535,86.5156 80.7858,85.0494C 80.7689,84.8724 81.0293,84.8892 81.0463,85.0494C 81.2494,86.5071 81.7545,87.754 82.5045,89.0013 Z "/>
	<path fill="#0D0D0C" fill-opacity="1" stroke-width="1.33333" stroke-linejoin="miter" d="M 80.5072,89.3548C 80.601,89.5657 80.3301,89.7253 80.1959,89.5403C 79.5983,88.7064 79.235,87.5767 79.084,86.5657C 79.058,86.4056 79.2858,86.33 79.3365,86.4987C 79.623,87.5182 80.0527,88.403 80.5072,89.3548 Z "/>
	<path fill="#633A0A" fill-opacity="1" stroke-width="1.33333" stroke-linejoin="miter" d="M 82.4707,151.747C 79.0918,152.303 75.8568,153.652 73.1855,155.826C 69.0742,159.188 67.0098,164.201 66.8834,169.332C 66.8158,168.144 66.6133,166.686 66.5631,166.298C 66.1836,163.661 65.2487,161.134 64.3385,158.639C 62.6953,154.165 61.2299,149.742 62.0469,145.116C 65.392,137.214 66.892,128.551 65.931,120.066C 70.3463,126.411 67.6752,135.806 70.8346,142.867C 73.0846,147.897 77.39,150.964 82.4707,151.747 Z M 67.4896,157.039C 67.5912,157.165 67.8014,157.005 67.709,156.87C 67.0768,155.961 66.7233,155.051 66.7233,153.93C 66.7148,153.803 66.5377,153.803 66.5293,153.93C 66.4537,155.034 66.7819,156.18 67.4896,157.039 Z M 66.2598,157.603C 66.3691,157.755 66.6302,157.62 66.5209,157.452C 65.569,155.952 65.097,154.452 65.2487,152.665L 65.0631,152.641C 64.8275,154.367 65.181,156.204 66.2598,157.603 Z "/>
	<path fill="#0D0D0C" fill-opacity="1" stroke-width="1.33333" stroke-linejoin="miter" d="M 77.4238,182.477C 77.6256,182.577 77.4824,182.914 77.2806,182.829C 76.0416,182.333 75.0059,181.322 74.483,180.091C 74.4323,179.957 74.6432,179.882 74.7109,179.991C 75.3848,181.12 76.2526,181.911 77.4238,182.477 Z "/>
	<path fill="#0D0D0C" fill-opacity="1" stroke-width="1.33333" stroke-linejoin="miter" d="M 75.5703,182.889C 75.7051,183.006 75.528,183.227 75.3848,183.133C 73.8092,182.096 72.5957,180.37 71.9219,178.634C 71.8795,178.508 72.0736,178.432 72.1237,178.542C 72.9668,180.311 74.1211,181.608 75.5703,182.889 Z "/>
	<path fill="#0D0D0C" fill-opacity="1" stroke-width="1.33333" stroke-linejoin="miter" d="M 67.709,156.87C 67.8014,157.005 67.5912,157.165 67.4896,157.039C 66.7819,156.18 66.4537,155.034 66.5293,153.93C 66.5377,153.803 66.7148,153.803 66.7233,153.93C 66.7233,155.051 67.0768,155.961 67.709,156.87 Z "/>
	<path fill="#0D0D0C" fill-opacity="1" stroke-width="1.33333" stroke-linejoin="miter" d="M 66.5209,157.452C 66.6302,157.62 66.3691,157.755 66.2598,157.603C 65.181,156.204 64.8275,154.367 65.0631,152.641L 65.2487,152.665C 65.097,154.452 65.569,155.952 66.5209,157.452 Z "/>
	<path fill="#0D0D0C" fill-opacity="1" stroke-width="1.33333" stroke-linejoin="miter" d="M 64.0521,126.495C 64.608,128.147 64.5996,130.001 64.0521,131.652C 63.9928,131.837 63.7148,131.762 63.7656,131.576C 64.2291,129.841 64.2545,128.299 63.8834,126.546L 64.0521,126.495 Z "/>
	<path fill="#0D0D0C" fill-opacity="1" stroke-width="1.33333" stroke-linejoin="miter" d="M 62.8978,128.206C 63.1504,129.832 63.1002,131.559 62.6621,133.143C 62.6029,133.371 62.274,133.278 62.3164,133.051C 62.6621,131.433 62.8053,129.891 62.6791,128.24C 62.6705,128.113 62.8809,128.088 62.8978,128.206 Z "/>
	<path fill="#0D0D0C" fill-opacity="1" stroke-width="1.33333" stroke-linejoin="miter" d="M 60.3698,168.38C 60.4799,168.169 60.7916,168.354 60.6816,168.565C 60.1595,169.626 59.8307,170.723 59.6205,171.885C 59.5781,172.155 59.1738,172.036 59.2155,171.776C 59.3926,170.579 59.8053,169.451 60.3698,168.38 Z "/>
	<path fill="#0D0D0C" fill-opacity="1" stroke-width="1.33333" stroke-linejoin="miter" d="M 58.4238,165.885C 58.4662,165.725 58.7188,165.793 58.6849,165.962C 58.3815,167.301 58.1119,168.658 57.7416,169.99C 57.6908,170.167 57.4381,170.09 57.4713,169.913C 57.733,168.565 58.1035,167.225 58.4238,165.885 Z "/>
	<path fill="#F3F3F0" fill-opacity="1" stroke-width="1.33333" stroke-linejoin="miter" d="M 45.8945,194.449L 46.2402,194.551C 45.625,195.872 45.0013,197.178 44.3444,198.477L 44.1927,198.384L 44.024,198.326C 41.0248,194.146 37.0306,190.573 32.7084,187.81C 32.5143,187.691 32.3541,187.987 32.5313,188.113C 36.5084,190.969 39.8112,194.23 42.9205,197.938C 40.14,196.943 37.3256,196.008 34.4694,195.182L 34.4271,195.064C 32.6074,192.655 30.2734,190.456 27.847,188.652C 27.6953,188.534 27.4928,188.796 27.6361,188.93C 29.7676,190.826 31.6888,192.823 33.5931,194.93C 30.4252,194.027 27.2233,193.236 23.9961,192.561C 21.7383,190.674 19.4713,188.803 17.2728,186.858C 15.1406,184.97 12.2006,182.973 10.6158,180.605C 9.25977,179.906 9.15039,178.988 10.2877,177.842C 10.4896,176.62 11.1471,175.777 12.2592,175.306C 13.3463,174.388 14.7955,173.604 16.0084,172.854C 18.5026,171.32 21.1315,169.635 23.8783,168.574C 24.3248,168.363 24.7799,168.152 25.2266,167.941C 27.3326,167.15 28.6556,167.638 29.2031,169.408C 30.1556,170.41 30.7787,172.138 31.4615,173.318C 32.9694,175.921 34.4948,178.525 36.0873,181.077C 39.0026,185.754 42.1283,190.396 45.8945,194.449 Z "/>
	<path fill="#F3F3F0" fill-opacity="1" stroke-width="1.33333" stroke-linejoin="miter" d="M 43.957,199.227L 43.9648,199.227C 43.6113,199.926 43.2324,200.617 42.8698,201.307C 40.7045,200.76 38.5221,200.38 36.2897,200.271C 36.0619,200.263 36.0703,200.591 36.2897,200.617C 38.4127,200.87 40.4935,201.266 42.5494,201.829L 42.5664,201.88C 42.3053,202.37 42.0612,202.858 41.8002,203.346L 41.7578,203.339C 36.5084,203.111 31.2084,203.12 25.9681,203.54C 25.7656,203.557 25.7572,203.861 25.9681,203.853C 31.1328,203.819 36.2897,203.793 41.4629,203.962C 40.9908,204.829 40.5189,205.698 40.0306,206.557C 31.1752,209.085 22.4375,211.561 13.2955,212.835C 10.8353,213.18 8.375,214.073 6.7572,211.84C 5.28259,209.809 4.57483,206.658 3.79944,204.266C 2.401,199.967 1.45764,195.57 0.842407,191.104C 0.808594,190.885 0.665405,190.793 0.496704,190.793L 0.513672,190.607C 15.4694,191.677 29.8184,194.129 43.957,199.227 Z "/>
	<path fill="#0D0D0C" fill-opacity="1" stroke-width="1.33333" stroke-linejoin="miter" d="M 34.3932,259.26C 34.6211,259.285 34.6211,259.647 34.3932,259.622C 32.6244,259.394 30.8549,259.159 29.0938,258.906C 28.9674,258.889 28.9928,258.661 29.1276,258.678C 30.8802,258.855 32.6412,259.049 34.3932,259.26 Z "/>
	<path fill="#F3F3F0" fill-opacity="1" stroke-width="1.33333" stroke-linejoin="miter" d="M 32.3209,209.725C 34.8066,208.992 37.267,208.167 39.668,207.206C 34.5619,216.255 29.0182,225.06 24.6367,234.547C 24.4088,235.052 24.1901,235.559 23.9707,236.064C 23.4486,233.493 23.0944,230.915 22.918,228.296C 22.9095,228.068 22.7408,227.883 22.5045,227.883C 20.3815,227.883 18.2584,227.883 16.1348,227.874C 13.8092,227.874 11.5684,228.793 14.5092,227.208C 17.4154,225.633 20.1627,223.754 22.6901,221.622C 25.3529,219.372 27.7793,216.819 29.8776,214.03C 30.7539,212.859 32.3463,211.318 32.3209,209.725 Z "/>
	<path fill="#0D0D0C" fill-opacity="1" stroke-width="1.33333" stroke-linejoin="miter" d="M 32.4896,259.943C 32.6914,259.943 32.6914,260.246 32.4896,260.254C 30.1217,260.329 27.7455,259.909 25.5299,259.1C 25.403,259.057 25.4537,258.872 25.5801,258.906C 27.8549,259.613 30.1133,259.917 32.4896,259.943 Z "/>
	<path fill="#0D0D0C" fill-opacity="1" stroke-width="1.33333" stroke-linejoin="miter" d="M 31.0905,38.5645C 31.293,38.3874 31.5625,38.6575 31.3854,38.8679C 30.5853,39.8196 30.0463,40.7128 29.6328,41.8926C 29.5658,42.0781 29.3209,42.0019 29.3463,41.8171C 29.5234,40.6374 30.1895,39.3568 31.0905,38.5645 Z "/>
	<path fill="#0D0D0C" fill-opacity="1" stroke-width="1.33333" stroke-linejoin="miter" d="M 30.248,37.7304C 30.3828,37.5956 30.6191,37.7728 30.5092,37.9329C 29.3295,39.7949 28.2174,41.4543 27.5013,43.5696C 27.4342,43.763 27.1309,43.679 27.1895,43.485C 27.7963,41.4628 28.765,39.2636 30.248,37.7304 Z "/>
	<path fill="#F3F3F0" fill-opacity="1" stroke-width="1.33333" stroke-linejoin="miter" d="M 26.2709,287.486C 31.1836,288.59 36.1713,289.382 41.2018,289.947C 31.192,293.704 18.6543,297.293 13.6576,307.742C 13.5651,307.927 13.776,308.061 13.9193,307.961C 13.8431,308.053 13.8346,308.214 13.9863,308.255C 15.7474,308.753 17.4746,308.896 19.168,308.811C 16.2363,309.477 11.9727,310.37 9.20056,308.93C 2.48499,305.441 8.86328,300.125 11.7623,297.707C 16.2279,293.974 21.056,290.764 26.1283,287.932C 26.3217,287.832 26.3385,287.638 26.2709,287.486 Z "/>
	<path fill="#0D0D0C" fill-opacity="1" stroke-width="1.33333" stroke-linejoin="miter" d="M 20.3477,130.287C 21.0469,131.812 21.3588,133.505 21.3256,135.182C 21.317,135.452 20.9037,135.452 20.9037,135.182C 20.9037,133.514 20.6178,131.972 20.0781,130.396C 20.0195,130.236 20.2806,130.127 20.3477,130.287 Z "/>
	<path fill="#0D0D0C" fill-opacity="1" stroke-width="1.33333" stroke-linejoin="miter" d="M 18.1406,129.335C 19.2272,130.507 19.7578,132.149 19.5391,133.742C 19.5137,133.927 19.2018,133.885 19.2103,133.699C 19.3451,132.098 18.983,130.717 18.0306,129.411L 18.1406,129.335 Z "/>
</svg>
