<?xml version="1.0" encoding="utf-8"?>
<!DOCTYPE svg PUBLIC "-//W3C//DTD SVG 1.1//EN" "http://www.w3.org/Graphics/SVG/1.1/DTD/svg11.dtd">
<svg xmlns="http://www.w3.org/2000/svg" xmlns:xlink="http://www.w3.org/1999/xlink" version="1.1" baseProfile="full" width="127.586" height="75.9496" viewBox="0 0 127.59 75.95" enable-background="new 0 0 127.59 75.95" xml:space="preserve">
	<g>
		<path fill="#EBCD55" fill-opacity="1" stroke-width="0.2" stroke-linejoin="round" d="M 102.251,11.968L 101.195,16.6613C 101.195,16.6613 104.598,15.0186 104.011,10.7946C 103.424,6.57068 104.363,5.1626 104.363,5.1626C 104.363,5.1626 101.43,5.1626 102.251,11.968 Z "/>
		<path fill="#EBCD55" fill-opacity="1" stroke-width="0.2" stroke-linejoin="round" d="M 97.6749,16.7786C 97.6749,16.7786 97.6749,15.2533 100.256,13.0239C 102.838,10.7947 100.374,3.87195 100.374,3.87195C 100.374,3.87195 100.139,2.22925 102.838,0C 102.838,0 98.4963,1.87732 96.6189,7.15735C 94.7417,12.4373 97.6749,16.896 97.6749,16.896"/>
		<path fill="#EBCD55" fill-opacity="1" stroke-width="0.2" stroke-linejoin="round" d="M 105.536,21.9413C 105.536,21.9413 96.3844,17.9519 86.6456,23.1146C 76.907,28.2773 57.0776,26.6346 50.1549,25.6959C 43.2324,24.7573 30.9124,14.6666 23.8723,21.3546C 16.8323,28.0426 21.6431,37.6639 31.3816,36.8427C 41.1202,36.0212 41.1202,32.736 44.4058,34.7306C 44.5229,34.7306 42.8804,31.7972 37.483,32.8533C 32.0856,33.9093 24.9283,35.2 25.0457,28.9813C 25.1631,22.7626 28.4484,22.1759 30.6777,22.6453C 32.907,23.1147 38.187,24.8746 44.6403,29.9199C 51.0938,34.9653 57.1949,40.0106 65.5256,39.3066C 73.8562,38.6027 79.2081,37.8618 90.4004,27.808C 97.323,21.5894 105.536,21.9413 105.536,21.9413 Z "/>
		<path fill="#EBCD55" fill-opacity="1" stroke-width="0.2" stroke-linejoin="round" d="M 46.8696,49.2799C 46.8696,49.2799 50.1511,41.0824 64.0002,40.9492C 76.2029,40.8319 80.7789,49.2799 80.7789,49.2799L 46.8696,49.2799 Z "/>
		<path fill="#EBCD55" fill-opacity="1" stroke-width="0.2" stroke-linejoin="round" d="M 48.8644,23.8186C 48.8644,23.8186 57.547,24.9918 64.0002,25.1093C 70.4536,25.2267 79.1364,23.7013 79.1364,23.7013C 79.1364,23.7013 77.1417,16.6613 64.0002,16.3093C 50.859,15.9573 48.8644,23.8186 48.8644,23.8186 Z "/>
	</g>
	<path fill="#EBCD55" fill-opacity="1" stroke-width="0.2" stroke-linejoin="round" d="M 127.586,47.3599C 127.586,47.3599 126.354,56.5994 116.639,58.4603C 115.479,59.4867 114.329,60.4287 113.19,61.2919C 115.613,60.7302 119.504,60.6824 123.746,64.0004C 123.746,64.0001 117.65,67.859 111.201,62.7278C 108.371,64.6699 105.616,66.1342 102.957,67.207C 105.765,67.0977 109.707,67.8433 113.397,71.6832C 113.397,71.6832 105.667,75.1248 99.4951,68.4063C 97.299,69.0425 95.1808,69.4205 93.1549,69.5944C 95.3933,70.5657 97.7605,72.2965 99.7662,75.3187C 99.7661,75.3186 90.8491,77.4816 85.5792,69.3292C 82.7413,68.8854 80.1941,68.0961 77.9976,67.1896C 77.9165,67.16 77.8351,67.1296 77.7599,67.0905C 77.318,66.9042 76.8907,66.7135 76.4786,66.5203C 78.5718,67.8744 81.8571,70.8041 81.8258,75.84C 81.8259,75.8398 74.2646,72.8612 74.7803,65.6678C 71.1121,63.703 69.0261,61.7599 69.0261,61.7599L 69.9861,60.4799C 72.7876,63.0723 75.7202,64.8943 78.7009,66.103C 80.6818,64.2598 85.7163,60.7108 93.314,63.0959C 93.3137,63.0958 90.4551,66.84 85.4404,67.8523C 88.7106,68.2642 91.9645,68.0896 95.0957,67.5308C 95.7034,64.787 97.8276,59.2234 105.185,56.8132C 105.185,56.8132 105.013,62.2958 100.654,66.1283C 102.644,65.4847 104.547,64.7217 106.332,63.9016C 106.072,61.8219 105.98,55.8856 112.332,51.5198C 112.332,51.5198 113.936,57.6471 109.271,62.4509C 111.979,61.0216 114.311,59.5339 116.12,58.2699C 116.444,56.7147 118.445,49.3596 127.586,47.3599 Z "/>
	<path fill="#EBCD55" fill-opacity="1" stroke-width="0.2" stroke-linejoin="round" d="M 0,47.4695C 0.00012207,47.4695 1.23218,56.7089 10.9473,58.5699C 12.1067,59.5963 13.2568,60.5382 14.3958,61.4015C 11.9734,60.8398 8.08167,60.792 3.84033,64.11C 3.84045,64.1097 9.93616,67.9685 16.3849,62.8374C 19.2146,64.7795 21.9702,66.2438 24.6289,67.3165C 21.8214,67.2073 17.8787,67.9529 14.1887,71.7927C 14.189,71.7927 21.9194,75.2343 28.0909,68.5159C 30.2871,69.1521 32.4053,69.5302 34.4312,69.704C 32.1926,70.6752 29.8254,72.406 27.8198,75.4283C 27.8199,75.4282 36.7369,77.5912 42.0068,69.4388C 44.8447,68.995 47.3918,68.2056 49.5885,67.2991C 49.6696,67.2695 49.751,67.2393 49.8262,67.2C 50.2681,67.0138 50.6953,66.8231 51.1074,66.6299C 49.0143,67.984 45.729,70.9136 45.7603,75.9496C 45.76,75.9493 53.3214,72.9708 52.8058,65.7775C 56.4739,63.8125 58.5598,61.8695 58.5598,61.8695L 57.5999,60.5895C 54.7985,63.1819 51.8658,65.0039 48.885,66.2126C 46.9043,64.3694 41.8698,60.8204 34.2721,63.2056C 34.2722,63.2054 37.131,66.9496 42.1456,67.9619C 38.8755,68.3737 35.6216,68.1992 32.4904,67.6404C 31.8826,64.8965 29.7584,59.3329 22.401,56.9229C 22.4011,56.9229 22.5732,62.4054 26.9316,66.2378C 24.9424,65.5942 23.0388,64.8312 21.254,64.0112C 21.5138,61.9315 21.606,55.9952 15.2545,51.6294C 15.2545,51.6294 13.6497,57.7566 18.3152,62.5604C 15.6072,61.1311 13.2747,59.6436 11.4663,58.3795C 11.1422,56.8243 9.14124,49.4691 0,47.4695 Z "/>
</svg>
