<?xml version="1.0" encoding="utf-8"?>
<!DOCTYPE svg PUBLIC "-//W3C//DTD SVG 1.1//EN" "http://www.w3.org/Graphics/SVG/1.1/DTD/svg11.dtd">
<svg xmlns="http://www.w3.org/2000/svg" xmlns:xlink="http://www.w3.org/1999/xlink" version="1.1" baseProfile="full" width="207.02" height="207.04" viewBox="0 0 207.02 207.04" enable-background="new 0 0 207.02 207.04" xml:space="preserve">
	<g>
		<line fill="none" stroke-width="1.6" stroke-linecap="round" stroke-linejoin="round" stroke="#FFFFFF" stroke-opacity="1" x1="7.19983" y1="206.24" x2="7.19983" y2="112.48"/>
		<path fill="none" stroke-width="1.6" stroke-linecap="round" stroke-linejoin="round" stroke="#FFFFFF" stroke-opacity="1" d="M 7.5199,106.08C 7.5199,106.08 6.55994,104.16 8.47986,103.84C 10.3999,103.52 11.6798,104.8 11.6798,107.36C 11.6798,109.92 9.43994,111.84 7.19983,111.84C 4.95996,111.84 0.799805,110.56 0.799927,105.44C 0.799927,100.32 3.99988,98.7198 7.83984,96.1599C 11.6798,93.5999 19.6798,90.7197 19.6798,80.7998C 19.6801,70.8799 14.5599,68.6398 8.79993,58.7198C 3.04004,48.7999 3.03992,48.1598 2.71985,41.4398C 2.40002,34.72 7.83984,24.1599 20,24.4799C 32.16,24.7998 40.1598,46.2399 25.12,49.4399C 10.0801,52.6399 11.6798,37.2798 15.84,35.9999C 20,34.7198 20.96,38.5598 18.3999,39.8398"/>
		<path fill="none" stroke-width="1.6" stroke-linecap="round" stroke-linejoin="round" stroke="#FFFFFF" stroke-opacity="1" d="M 16.8003,70.24C 16.8003,70.24 15.2002,63.8398 16.8002,57.7599C 18.4003,51.6799 30.5602,46.5599 37.9203,51.04C 45.2803,55.52 46.5602,61.6 44.0001,66.4C 41.4403,71.2 38.2402,73.12 33.7603,73.12C 29.2803,73.12 26.0802,69.2799 26.4003,64.7999C 26.7202,60.3199 29.2802,58.3999 32.8002,58.4C 36.3203,58.4 37.6002,61.9199 37.6002,63.84C 37.6002,65.76 35.0402,66.4 35.0402,65.12"/>
		<path fill="none" stroke-width="1.6" stroke-linecap="round" stroke-linejoin="round" stroke="#FFFFFF" stroke-opacity="1" d="M 17.7603,88.16C 17.7603,88.16 13.9203,91.6799 9.44006,91.6799C 4.96033,91.6799 1.12012,89.4399 1.12012,83.36C 1.12012,77.28 4.96008,75.6799 7.84021,75.6799C 10.7202,75.6799 13.6002,77.6 13.6002,81.4399C 13.6002,85.28 11.0402,85.9199 10.4003,84.96"/>
		<line fill="none" stroke-width="1.6" stroke-linecap="round" stroke-linejoin="round" stroke="#FFFFFF" stroke-opacity="1" x1="206.22" y1="7.19995" x2="112.46" y2="7.19995"/>
		<path fill="none" stroke-width="1.6" stroke-linecap="round" stroke-linejoin="round" stroke="#FFFFFF" stroke-opacity="1" d="M 106.06,7.5199C 106.06,7.5199 104.14,6.55981 103.82,8.47998C 103.5,10.3999 104.78,11.6799 107.34,11.6799C 109.9,11.6799 111.82,9.43994 111.82,7.19995C 111.82,4.95996 110.54,0.799927 105.42,0.799927C 100.3,0.800049 98.6997,3.99988 96.1398,7.83997C 93.5797,11.6799 90.6997,19.6799 80.7798,19.6799C 70.8599,19.6801 68.6198,14.5599 58.6997,8.79993C 48.7798,3.04004 48.1398,3.03992 41.4198,2.71997C 34.6998,2.40002 24.1398,7.83997 24.4598,20C 24.7798,32.1599 46.2197,40.1599 49.4198,25.12C 52.62,10.0801 37.2598,11.6799 35.9799,15.84C 34.6998,20 38.5397,20.96 39.8198,18.4"/>
		<path fill="none" stroke-width="1.6" stroke-linecap="round" stroke-linejoin="round" stroke="#FFFFFF" stroke-opacity="1" d="M 70.54,17.12C 70.54,17.12 63.8199,15.2 57.7401,16.8C 51.66,18.4001 46.54,30.5601 51.02,37.92C 55.5001,45.2802 61.5801,46.5601 66.38,44C 71.1801,41.4401 73.1001,38.24 73.1001,33.76C 73.1001,29.28 69.2599,26.0801 64.7802,26.4001C 60.3002,26.7201 58.38,29.28 58.38,32.8C 58.38,36.3201 61.9,37.6001 63.8199,37.6001C 65.7401,37.6001 66.38,35.04 65.1001,35.04"/>
		<path fill="none" stroke-width="1.6" stroke-linecap="round" stroke-linejoin="round" stroke="#FFFFFF" stroke-opacity="1" d="M 88.7799,17.4401C 88.7799,17.4401 91.66,13.92 91.66,9.44006C 91.66,4.96008 89.42,1.12 83.34,1.12012C 77.2601,1.12012 75.66,4.95996 75.66,7.84009C 75.66,10.7201 77.5801,13.6001 81.42,13.6001C 85.2601,13.6001 85.9,11.04 84.9401,10.4001"/>
	</g>
</svg>
