<?xml version="1.0" encoding="utf-8"?>
<!DOCTYPE svg PUBLIC "-//W3C//DTD SVG 1.1//EN" "http://www.w3.org/Graphics/SVG/1.1/DTD/svg11.dtd">
<svg xmlns="http://www.w3.org/2000/svg" xmlns:xlink="http://www.w3.org/1999/xlink" version="1.1" baseProfile="full" width="155.833" height="265.278" viewBox="0 0 155.83 265.28" enable-background="new 0 0 155.83 265.28" xml:space="preserve">
	<g>
		<path fill="#F9CCAC" fill-opacity="1" stroke-width="1.32283" stroke-linejoin="round" stroke="#000000" stroke-opacity="1" d="M 33.302,108.94C 33.302,108.94 28.7262,103.707 21.967,92.8812C 16.3431,85.6229 7.30792,83.72 7.30792,83.72C 7.30792,83.72 4.78888,84.0072 9.18124,88.9009C 9.74615,89.5528 9.72479,89.9845 8.17511,92.1105C 6.62549,94.2366 13.1462,98.8621 13.1462,98.8621C 13.1462,98.8621 17.9653,103.956 19.8369,107.022C 21.6785,110.039 27.8265,117.436 31.0781,117.983C 34.3298,118.53 48.3956,115.06 53.5448,111.922C 58.6938,108.784 57.5469,100.713 53.1906,98.6439C 48.8344,96.5752 44.0052,96.8256 39.8395,101.99C 35.6737,107.153 33.3153,108.89 33.302,108.94 Z "/>
		<path fill="#F9CCAC" fill-opacity="1" stroke-width="1.32283" stroke-linejoin="round" stroke="#000000" stroke-opacity="1" d="M 34.7083,23.5908C 34.7596,23.8894 19.4883,47.5777 20.8912,61.6053C 20.8212,61.2547 21.5223,62.7057 30.0794,64.2598C 38.6366,65.814 21.5926,68.4088 21.5926,68.4088C 21.5926,68.4088 23.837,81.314 35.4801,84.1898C 47.123,87.0654 55.26,84.1896 61.5719,82.6467C 67.8836,81.1037 91.7779,64.3057 86.4238,46.9467C 81.0699,29.5878 71.7062,-7.23448 34.7083,23.5908 Z "/>
		<path fill="#F9CCAD" fill-opacity="1" stroke-width="1.32283" stroke-linejoin="round" stroke="#000000" stroke-opacity="1" d="M 67.2112,80.8326C 67.2112,80.8326 55.8224,84.9015 54.2708,89.5872C 52.7195,94.2728 56.0596,100.191 56.0596,100.191C 56.0596,100.191 58.3741,132.208 66.0894,140.344C 73.8046,148.48 75.6278,164.143 66.5804,164.143C 57.5329,164.143 44.8268,163.554 42.4073,151.666C 39.9873,139.778 22.7331,115.258 27.5728,100.108C 28.1343,95.8295 31.6868,93.5973 33.3353,92.8961C 34.9836,92.1948 38.2099,86.3382 36.1761,81.7092"/>
		<path fill="#000000" fill-opacity="1" stroke-width="0.2" stroke-linejoin="round" d="M 43.455,40.4124C 43.7316,40.65 44.0107,40.8875 44.2571,41.1561C 44.7078,41.6478 45.3577,42.7884 45.8618,42.3516C 46.854,41.4918 45.0582,39.7305 44.1079,38.8246C 43.333,38.0862 42.4914,37.3229 41.4753,36.9863C 40.9355,36.8074 40.0892,37.8328 40.3987,38.3099C 41.0693,39.3439 42.5563,39.5509 43.455,40.4124 Z "/>
		<path fill="#000000" fill-opacity="1" stroke-width="0.2" stroke-linejoin="round" d="M 41.5402,50.2784L 41.555,50.2965C 42.5062,51.6049 43.482,52.9642 43.967,54.5075C 44.1856,55.203 43.5923,56.5222 44.3065,56.668C 45.1453,56.8392 45.3198,55.0914 45.1687,54.2489C 44.8525,52.4855 43.8408,50.8932 42.8517,49.3994C 41.3767,47.4194 38.3475,45.8861 35.9884,46.6143C 34.7538,46.9953 32.3824,47.7017 32.8597,48.9024C 33.3903,50.2373 35.6879,48.3947 37.0952,48.1071C 38.7108,47.7769 40.5618,48.951 41.5402,50.2784 Z "/>
		<g>
			<g>
				<path fill="#86432E" fill-opacity="1" stroke-width="1.32283" stroke-linejoin="round" stroke="#000000" stroke-opacity="1" d="M 103.838,31.2496C 103.839,31.2496 104.469,27.8126 117.796,23.4642C 131.122,19.1159 151.602,22.7388 155.074,43.5587C 158.546,64.3786 134.348,81.3628 129.579,106.051C 124.81,130.74 134.349,129.197 134.349,129.197C 134.349,129.197 93.5286,119.822 98.2981,89.2305C 103.067,58.6384 129.579,58.0421 128.738,44.5758C 127.896,31.1094 106.416,40.4727 106.416,40.4727L 103.838,31.2496 Z "/>
				<path fill="#86432E" fill-opacity="1" stroke-width="1.32283" stroke-linejoin="round" d="M 109.73,32.0033C 109.73,32.0033 120.882,21.6229 137.855,32.9151"/>
				<path fill="#000000" fill-opacity="1" stroke-width="0.2" stroke-linejoin="round" d="M 126.3,28.9073C 128.718,29.379 131.12,30.0651 133.361,31.0866C 134.324,31.5255 135.28,31.9815 136.229,32.4496C 136.581,32.6232 136.935,32.8042 137.312,32.9113C 138.156,33.1508 137.999,32.8778 137.916,32.7249C 136.872,30.8026 134.381,30.096 132.399,29.1712C 128.695,27.443 124.412,26.6233 120.338,26.9572C 118.109,27.1399 115.891,27.6956 113.818,28.5354C 112.956,28.8848 112.135,29.3419 111.356,29.8502C 111.043,30.0545 110.746,30.2835 110.449,30.5105C 110.038,30.8247 109.274,31.5247 109.672,31.8556C 110.333,32.4051 111.446,31.7329 112.191,31.3035C 113.392,30.6104 114.655,30.0074 115.965,29.5506C 119.224,28.4137 122.912,28.2464 126.3,28.9073 Z "/>
				<path fill="#86432E" fill-opacity="1" stroke-width="1.32283" stroke-linejoin="round" d="M 111.881,34.9491C 111.881,34.9491 118.777,30.8108 124.599,33.6866"/>
				<path fill="#000000" fill-opacity="1" stroke-width="0.2" stroke-linejoin="round" d="M 119.325,33.5766C 120.203,33.5231 121.087,33.4861 121.963,33.5584C 122.417,33.5957 122.867,33.6735 123.316,33.7515C 123.382,33.7628 123.444,33.7896 123.509,33.8023C 123.663,33.8321 123.817,33.8656 123.972,33.8789C 124.233,33.9011 124.727,33.7574 124.662,33.5039C 124.416,32.5379 122.965,32.3556 121.986,32.167C 119.973,31.7791 117.845,32.0209 115.844,32.4642C 115,32.6511 114.174,32.9329 113.386,33.286C 113.157,33.3884 112.931,33.4981 112.706,33.609C 112.64,33.6416 112.575,33.6766 112.514,33.7164C 112.055,34.012 111.964,35.1236 112.46,35.3531C 113.68,35.9187 114.99,34.4291 116.288,34.0763C 117.278,33.8073 118.301,33.6388 119.325,33.5766 Z "/>
				<path fill="#86432E" fill-opacity="1" stroke-width="1.32283" stroke-linejoin="round" d="M 128.913,43.3656C 128.913,43.3656 133.401,41.1907 129.895,65.8797"/>
				<path fill="#000000" fill-opacity="1" stroke-width="0.2" stroke-linejoin="round" d="M 130.108,56.1279C 129.969,58.3616 129.827,60.5952 129.671,62.8278C 129.642,63.2435 129.615,63.6594 129.6,64.0759C 129.589,64.3639 129.583,64.6525 129.595,64.9403C 129.602,65.1231 129.616,65.3072 129.657,65.4855C 129.7,65.6729 129.96,66.0052 130.092,65.8646C 131.936,63.888 131.252,60.5743 131.555,57.8881C 131.93,54.5553 132.106,51.1859 131.968,47.8347C 131.915,46.5414 131.747,45.1671 131.089,44.0523C 130.688,43.3726 129.845,42.3889 129.13,42.7239C 128.236,43.1431 129.624,44.6361 129.875,45.5912C 130.292,47.1777 130.354,48.8485 130.353,50.4887C 130.351,52.3703 130.225,54.25 130.108,56.1279 Z "/>
				<path fill="#86432E" fill-opacity="1" stroke-width="1.32283" stroke-linejoin="round" d="M 128.913,55.2193C 128.913,55.2193 127.79,61.6017 115.306,74.2967C 102.822,86.9917 106.679,97.2318 106.679,97.2318"/>
				<path fill="#000000" fill-opacity="1" stroke-width="0.2" stroke-linejoin="round" d="M 111.13,77.763C 108.407,81.4674 106.301,85.8789 105.685,90.4349C 105.542,91.4981 105.508,92.5838 105.603,93.6522C 105.658,94.2659 105.723,94.8817 105.855,95.4833C 105.993,96.1059 106.181,97.4561 106.752,97.1727C 107.571,96.7659 106.709,95.3431 106.694,94.4282C 106.664,92.6232 106.803,90.7908 107.244,89.0403C 108.599,83.669 111.972,78.7871 115.828,74.8098C 118.95,71.6153 122.031,68.3446 124.681,64.7483C 125.704,63.3594 126.676,61.9234 127.504,60.4099C 127.943,59.6073 128.383,58.7985 128.711,57.9444C 128.875,57.5176 129.064,57.0995 129.199,56.6626C 129.33,56.2384 129.482,55.3403 129.038,55.3407C 127.981,55.3414 127.476,56.8245 126.997,57.7665C 126.22,59.2945 125.341,60.7746 124.377,62.1918C 121.558,66.3353 118.155,70.0703 114.684,73.6846C 113.441,74.991 112.222,76.3281 111.13,77.763 Z "/>
				<path fill="#86432E" fill-opacity="1" stroke-width="1.32283" stroke-linejoin="round" d="M 121.513,88.254C 121.513,88.254 111.73,116.941 130.193,126.83"/>
				<path fill="#000000" fill-opacity="1" stroke-width="0.2" stroke-linejoin="round" d="M 119.051,113.312C 120.03,117.33 122.338,121.136 125.282,124.04C 126.166,124.911 127.214,125.618 128.3,126.22C 128.863,126.532 129.571,127.134 130.135,126.823C 130.692,126.516 129.265,125.894 128.8,125.46C 127.941,124.659 126.963,123.987 126.141,123.148C 123.52,120.468 121.669,116.935 120.673,113.321C 119.313,108.384 119.441,103.024 120.232,97.9649C 120.55,95.929 120.913,93.8993 121.34,91.8836C 121.577,90.7704 122.489,89.4548 121.856,88.5089C 121.317,87.7034 120.171,89.7359 119.912,90.6695C 119.394,92.5363 119.045,94.4489 118.745,96.3627C 117.871,101.945 117.713,107.822 119.051,113.312 Z "/>
				<path fill="#86432E" fill-opacity="1" stroke-width="1.32283" stroke-linejoin="round" d="M 110.134,111.119C 110.134,111.119 120.024,123.691 129.913,127.32"/>
				<path fill="#000000" fill-opacity="1" stroke-width="0.2" stroke-linejoin="round" d="M 120.266,122.536C 121.42,123.467 122.689,124.247 123.935,125.05C 124.567,125.456 125.219,125.836 125.899,126.154C 126.147,126.271 126.396,126.386 126.645,126.499C 126.875,126.604 127.106,126.708 127.337,126.81C 128.138,127.164 129.677,128.072 129.928,127.233C 130.122,126.587 128.895,126.353 128.304,126.027C 127.105,125.367 125.918,124.679 124.788,123.907C 121.09,121.384 117.779,118.29 114.712,115.03C 114.61,114.921 114.503,114.817 114.402,114.707C 114.05,114.324 113.707,113.931 113.352,113.55C 112.456,112.585 111.207,110.126 110.283,111.063C 109.48,111.879 110.864,113.374 111.635,114.22C 112.904,115.614 114.203,116.982 115.54,118.312C 117.038,119.802 118.622,121.209 120.266,122.536 Z "/>
			</g>
			<path fill="#EC8274" fill-opacity="1" stroke-width="1.32283" stroke-linejoin="round" d="M 104.33,23.5706C 104.33,23.5706 111.479,21.1273 114.635,28.7723C 117.792,36.4174 114.933,37.5747 112.987,40.0471C 111.041,42.5194 108.328,40.8242 108.328,40.8242"/>
			<path fill="#000000" fill-opacity="1" stroke-width="0.2" stroke-linejoin="round" d="M 115.125,33.7305C 115.337,35.8784 113.812,37.9497 112.459,39.6316C 111.931,40.2742 111.129,40.8314 110.298,40.8793C 109.633,40.9178 108.6,40.3117 108.3,40.9061C 107.965,41.5677 109.53,41.8831 110.27,41.9383C 111.451,42.0265 112.689,41.3145 113.496,40.4474C 114.726,39.0843 116.115,37.6629 116.587,35.8884C 117.231,33.4688 116.201,30.8325 115.34,28.4813C 114.222,25.8673 111.935,23.1685 109.145,22.6181C 108.381,22.4674 107.598,22.3981 106.744,22.4005C 106.501,22.4251 106.258,22.4456 106.017,22.4793C 105.806,22.5089 105.596,22.5462 105.387,22.5902C 104.953,22.6821 104.148,23.0111 104.339,23.4114C 105.01,24.8118 107.408,23.9184 108.907,24.3239C 111.115,24.9214 112.9,27.0145 113.831,29.1044C 114.404,30.5994 115.015,32.1331 115.125,33.7305 Z "/>
			<g>
				<path fill="#86432E" fill-opacity="1" stroke-width="1.32283" stroke-linejoin="round" stroke="#000000" stroke-opacity="1" d="M 58.6995,75.7825C 58.6997,75.7826 61.908,77.9392 63.0128,82.095C 64.1177,86.2507 104.905,73.5731 108.234,45.1676C 111.563,16.7618 86.6669,-2.66649 58.7874,2.06789C 30.9077,6.80214 40.3451,30.2423 40.3451,30.2423C 40.3453,30.2423 47.0868,36.9579 53.9428,39.325C 55.5734,37.5015 49.9644,38.2413 55.912,48.6569C 61.8598,59.0725 57.0869,67.6992 57.0869,67.6992C 57.0869,67.6992 64.6877,64.4115 66.2661,59.2301C 67.8447,54.0489 76.1116,59.5894 74.8143,63.0262C 73.5168,66.463 76.8477,72.9503 63.1712,76.1419C 63.2415,76.1773 58.6475,75.8265 58.6995,75.7825 Z "/>
				<path fill="#86432E" fill-opacity="1" stroke-width="1.32283" stroke-linejoin="round" stroke="#000000" stroke-opacity="1" d="M 56.8022,2.96419C 34.3373,-5.99034 27.4865,19.4754 28.1403,25.8687C 28.2063,26.5148 28.3655,30.6263 29.6172,31.0354C 30.7546,31.4071 32.2538,25.7758 34.2232,26.1697C 37.0002,26.3862 38.3788,28.4344 38.3788,28.4344C 38.3788,28.4346 47.0868,36.9579 53.9428,39.325"/>
				<path fill="#000000" fill-opacity="1" stroke-width="0.2" stroke-linejoin="round" d="M 51.5005,1.71754C 52.4844,1.8661 53.4806,2.08961 54.3732,2.52962C 59.6198,5.78767 63.6958,10.9518 66.7414,16.3245C 67.8842,18.3403 68.8555,20.4688 69.5818,22.6693C 69.6858,22.9843 69.7855,23.3006 69.884,23.6172C 70.0766,24.2364 70.0359,25.6097 70.6513,25.4051C 71.573,25.0987 70.555,23.4603 70.393,22.5027C 69.9902,20.1236 68.948,17.8704 67.826,15.7342C 64.8336,10.0376 60.5746,4.62611 55.1358,1.18739C 51.3928,-0.704941 46.5157,-0.17717 42.5533,1.19789C 36.7835,3.20027 31.8253,8.34096 29.3888,13.9412C 27.8575,17.913 26.5606,22.3272 27.2402,26.5294C 27.4613,27.896 27.8507,29.2704 28.5273,30.4781C 28.6568,30.7092 28.7946,30.9366 28.9513,31.1502C 29.0992,31.3517 29.27,31.536 29.4391,31.7201C 29.7233,32.0296 30.3912,32.5871 30.5962,32.2204C 31.0125,31.4758 30.121,30.5811 29.8402,29.7757C 29.3984,28.5086 28.9911,27.2098 28.8378,25.8766C 28.3999,22.0676 29.6165,18.159 30.9802,14.5756C 34.171,7.16103 43.5327,0.424393 51.5005,1.71754 Z "/>
				<path fill="#000000" fill-opacity="1" stroke-width="0.2" stroke-linejoin="round" d="M 42.9313,32.4329C 41.3838,31.24 39.9863,29.7369 39.1027,27.9942C 39.0685,27.9108 39.0194,27.834 38.9584,27.7677C 37.9863,26.8187 36.7636,25.8688 35.4092,25.7645C 34.1176,25.6651 32.7105,26.4559 31.9252,27.4862C 31.0592,28.6225 29.4019,30.3139 30.2775,31.4426C 30.5602,31.8071 30.8864,30.7478 31.1606,30.3768C 31.8396,29.4586 32.4791,28.4808 33.3492,27.7413C 34.5301,26.7376 36.809,27.6408 37.8871,28.7542L 37.7557,28.5476C 41.3949,36.2907 51.8894,39.3196 60.3191,40.7825C 60.9389,40.89 61.5603,40.9893 62.1812,41.0901C 62.251,41.1014 62.3212,41.1107 62.3914,41.1185C 63.2347,41.2118 64.0762,41.3273 64.9223,41.3932C 65.293,41.4221 65.9878,41.3347 65.9522,40.9645C 65.8016,39.3949 63.0892,39.5453 61.5374,39.2658C 59.0104,38.8106 56.5046,38.2241 54.0322,37.5318C 50.1111,36.4336 46.1028,34.9868 42.9313,32.4329 Z "/>
				<path fill="#86432E" fill-opacity="1" stroke-width="1.32283" stroke-linejoin="round" d="M 48.383,11.2262C 48.383,11.2262 34.8679,20.344 36.5297,26.867"/>
				<path fill="#000000" fill-opacity="1" stroke-width="0.2" stroke-linejoin="round" d="M 38.7384,18.6624C 37.6476,20.1173 36.6226,21.7034 36.1316,23.4542C 35.8276,24.538 35.4023,26.2965 36.3985,26.8204C 37.3144,27.3019 36.9843,24.8334 37.3533,23.8668C 37.9661,22.2622 38.9764,20.8095 40.0858,19.4981C 41.5768,17.7355 43.3476,16.2158 45.1492,14.772C 46.317,13.836 48.0291,13.2421 48.5482,11.8383C 48.7171,11.3814 47.8284,10.8929 47.3525,10.9976C 46.2466,11.241 45.4872,12.286 44.6085,13.0003C 42.4989,14.7149 40.3692,16.4873 38.7384,18.6624 Z "/>
				<path fill="#86432E" fill-opacity="1" stroke-width="1.32283" stroke-linejoin="round" d="M 54.9057,24.6926C 54.9057,24.6926 48.1299,31.5303 49.5328,37.492"/>
				<path fill="#000000" fill-opacity="1" stroke-width="0.2" stroke-linejoin="round" d="M 49.426,31.3577C 49.0906,32.1858 48.9052,33.0748 48.7839,33.96C 48.621,35.1492 48.4266,37.6306 49.6152,37.4635C 50.3489,37.3604 49.8847,36.0059 49.9928,35.273C 50.1694,34.0765 50.4645,32.879 50.9626,31.7769C 51.6261,30.3084 52.5279,28.9447 53.5179,27.6732C 54.132,26.8847 55.1837,26.2122 55.2332,25.2139C 55.2739,24.3927 53.3351,25.1178 52.829,25.7659C 51.4866,27.4859 50.2449,29.3353 49.426,31.3577 Z "/>
				<path fill="#86432E" fill-opacity="1" stroke-width="1.32283" stroke-linejoin="round" d="M 65.0421,61.0233C 65.0421,61.0233 69.1451,56.6397 67.1288,50.6255"/>
				<path fill="#000000" fill-opacity="1" stroke-width="0.2" stroke-linejoin="round" d="M 68.4827,55.2402C 68.5903,54.1138 68.3962,52.9573 68.0875,51.8687C 67.9426,51.3574 67.5631,50.5257 67.0488,50.6595C 66.656,50.7616 66.8131,51.4591 66.8594,51.8623C 66.9681,52.813 67.0381,53.7779 66.9572,54.7313C 66.7855,56.7525 65.1408,58.3989 64.6776,60.3739C 64.546,60.9353 66.0441,61.2223 66.3673,60.7448C 67.4689,59.1168 68.2956,57.197 68.4827,55.2402 Z "/>
				<path fill="#86432E" fill-opacity="1" stroke-width="1.32283" stroke-linejoin="round" d="M 69.8116,57.0079C 69.8116,57.0079 81.172,54.9569 84.2934,52.5372"/>
				<path fill="#000000" fill-opacity="1" stroke-width="0.2" stroke-linejoin="round" d="M 78.7685,55.8016C 79.352,55.6 79.9243,55.3679 80.5018,55.1498C 80.6572,55.0911 80.8139,55.0358 80.9667,54.9712C 82.2287,54.4373 84.9622,53.634 84.2326,52.474C 83.9199,51.9768 83.0633,52.6619 82.5179,52.88C 81.4442,53.3092 80.3368,53.6495 79.2336,53.9954C 76.2256,54.9389 72.9756,55.0775 70.0486,56.2484C 69.5814,56.4352 70.0248,57.5208 70.499,57.6893C 71.0432,57.8827 71.6464,57.5418 72.2106,57.4181C 74.4099,56.9363 76.6405,56.5365 78.7685,55.8016 Z "/>
				<path fill="#86432E" fill-opacity="1" stroke-width="1.32283" stroke-linejoin="round" d="M 108.053,42.4025C 108.053,42.4025 97.3913,61.2694 86.4501,65.4075"/>
				<path fill="#000000" fill-opacity="1" stroke-width="0.2" stroke-linejoin="round" d="M 96.3067,56.9451C 94.5357,58.9011 92.6496,60.7781 90.5601,62.3895C 89.6808,63.0678 88.7551,63.6864 87.8139,64.276C 87.4663,64.4937 87.1085,64.6993 86.7876,64.9549C 86.1115,65.4935 86.327,65.5448 86.5723,65.5657C 89.61,65.8245 92.2023,62.9979 94.482,60.974C 98.3847,57.5094 101.675,53.3714 104.744,49.1503C 105.242,48.4652 105.715,47.7616 106.167,47.0448C 106.416,46.6499 106.664,46.2551 106.908,45.857C 107.059,45.6098 107.209,45.3617 107.351,45.109C 107.791,44.3235 108.994,42.8509 108.153,42.5294C 106.856,42.0337 105.92,44.2657 105.164,45.4299C 103.914,47.3529 102.604,49.2381 101.229,51.073C 99.697,53.1167 98.021,55.0518 96.3067,56.9451 Z "/>
				<path fill="#86432E" fill-opacity="1" stroke-width="1.32283" stroke-linejoin="round" d="M 107.526,36.3004C 107.526,36.3004 101.284,43.5244 93.6393,44.0155"/>
				<path fill="#000000" fill-opacity="1" stroke-width="0.2" stroke-linejoin="round" d="M 99.6208,41.3364C 98.6383,41.8462 97.6475,42.3482 96.6154,42.7481C 96.0732,42.9583 95.5172,43.1316 94.9619,43.3048C 94.8939,43.3259 94.8221,43.3331 94.7538,43.3531C 94.5685,43.4073 94.3814,43.457 94.2014,43.527C 93.936,43.6303 93.4636,44.0211 93.6813,44.2048C 94.7858,45.1365 96.6357,44.2586 97.9934,43.7645C 100.211,42.9576 102.324,41.8029 104.226,40.4058C 105.271,39.6385 106.335,38.8517 107.155,37.8477C 107.359,37.5983 107.574,37.3572 107.756,37.0916C 107.811,37.0117 107.852,36.9166 107.859,36.8202C 107.899,36.3345 107.015,36.0455 106.546,36.1783C 105.02,36.6107 104.191,38.3104 102.932,39.2767C 101.901,40.0685 100.775,40.7377 99.6208,41.3364 Z "/>
				<path fill="#86432E" fill-opacity="1" stroke-width="1.32283" stroke-linejoin="round" d="M 80.1728,34.1963C 80.1728,34.1963 101.705,32.4427 105.703,27.7437"/>
				<path fill="#000000" fill-opacity="1" stroke-width="0.2" stroke-linejoin="round" d="M 95.8493,32.7537C 97.7323,32.3286 99.5743,31.7134 101.369,31.0037C 102.177,30.6844 102.968,30.317 103.725,29.89C 104.137,29.6574 104.518,29.3701 104.887,29.0739C 105.293,28.7484 106.039,28.0145 105.626,27.6991C 105.056,27.2645 104.311,28.2733 103.67,28.5939C 102.439,29.2093 101.138,29.6893 99.8196,30.0851C 95.3981,31.4125 90.7947,32.1043 86.2122,32.664C 85.5222,32.7482 84.8323,32.834 84.1431,32.9249C 83.9299,32.9531 83.7182,32.9918 83.505,33.0211C 83.1033,33.0761 82.6994,33.1165 82.2985,33.1774C 81.5538,33.2907 80.0538,33.305 80.2109,34.0415C 80.4564,35.1931 82.5082,34.8563 83.6778,34.7191C 85.5887,34.4949 87.4972,34.2438 89.3983,33.9473C 91.5591,33.6104 93.7162,33.2354 95.8493,32.7537 Z "/>
				<path fill="#86432E" fill-opacity="1" stroke-width="1.32283" stroke-linejoin="round" d="M 103.494,22.7289C 103.494,22.7289 96.2697,18.6607 90.729,21.6768"/>
				<path fill="#000000" fill-opacity="1" stroke-width="0.2" stroke-linejoin="round" d="M 96.0833,19.7042C 95.342,19.7122 94.5946,19.7569 93.8686,19.9066C 92.6939,20.1492 90.2943,20.6513 90.7776,21.7492C 91.0811,22.4384 92.2836,21.6351 93.021,21.4821C 94.0298,21.2727 95.0751,21.262 96.1053,21.281C 98.4427,21.3243 100.524,23.0064 102.854,23.189C 103.3,23.2239 103.599,22.4532 103.504,22.0169C 103.38,21.4495 102.563,21.3131 102.022,21.1008C 100.129,20.3577 98.1169,19.6825 96.0833,19.7042 Z "/>
				<path fill="#86432E" fill-opacity="1" stroke-width="1.32283" stroke-linejoin="round" d="M 101.583,19.7479C 101.583,19.7479 87.5194,9.49025 75.2815,12.3309"/>
				<path fill="#000000" fill-opacity="1" stroke-width="0.2" stroke-linejoin="round" d="M 86.9612,11.9251C 85.3784,11.5626 83.7651,11.2809 82.1431,11.2061C 81.3456,11.1692 80.545,11.1263 79.7482,11.1767C 79.4256,11.197 79.1024,11.2091 78.7807,11.2388C 78.505,11.2642 78.2313,11.3063 77.9568,11.3426C 77.0159,11.4669 75.0439,11.503 75.3179,12.4117C 75.6518,13.5192 77.6311,12.4905 78.7875,12.4663C 81.0496,12.419 83.3278,12.7058 85.5346,13.2047C 89.2279,14.0397 92.7592,15.6012 96.0905,17.4012C 97.7299,18.287 99.1556,19.8213 101.002,20.0706C 101.602,20.1516 101.39,18.625 100.91,18.2566C 99.7899,17.3982 98.5101,16.7692 97.2729,16.0911C 94.0222,14.309 90.5749,12.7526 86.9612,11.9251 Z "/>
			</g>
		</g>
		<g>
			<path fill="#F9CCAD" fill-opacity="1" fill-rule="evenodd" stroke-width="1.32283" stroke-linejoin="round" stroke="#000000" stroke-opacity="1" d="M 58.7228,66.3191C 58.7228,66.3191 64.7195,56.8153 69.489,58.4987C 74.2585,60.1822 75.766,60.9534 74.574,67.4764C 73.3818,73.9993 60.2661,76.1034 60.2661,76.1034"/>
			<path fill="#F9CCAD" fill-opacity="1" fill-rule="evenodd" stroke-width="1.32283" stroke-linejoin="round" d="M 70.3829,65.7929C 70.3829,65.7929 69.9617,62.2105 67.437,63.4143C 64.9124,64.6182 58.5999,69.3873 60.9496,71.8248C 63.2992,74.2621 63.1941,70.7904 63.1941,70.7904L 62.1279,70.9657L 61.7912,71.176"/>
			<path fill="#000000" fill-opacity="1" stroke-width="0.2" stroke-linejoin="round" d="M 60.4573,68.1033C 59.7364,69.3192 59.4768,71.2832 60.4113,72.3438C 61.0748,72.9265 62.1476,73.6361 62.9175,73.2034C 63.6592,72.7865 63.7715,71.6229 63.7033,70.7749C 63.6988,70.6281 63.6313,70.4906 63.5179,70.3971C 63.4047,70.304 63.2562,70.2639 63.1115,70.2877C 62.7409,70.3978 62.3649,70.5054 62.0201,70.6798C 61.4524,71.1698 61.8623,71.4017 62.2283,71.2319C 62.5811,71.2129 62.9308,71.3569 63.2831,71.3324L 62.6451,70.8069C 62.586,71.2283 62.7277,71.8787 62.3362,72.0452C 61.9888,72.193 61.7129,71.6131 61.4411,71.351C 60.6078,70.3262 61.9637,68.6084 62.8835,67.6603C 64.2818,66.2186 66.0436,65.1502 67.802,64.1795C 68.7547,63.8133 69.6395,66.2256 70.4854,65.6543C 71.219,65.1588 70.7263,63.6552 70.1031,63.0266C 69.3838,62.3006 68.0173,62.2641 67.0627,62.6292C 64.5612,64.0147 62.0014,65.6964 60.4573,68.1033 Z "/>
		</g>
		<path fill="#FEFFFB" fill-opacity="1" fill-rule="evenodd" stroke-width="1.32283" stroke-linecap="round" stroke-linejoin="round" stroke="#000000" stroke-opacity="1" d="M 36.7662,85.7138C 36.7664,85.7139 32.8214,90.4916 34.4113,91.8521C 36.5821,93.7095 39.6012,94.7278 46.1244,93.255C 52.6473,91.7821 54.5405,87.163 55.7332,87.1631C 56.9256,87.1631 59.4504,89.6076 59.8013,94.3771C 60.1523,99.1467 60.1165,115.4 70.8478,138.861C 70.9533,139.177 56.4341,151.736 34.7619,150.895C 34.6566,150.895 20.1736,116.276 24.1717,99.1278C 28.17,81.9794 36.7264,85.1002 36.7264,85.1002L 36.7662,85.7138 Z "/>
		<path fill="#F9CCAC" fill-opacity="1" stroke-width="1.32283" stroke-linejoin="round" stroke="#000000" stroke-opacity="1" d="M 31.713,112.037C 31.713,112.037 26.1845,107.823 17.3999,98.565C 10.44,92.5758 1.20685,92.5152 1.20685,92.5152C 1.20685,92.5152 -1.20416,93.2996 4.07687,97.2177C 4.76059,97.7437 4.82587,98.171 3.73181,100.564C 2.63794,102.956 9.9509,106.187 9.9509,106.187C 9.9509,106.187 15.6901,110.216 18.1362,112.847C 20.5431,115.435 28.0442,121.455 31.3395,121.342C 34.635,121.229 47.7249,115.021 52.1437,110.918C 56.5625,106.815 53.827,99.1344 49.1454,97.9773C 44.4638,96.8201 39.7819,98.0296 36.7312,103.921C 33.6803,109.813 31.7162,111.986 31.713,112.037 Z "/>
		<path fill="#FEFFFB" fill-opacity="1" fill-rule="evenodd" stroke-width="1.32283" stroke-linecap="round" stroke-linejoin="round" stroke="#000000" stroke-opacity="1" d="M 69.2123,134.85C 69.2126,134.85 67.9497,137.936 74.194,139.646C 79.8839,141.204 110.56,153.934 131.742,185.743C 146.541,199.772 150.749,210.595 150.749,210.595C 150.749,210.595 145.112,237.365 113.984,251.568C 82.8568,265.771 67.601,268.822 51.3995,258.617C 48.84,258.196 46.8757,226.915 37.1969,208.819C 27.5179,190.724 34.3214,151.727 34.3214,151.727L 39.3281,148.843L 69.2123,134.85 Z "/>
		<path fill="#FEFFFB" fill-opacity="1" fill-rule="evenodd" stroke-width="1.32283" stroke-linecap="round" stroke-linejoin="round" stroke="#000000" stroke-opacity="1" d="M 63.6414,141.658C 63.6414,141.658 93.5093,166.486 101.084,179.532C 108.659,192.578 128.809,224.665 138.197,229.084"/>
		<path fill="#FEFFFB" fill-opacity="1" fill-rule="evenodd" stroke-width="1.32283" stroke-linecap="round" stroke-linejoin="round" stroke="#000000" stroke-opacity="1" d="M 44.2724,148.601C 44.2724,148.601 41.8878,162.769 46.3767,178.62C 50.8656,194.471 65.3839,231.223 69.382,241.533C 73.3799,251.844 72.9591,263.697 72.9591,263.697"/>
		<path fill="#F18775" fill-opacity="1" fill-rule="evenodd" stroke-width="1.32283" stroke-linecap="round" stroke-linejoin="round" stroke="#000000" stroke-opacity="1" d="M 68.162,133.023C 68.5267,132.81 72.8608,135.829 71.5986,138.424C 70.3364,141.019 53.2787,151.435 39.1883,151.084C 25.098,150.733 37.4977,144.701 39.1883,144.771C 40.8786,144.842 57.5016,140.564 68.162,133.023 Z "/>
	</g>
</svg>
