<?xml version="1.0" encoding="utf-8"?>
<!DOCTYPE svg PUBLIC "-//W3C//DTD SVG 1.1//EN" "http://www.w3.org/Graphics/SVG/1.1/DTD/svg11.dtd">
<svg xmlns="http://www.w3.org/2000/svg" xmlns:xlink="http://www.w3.org/1999/xlink" version="1.1" baseProfile="full" width="31.0321" height="47.4983" viewBox="0 0 31.03 47.50" enable-background="new 0 0 31.03 47.50" xml:space="preserve">
	<g>
		<path fill="#B3AF89" fill-opacity="1" stroke-width="1.32283" stroke-linejoin="round" d="M 18.2573,26.4931C 18.257,26.4933 23.7982,29.4738 27.375,27.8959C 30.952,26.3179 29.5494,22.7408 26.6034,22.8111C 23.6576,22.8812 20.4667,23.5475 18.8882,25.1256C 17.3101,26.7037 18.257,26.4581 18.2573,26.4931 Z "/>
		<path fill="#000000" fill-opacity="1" stroke-width="0.2" stroke-linejoin="round" d="M 27.4769,23.827C 27.2111,23.7108 26.9125,23.6833 26.6235,23.6574C 24.0923,23.7074 21.2958,23.9951 19.2528,25.4903L 19.2528,25.4903C 17.4818,27.0359 17.2461,26.2485 18.4979,24.7352C 20.4803,22.7092 23.7555,22.2489 26.5868,22.1122L 26.5868,22.1122C 28.1566,22.1967 30.1616,23.5389 30.2281,25.1097C 30.2894,26.5531 28.9697,27.9424 27.6984,28.629L 27.6984,28.629C 25.3105,29.5167 22.4601,29.0412 19.9174,28.0953C 19.5723,27.9313 19.2275,27.7665 18.8861,27.595C 18.521,27.4116 18.1161,26.6742 18.4557,26.447C 19.3722,25.8341 20.6656,26.6432 21.725,26.9492C 23.4164,27.4376 25.3438,27.6945 27.0248,27.1017L 27.0248,27.1017C 27.703,26.7498 28.5073,26.2084 28.6161,25.452C 28.7103,24.7973 28.0942,24.0648 27.4769,23.827 Z "/>
		<path fill="#B3AF89" fill-opacity="1" stroke-width="1.32283" stroke-linejoin="round" d="M 17.3882,26.5941C 17.3883,26.5941 15.4911,32.5931 11.826,33.9537C 8.16101,35.3145 6.67419,31.7716 8.8363,29.7691C 10.9979,27.7665 13.751,26.0209 15.9828,26.053C 18.2142,26.0851 17.3639,26.5689 17.3882,26.5941 Z "/>
		<path fill="#000000" fill-opacity="1" stroke-width="0.2" stroke-linejoin="round" d="M 8.91748,31.1063C 9.02734,30.8378 9.22229,30.61 9.4115,30.3901C 11.2618,28.662 13.4681,26.9198 15.9752,26.5685L 15.9752,26.5685C 18.3226,26.4431 17.9429,25.7141 15.9906,25.5009C 13.1569,25.4293 10.4869,27.3814 8.36121,29.2562L 8.36121,29.2562C 7.29431,30.4107 6.79138,32.7706 7.83801,33.9435C 8.79993,35.0215 10.7147,35.0983 12.1049,34.705L 12.1049,34.705C 14.436,33.6777 16.1493,31.3505 17.314,28.9001C 17.4471,28.5421 17.5796,28.1837 17.705,27.8227C 17.839,27.4366 17.6157,26.6256 17.2137,26.6993C 16.1293,26.8984 15.7655,28.3801 15.2188,29.3376C 14.3458,30.8665 13.1426,32.3939 11.5239,33.14L 11.5239,33.14C 10.7921,33.3602 9.83789,33.5324 9.23291,33.0657C 8.70911,32.6617 8.64063,31.7072 8.91748,31.1063 Z "/>
		<path fill="#F18077" fill-opacity="1" stroke-width="1.32283" stroke-linejoin="round" d="M 15.5311,20.0976C 15.5308,20.0977 22.9482,14.6266 21.5802,6.263C 20.212,-2.10065 13.1678,0.529175 9.95471,4.52722C 6.74207,8.52509 7.06201,12.0494 8.53467,14.2062C 10.0074,16.3629 15.5045,19.9926 15.5311,20.0976 Z "/>
		<path fill="#000000" fill-opacity="1" stroke-width="0.2" stroke-linejoin="round" d="M 11.6489,4.01154L 11.2264,4.40033L 10.6222,5.06342L 10.6222,5.06342C 8.79871,7.40002 7.58728,11.2719 9.09607,13.8229L 9.09607,13.8229C 10.3066,15.4855 11.9928,16.7526 13.5753,18.0663C 14.2845,18.6551 15.849,19.1989 15.4999,20.0521C 15.3607,20.392 14.79,19.8433 14.4667,19.6693C 14.0054,19.4211 13.5288,19.2003 13.077,18.9354C 12.785,18.7643 12.5157,18.5571 12.2386,18.363C 10.6854,17.2757 9.1637,16.0678 7.99609,14.5739C 6.09705,11.6032 7.28088,6.89972 9.41345,4.09216L 9.41345,4.09216C 11.4852,1.75458 14.8759,-0.610168 17.9087,0.137268C 20.3307,0.73407 21.9005,3.68451 22.3903,6.13049L 22.3903,6.13049C 22.9015,9.75433 21.8795,13.8157 19.7406,16.7853C 19.2324,17.4909 18.6652,18.1569 18.0557,18.777C 17.9526,18.8817 17.8511,18.988 17.7443,19.0891C 17.5521,19.2709 17.3566,19.4495 17.1592,19.6259C 16.7729,19.9709 15.9103,20.6295 15.6989,20.1566C 14.9429,18.4665 17.5983,16.9771 18.6068,15.4244C 20.2894,12.8341 21.1328,9.46472 20.724,6.40302L 20.724,6.40302C 20.3828,4.63165 19.5714,2.39246 17.8649,1.80774C 15.7853,1.09534 13.2412,2.49579 11.6489,4.01154 Z "/>
		<path fill="#F18077" fill-opacity="1" stroke-width="1.32283" stroke-linejoin="round" d="M 12.5811,20.8419C 12.5814,20.8419 3.5426,19.0389 1.22913,10.8859C -1.08411,2.73285 6.41028,2.12219 11.017,4.37726C 15.6235,6.6322 16.8306,9.95886 16.4132,12.5369C 15.9957,15.1149 12.5605,20.7355 12.5811,20.8419 Z "/>
		<path fill="#000000" fill-opacity="1" stroke-width="0.2" stroke-linejoin="round" d="M 9.26428,4.63007L 9.81189,4.80243L 10.6405,5.14612L 10.6405,5.14612C 13.2837,6.48718 16.0248,9.47797 15.7422,12.4283L 15.7422,12.4283C 15.3522,14.4477 14.3638,16.311 13.4891,18.1723C 13.097,19.0065 11.9117,20.1633 12.59,20.7874C 12.8604,21.036 13.144,20.297 13.3629,20.0021C 13.6752,19.5815 14.0127,19.1793 14.3092,18.7475C 14.5009,18.4686 14.6567,18.1666 14.8252,17.8732C 15.7697,16.2292 16.6343,14.4894 17.057,12.641C 17.5146,9.14514 14.4453,5.38959 11.3223,3.75348L 11.3223,3.75348C 8.45325,2.51849 4.38049,1.81659 1.95166,3.7807C 0.012207,5.34924 -0.155273,8.68732 0.439575,11.1099L 0.439575,11.1099C 1.51563,14.6078 4.16565,17.8506 7.36328,19.6309C 8.12305,20.0539 8.91943,20.416 9.7345,20.7184C 9.87219,20.7696 10.0094,20.8226 10.149,20.8687C 10.4004,20.9518 10.6532,21.0304 10.9067,21.1063C 11.403,21.2546 12.4635,21.4844 12.4542,20.9666C 12.4209,19.1154 9.38428,18.8947 7.81189,17.9173C 5.18848,16.2867 2.99548,13.5941 2.06396,10.649L 2.06396,10.649C 1.62048,8.90033 1.40393,6.52863 2.70068,5.27454C 4.28113,3.74622 7.17932,3.93304 9.26428,4.63007 Z "/>
		<path fill="#E2B7FF" fill-opacity="1" stroke-width="1.32283" stroke-linejoin="round" d="M 8.17627,8.53357C 7.49524,10.5729 8.61853,12.7851 10.6854,13.4753C 12.7521,14.1655 14.9795,13.0719 15.6605,11.0328C 16.3414,8.99359 15.2179,6.78113 13.1514,6.091C 11.0845,5.40076 8.8573,6.4942 8.17627,8.53357 Z "/>
		<path fill="#000000" fill-opacity="1" stroke-width="0.2" stroke-linejoin="round" d="M 14.8846,9.12C 14.6954,8.13055 13.8456,7.21149 12.9139,6.80194C 11.9369,6.48297 10.7059,6.5722 9.85596,7.13458C 9.23828,7.54327 8.78906,8.77631 8.09875,8.49115C 7.40686,8.20538 8.35339,6.92279 8.90369,6.42639C 10.0273,5.41248 11.8925,5.04095 13.3676,5.44342L 13.3676,5.44342C 15.4174,6.23029 16.911,9.17072 16.3555,11.265L 16.3555,11.265C 15.5763,13.3265 12.5775,14.8475 10.4191,14.273L 10.4191,14.273C 9.54333,13.9435 8.68994,13.4016 8.12451,12.661C 7.27063,11.5425 6.38037,8.73376 7.76697,8.48468C 8.56006,8.34216 8.75452,9.80109 8.97473,10.5712C 9.23645,11.4872 10.0654,12.3008 10.9606,12.6515C 12.35,13.0428 14.3048,12.0801 14.8203,10.7523C 14.9647,10.2277 15.0107,9.65118 14.8846,9.12 Z "/>
		<path fill="#F18077" fill-opacity="1" stroke-width="1.32283" stroke-linejoin="round" d="M 16.3292,25.3969C 16.3295,25.3969 7.15918,26.3234 2.55701,19.2071C -2.04529,12.0907 4.9408,9.30939 10.0062,10.1146C 15.0714,10.9198 17.2008,13.7463 17.5577,16.3334C 17.9146,18.9205 16.2783,25.3013 16.3292,25.3969 Z "/>
		<path fill="#000000" fill-opacity="1" stroke-width="0.2" stroke-linejoin="round" d="M 8.40466,10.87L 8.97864,10.8745L 9.8717,10.9601L 9.8717,10.9601C 12.792,11.4672 16.2896,13.5228 16.8844,16.4263L 16.8843,16.4262C 17.1036,18.4713 16.7051,20.5425 16.4146,22.5786C 16.2843,23.4909 15.4902,24.9445 16.3218,25.3422C 16.6532,25.5007 16.7075,24.711 16.8304,24.3649C 17.0055,23.8712 17.2104,23.3876 17.3672,22.8879C 17.4688,22.5651 17.5292,22.2308 17.6041,21.9008C 18.0253,20.0521 18.3417,18.1353 18.2037,16.2442C 17.6162,12.7677 13.5807,10.0773 10.1152,9.42865L 10.1152,9.42865C 7.01038,9.08759 2.91003,9.612 1.16455,12.2023C -0.229614,14.2709 0.588257,17.5114 1.86768,19.6527L 1.86768,19.6527C 3.92224,22.6815 7.40662,25.0048 10.9857,25.7691C 11.8359,25.9507 12.7035,26.0634 13.5717,26.1136C 13.7183,26.1221 13.8649,26.1325 14.0118,26.1357C 14.2765,26.1415 14.5411,26.1425 14.8058,26.1407C 15.3239,26.1369 16.4053,26.0457 16.2445,25.5533C 15.6698,23.7933 12.702,24.4727 10.912,23.9993C 7.92578,23.2096 5.03845,21.2791 3.28564,18.7358L 3.28564,18.7358C 2.349,17.194 1.44641,14.9901 2.31848,13.4108C 3.38123,11.4865 6.20691,10.816 8.40466,10.87 Z "/>
		<g>
			<path fill="#F18077" fill-opacity="1" stroke-width="1.32283" stroke-linejoin="round" d="M 18.6268,25.9871C 18.6265,25.9872 26.0439,20.5162 24.6759,12.1525C 23.3077,3.78888 16.2635,6.41864 13.0504,10.4167C 9.83777,14.4146 10.1577,17.9388 11.6304,20.0956C 13.1031,22.2524 18.6002,25.8821 18.6268,25.9871 Z "/>
			<path fill="#000000" fill-opacity="1" stroke-width="0.2" stroke-linejoin="round" d="M 14.7446,9.901L 14.3221,10.2899L 13.7179,10.9529L 13.7179,10.9529C 11.8944,13.2895 10.683,17.1613 12.1918,19.7125L 12.1918,19.7123C 13.4023,21.3751 15.0885,22.6422 16.671,23.9559C 17.3802,24.5446 18.9447,25.0884 18.5956,25.9415C 18.4564,26.2814 17.8857,25.7328 17.5624,25.5588C 17.1011,25.3106 16.6245,25.0898 16.1727,24.8248C 15.8807,24.6537 15.6115,24.4466 15.3344,24.2525C 13.7811,23.1652 12.2594,21.9573 11.0918,20.4633C 9.19275,17.4927 10.3766,12.7892 12.5092,9.98163L 12.5092,9.98163C 14.5809,7.6441 17.9716,5.27936 21.0044,6.02673C 23.4264,6.6236 24.9962,9.57404 25.486,12.02L 25.486,12.02C 25.9972,15.6439 24.9752,19.7052 22.8363,22.6747C 22.3281,23.3804 21.7609,24.0463 21.1514,24.6664C 21.0483,24.7712 20.9468,24.8775 20.84,24.9786C 20.6478,25.1605 20.4523,25.339 20.2549,25.5153C 19.8687,25.8604 19.006,26.5189 18.7946,26.0461C 18.0386,24.356 20.694,22.8666 21.7025,21.3139C 23.3851,18.7236 24.2285,15.3542 23.8197,12.2925L 23.8197,12.2925C 23.4785,10.5211 22.6671,8.28192 20.9606,7.6972C 18.881,6.9848 16.3369,8.38531 14.7446,9.901 Z "/>
			<path fill="#B3AF89" fill-opacity="1" stroke-width="1.32283" stroke-linejoin="round" d="M 17.5988,26.0397C 17.5988,26.0397 17.7743,20.5687 16.3364,18.5349"/>
			<path fill="#000000" fill-opacity="1" stroke-width="0.2" stroke-linejoin="round" d="M 16.4498,21.6727C 16.3075,20.6031 15.4331,18.5868 16.5016,18.436C 17.1068,18.3506 17.4813,19.2757 17.6543,19.8619C 18.0087,21.0632 18.2233,22.3078 18.3564,23.5533C 18.3783,23.7574 18.3956,23.9619 18.4095,24.1664C 18.4248,24.391 18.4445,24.6157 18.444,24.8406C 18.443,25.436 17.5045,26.0934 16.965,25.842C 15.6958,25.2504 16.6348,23.0607 16.4498,21.6727 Z "/>
			<path fill="#B3AF89" fill-opacity="1" stroke-width="1.32283" stroke-linejoin="round" d="M 18.2651,25.2682L 18.16,25.163C 18.1598,25.163 20.8955,18.4297 19.7379,14.9229"/>
			<path fill="#000000" fill-opacity="1" stroke-width="0.2" stroke-linejoin="round" d="M 18.9462,19.1462C 19.1044,18.4918 19.2192,17.8265 19.3071,17.1588C 19.3442,16.8759 19.359,16.5901 19.3719,16.305C 19.3799,16.1295 19.3883,15.9539 19.4126,15.7053C 19.4374,15.3827 19.6166,14.788 19.9263,14.8818C 21.7084,15.4213 20.6517,18.6203 20.3257,20.4535C 20.0228,22.1561 20.3286,24.871 18.6733,25.3715L 18.5519,24.7714C 18.5112,25.0734 18.1831,25.293 17.9052,25.4177C 17.8031,25.3154 17.7715,25.1613 17.8262,25.0274C 17.2202,24.4779 17.8861,23.3724 18.1337,22.5927C 18.4908,21.4678 18.7655,20.3126 18.9462,19.1462 Z "/>
		</g>
		<path fill="#000000" fill-opacity="1" stroke-width="0.2" stroke-linejoin="round" d="M 23.0363,38.567C 23.9174,40.1425 24.9818,41.6769 26.3099,43.0591C 27.0597,43.8397 27.9442,44.5428 28.8369,45.2308C 29.275,45.5685 29.7296,45.8937 30.1691,46.2305C 32.105,47.7138 31.2733,47.5455 30.7928,47.6196C 27.7549,48.0873 25.1514,45.3429 23.2552,43.478C 20.0029,40.2798 18.2142,36.2328 17.1548,32.2704C 16.6381,30.3383 16.3647,28.3583 16.356,26.3865C 16.3551,26.1825 16.358,25.9785 16.3715,25.7748C 16.3848,25.5706 16.4098,25.3669 16.4357,25.1635C 16.5343,24.3939 18.4623,23.6378 19.1938,24.1747C 21.8636,26.1349 19.9115,29.7999 20.5665,32.5784C 21.0503,34.6303 21.9443,36.6302 23.0363,38.567 Z "/>
	</g>
</svg>
