<?xml version="1.0" encoding="utf-8"?>
<!DOCTYPE svg PUBLIC "-//W3C//DTD SVG 1.1//EN" "http://www.w3.org/Graphics/SVG/1.1/DTD/svg11.dtd">
<svg xmlns="http://www.w3.org/2000/svg" xmlns:xlink="http://www.w3.org/1999/xlink" version="1.1" baseProfile="full" width="135.068" height="286.662" viewBox="0 0 135.07 286.66" enable-background="new 0 0 135.07 286.66" xml:space="preserve">
	<g>
		<g>
			<path fill="#F9CCAC" fill-opacity="1" stroke-width="1.32283" stroke-linejoin="round" stroke="#000000" stroke-opacity="1" d="M 73.726,24.5778C 73.6746,24.8764 88.946,48.5648 87.5431,62.5924C 87.6131,62.2418 88.6904,64.7801 79.9962,64.5599C 71.6855,64.3494 86.8417,69.3958 86.8417,69.3958C 86.8417,69.3958 84.5972,82.3011 72.9542,85.1768C 61.3113,88.0526 53.1743,85.1767 46.8623,83.6339C 40.5507,82.0908 16.6564,65.2928 22.0105,47.9338C 27.3643,30.5749 38.7908,15.5335 73.726,24.5778 Z "/>
			<path fill="#F9CCAD" fill-opacity="1" stroke-width="1.32283" stroke-linejoin="round" stroke="#000000" stroke-opacity="1" d="M 48.0947,83.4405C 48.0947,83.4405 53.5251,86.7108 53.5256,91.6467C 53.526,96.9768 52.1636,100.133 52.1636,100.133C 52.1636,100.133 55.8109,103.71 58.5461,114.301C 61.3499,125.157 60.0892,126.084 69.1366,126.084C 78.1841,126.084 76.8521,124.891 78.3777,119.631C 81.7567,107.979 78.3779,111.618 75.3263,105.516C 74.7648,101.238 72.8542,96.1002 71.6704,93.5227C 70.9227,91.8949 69.3121,88.4465 71.3459,83.8175"/>
			<path fill="#000000" fill-opacity="1" stroke-width="0.2" stroke-linejoin="round" d="M 65.5552,43.6677C 64.6326,44.1234 63.6617,45.9497 62.9058,45.2517C 61.799,44.2298 64.4042,42.401 65.763,41.7503C 66.8306,41.2391 68.0834,40.6081 69.2202,40.9383C 69.7264,41.0853 69.6072,42.1927 69.1935,42.5194C 68.1952,43.3074 66.6954,43.1046 65.5552,43.6677 Z "/>
			<path fill="#000000" fill-opacity="1" stroke-width="0.2" stroke-linejoin="round" d="M 69.9979,52.9095L 69.9078,53.0184C 68.9645,54.3182 67.9912,55.665 67.5101,57.1971C 67.2881,57.9041 67.8868,59.2451 67.1605,59.3925C 66.3221,59.5627 66.1487,57.8164 66.3005,56.9744C 66.6182,55.2115 67.6259,53.6175 68.6156,52.1245C 70.1957,50.0211 74.0634,49.1129 76.3284,50.4509C 77.3134,51.0328 79.1936,51.9796 78.6448,52.9832C 77.8926,54.3587 75.7188,51.8551 74.2396,51.3363C 72.8167,50.8372 70.8964,51.6984 69.9979,52.9095 Z "/>
		</g>
		<g>
			<path fill="#343434" fill-opacity="1" stroke-width="1.32283" stroke-linejoin="round" stroke="#000000" stroke-opacity="1" d="M 34.2211,74.2534C 34.2211,74.2534 34.4625,70.6325 38.7496,70.8035C 43.0364,70.9744 46.6576,72.6927 46.6574,72.6926C 46.6574,72.6926 42.3438,67.5022 42.6595,63.9603C 42.9755,60.4188 43.6584,51.6777 35.7421,46.4176C 35.7774,46.5316 45.561,47.2327 56.1521,39.6579C 66.7434,32.0833 71.7839,29.137 77.2548,31.6886C 77.3165,31.7501 88.643,3.46663 68.9346,0.661331C 54.1382,5.98799 71.2195,5.30501 32.7928,5.41109C 3.66943,10.8116 3.49628,45.1638 6.86298,46.1108C 6.4248,46.4616 -2.20239,51.5114 1.37469,61.1905C 4.95154,70.8693 22.2751,96.5045 50.0853,88.1583C 50.4365,88.0882 49.6204,84.1427 45.8594,83.9324C 42.0988,83.7222 27.1412,78.1372 34.2211,74.2534 Z "/>
			<path fill="#4D4D4D" fill-opacity="1" stroke-width="0.2" stroke-linejoin="round" d="M 57.9521,37.5504C 59.9454,36.2345 61.8489,34.7518 63.5401,33.0651C 64.6249,31.9832 65.6608,30.847 66.6114,29.6452C 67.0254,29.1217 67.3939,28.5631 67.7617,28.0061C 68.3558,27.1058 69.879,25.369 68.8774,24.9683C 68.3895,24.773 68.1825,25.7572 67.8312,26.1483C 66.8704,27.2181 66.0543,28.4115 65.1043,29.491C 62.5422,32.4034 59.4181,34.8526 56.1013,36.8636C 52.2607,39.1918 48.1523,41.1005 43.9483,42.6806C 42.2358,43.3243 40.5091,43.9295 38.7796,44.5261C 37.761,44.8775 36.2246,44.8182 35.8151,45.8148C 35.4651,46.6663 37.642,46.6186 38.5238,46.3542C 40.2655,45.8321 41.9871,45.2418 43.6913,44.6079C 48.6624,42.7589 53.5256,40.4722 57.9521,37.5504 Z "/>
			<path fill="#4D4D4D" fill-opacity="1" stroke-width="0.2" stroke-linejoin="round" d="M 35.7451,17.9437C 33.2111,19.8723 30.4902,21.6612 27.5128,22.7906C 26.9387,23.0085 26.339,23.1615 25.7352,23.272C 25.3474,23.3431 24.9481,23.3629 24.5546,23.3411C 24.3552,23.3303 24.1583,23.2882 23.964,23.2423C 22.7791,22.963 23.01,22.8676 23.0288,23.1546C 23.0802,23.9386 24.2609,24.3309 25.0451,24.3743C 26.4437,24.452 27.8641,24.0671 29.165,23.5482C 32.5416,22.2012 35.5403,20.0206 38.5013,17.9117C 40.4885,16.4735 42.4832,15.0451 44.5068,13.6586C 46.0868,12.576 47.6673,11.4928 49.2838,10.4654C 49.8795,10.0867 50.4715,9.70235 51.0687,9.32625C 51.1643,9.26607 51.266,9.21565 51.3625,9.15657C 51.7188,8.93831 52.0672,8.70747 52.4266,8.49446C 52.6479,8.36324 52.8823,8.25471 53.1038,8.1241C 53.4067,7.94539 53.7007,7.27632 53.3915,7.10945C 51.3594,6.01326 48.9659,8.60152 47.0425,9.87874C 43.8044,12.0286 40.6749,14.3391 37.5439,16.6419L 35.7451,17.9437 Z "/>
			<path fill="#6F3321" fill-opacity="1" stroke-width="1.32283" stroke-linejoin="round" d="M 37.7379,46.6234C 37.7379,46.6234 24.0869,47.8857 14.7766,45.2821"/>
			<path fill="#000000" fill-opacity="1" stroke-width="0.2" stroke-linejoin="round" d="M 24.2418,45.8654C 22.3403,45.7767 20.4372,45.6611 18.5468,45.4368C 17.8811,45.3579 17.2176,45.2596 16.5521,45.1789C 16.2762,45.1453 16.001,45.1029 15.7236,45.0845C 15.5461,45.0728 15.3668,45.0675 15.1902,45.0889C 14.9995,45.1123 14.6425,45.3304 14.7653,45.4781C 15.9843,46.9442 18.3745,46.8046 20.2653,47.049C 24.2846,47.5684 28.3512,47.7457 32.4039,47.7403C 32.5867,47.7401 32.7695,47.739 32.9523,47.733C 33.3799,47.7189 33.8074,47.7036 34.2346,47.6801C 34.658,47.6568 35.0809,47.6245 35.5037,47.5928C 35.6252,47.5838 35.7468,47.5743 35.8676,47.5579C 36.5279,47.4688 37.8406,47.4295 37.7077,46.7764C 37.5024,45.7679 35.7653,45.8916 34.737,45.9357C 33.0844,46.0069 31.4301,46.0695 29.7759,46.0607C 27.9449,46.0511 26.1143,45.9742 24.2418,45.8654 Z "/>
			<path fill="#4D4D4D" fill-opacity="1" stroke-width="0.2" stroke-linejoin="round" d="M 14.9352,36.9881C 14.5795,35.7027 14.4851,34.3201 14.6514,32.9969C 14.7522,32.1951 14.9919,31.4144 15.2379,30.6447C 15.2856,30.4957 15.3199,30.3426 15.3669,30.1933C 15.3928,30.1116 15.4342,30.035 15.4568,29.9525C 15.4984,29.8016 15.5442,29.6502 15.559,29.4945C 15.5767,29.3094 15.4502,28.945 15.277,29.0131C 13.2638,29.8045 13.0266,32.9585 13.0836,35.121C 13.2057,39.7652 16.1508,45.5225 20.6007,46.8575L 20.3392,46.5272C 20.5984,46.8399 21.2968,46.471 21.4847,46.1108C 21.4441,45.9991 21.3683,45.9034 21.269,45.8381C 21.114,44.4401 19.2686,43.8595 18.309,42.831C 16.7747,41.1865 15.438,39.1801 14.9352,36.9881 Z "/>
			<path fill="#4D4D4D" fill-opacity="1" stroke-width="0.2" stroke-linejoin="round" d="M 21.6951,53.4489C 21.4961,54.7028 21.4488,56.0036 21.6472,57.2576C 21.7396,57.8426 21.9531,58.8674 22.5406,58.7933C 23.2677,58.7016 22.8531,57.3536 22.8794,56.6213C 22.9158,55.6082 23.0408,54.5927 23.2698,53.6052C 23.7735,51.4345 25.473,49.618 25.7855,47.4117C 25.8748,46.7811 24.1682,47.0025 23.8813,47.5711C 22.9398,49.4376 22.0228,51.3844 21.6951,53.4489 Z "/>
			<path fill="#4D4D4D" fill-opacity="1" stroke-width="0.2" stroke-linejoin="round" d="M 12.6216,61.3289C 12.9915,62.9818 13.6215,64.575 14.3231,66.1165C 14.6636,66.8648 15.0801,67.5778 15.5115,68.2778C 15.6852,68.5598 15.8526,68.8458 16.035,69.1223C 16.1908,69.3586 16.3607,69.5853 16.526,69.8151C 17.0949,70.6068 17.9346,72.4309 18.676,71.7979C 19.0646,71.4663 18.3858,70.8155 18.1814,70.3472C 17.8143,69.5063 17.2443,68.7685 16.8149,67.9576C 15.4175,65.3187 14.2263,62.4471 13.9337,59.4754C 13.6414,56.5064 14.3411,53.3321 15.7773,50.7172C 16.2905,49.7829 16.9108,48.9067 17.5692,48.0683C 18.0408,47.468 19.0468,46.9516 18.8976,46.203C 18.7771,45.5982 17.5136,45.7674 17.0479,46.1717C 15.9089,47.1602 15.0865,48.4841 14.3303,49.7889C 12.3804,53.1533 11.7723,57.5343 12.6216,61.3289 Z "/>
		</g>
		<g>
			<path fill="#F9CCAD" fill-opacity="1" fill-rule="evenodd" stroke-width="1.32283" stroke-linejoin="round" stroke="#000000" stroke-opacity="1" d="M 47.8575,73.7991C 47.8575,73.7991 38.8835,67.0354 35.0194,70.2989C 31.1553,73.5626 30.0187,74.8178 33.4438,80.4957C 36.8691,86.1734 49.8798,83.4958 49.8798,83.4958"/>
			<path fill="#F9CCAD" fill-opacity="1" fill-rule="evenodd" stroke-width="1.32283" stroke-linejoin="round" d="M 44.7733,78.7607C 44.7733,78.7607 45.1481,78.6817 44.9839,78.3596C 44.8199,78.0376 44.0038,77.8665 44.116,78.5043C 44.2279,79.142 44.0566,79.7733 45.1155,79.6419C 46.1742,79.5103 47.1145,77.7877 45.6877,77.038C 44.2606,76.2884 41.306,73.783 38.3737,74.2039C 35.441,74.6248 33.5209,74.9273 35.349,77.7153"/>
			<path fill="#000000" fill-opacity="1" stroke-width="0.2" stroke-linejoin="round" d="M 41.1161,73.6275C 40.2028,73.3519 39.2095,73.3149 38.2617,73.4237C 37.0339,73.6594 35.6557,73.7773 34.6914,74.5731C 33.8736,75.248 34.1576,77.5513 35.2058,77.7124C 35.87,77.8145 34.8539,76.1998 35.3015,75.6986C 36.028,74.8848 37.3918,75.0408 38.4717,74.8875C 40.937,74.7053 43.2072,76.4567 45.3118,77.7534C 45.6044,77.9549 45.3908,78.6566 45.0111,78.8C 44.7994,78.8114 44.9619,78.7274 44.9088,78.3648C 44.7195,79.2214 44.4028,78.7597 44.3593,78.6778C 44.4478,77.3757 45.7491,79.2272 45.5657,78.0631C 45.3589,77.5213 44.5657,77.0835 44.0168,77.2707C 43.5186,77.4408 43.2208,78.1301 43.2563,78.6555C 43.3535,79.5506 44.3234,80.5443 45.223,80.5069C 46.1436,80.3062 47.0351,79.4481 47.2423,78.5289C 47.428,77.7044 46.806,76.7208 46.0914,76.2697C 44.4732,75.317 42.8933,74.2335 41.1161,73.6275 Z "/>
		</g>
		<g>
			<g>
				<path fill="#EE8275" fill-opacity="1" stroke-width="1.32283" stroke-linejoin="round" stroke="#000000" stroke-opacity="1" d="M 64.2614,265.697C 64.2615,265.697 63.8405,267.915 62.8587,269.313C 61.8769,270.712 60.7898,277.927 61.5526,279.558C 62.3152,281.189 82.6724,284.266 86.39,283.95C 90.1072,283.635 92.3515,280.619 92.0711,279.251C 91.7905,277.883 78.1835,272.027 76.9565,271.431C 75.7291,270.835 74.151,271.08 74.8524,268.345C 75.554,265.61 64.2877,265.68 64.2614,265.697 Z "/>
				<path fill="#FFFFFF" fill-opacity="1" stroke-width="1.32283" stroke-linejoin="round" stroke="#000000" stroke-opacity="1" d="M 62.1505,277.23C 62.1507,277.23 77.5545,281.211 83.3936,281.369C 89.2327,281.526 92.555,280.553 92.555,280.553C 92.5552,280.553 93.6768,281.956 92.1165,282.657C 90.5563,283.359 85.6027,284.682 81.4473,284.025C 77.2917,283.367 62.0978,279.913 62.0978,279.913L 62.1505,277.23 Z "/>
			</g>
			<g>
				<path fill="#EE8275" fill-opacity="1" stroke-width="1.32283" stroke-linejoin="round" stroke="#000000" stroke-opacity="1" d="M 56.4137,267.747C 56.4139,267.747 55.9929,269.965 55.011,271.363C 54.0292,272.762 52.9421,279.977 53.705,281.608C 54.4676,283.239 74.8248,286.316 78.5423,286C 82.2596,285.685 84.5038,282.668 84.2234,281.301C 83.9428,279.933 70.3359,274.077 69.1088,273.481C 67.8815,272.885 66.3033,273.13 67.0048,270.395C 67.7064,267.66 56.44,267.729 56.4137,267.747 Z "/>
				<path fill="#FFFFFF" fill-opacity="1" stroke-width="1.32283" stroke-linejoin="round" stroke="#000000" stroke-opacity="1" d="M 53.7341,278.789C 53.7344,278.789 69.1382,282.769 74.9772,282.927C 80.8163,283.085 84.1387,282.112 84.1387,282.112C 84.1389,282.112 85.2605,283.515 83.7001,284.216C 82.14,284.918 77.1864,286.241 73.0309,285.584C 68.8753,284.926 53.6815,281.472 53.6815,281.472L 53.7341,278.789 Z "/>
			</g>
			<path fill="#4D3F3C" fill-opacity="1" stroke-width="1.32283" stroke-linejoin="round" stroke="#000000" stroke-opacity="1" d="M 64.457,268.748C 64.4572,268.748 67.1678,211.477 66.3083,204.375C 65.4489,197.273 66.8816,178.377 64.5718,175.054C 62.2619,171.73 67.2369,164.147 67.2369,164.147L 97.6942,161.99C 97.6942,161.99 100.37,167.965 95.5417,177.981C 90.7135,187.997 88.1567,211.674 88.1293,212.031C 88.1022,212.387 86.1045,219.817 85.0233,222.704C 83.942,225.59 71.5453,266.177 74.6019,268.227C 74.7064,268.214 64.4872,268.86 64.457,268.748 Z "/>
			<path fill="#82716A" fill-opacity="1" stroke-width="1.32283" stroke-linejoin="round" stroke="#000000" stroke-opacity="1" d="M 64.5059,259.927L 63.4952,260.497C 63.4952,260.497 62.1777,258.079 62.2306,261.235C 62.2837,264.392 60.569,268.304 62.3361,268.337C 63.8537,268.365 66.6414,272.906 72.7962,270.855C 72.8315,270.925 74.7949,268.084 75.4966,265.419C 76.198,262.754 76.7493,261.569 75.1364,261.569C 73.5231,261.569 63.7214,261.2 64.5059,259.927 Z "/>
			<path fill="#4D3F3C" fill-opacity="1" stroke-width="1.32283" stroke-linejoin="round" stroke="#000000" stroke-opacity="1" d="M 57.2613,268.047C 57.2615,268.047 66.8346,211.516 66.8348,204.362C 66.835,197.208 64.8358,179.007 62.9422,175.43C 61.0483,171.853 63.5732,160.947 63.5732,160.947L 102.78,158.457C 102.78,158.457 105.025,172.309 99.0279,181.672C 93.0311,191.036 87.6477,214.234 87.5777,214.584C 87.5079,214.935 84.6318,222.071 83.2116,224.807C 81.7912,227.542 64.6072,266.345 67.3954,268.748C 67.5007,268.748 57.278,268.161 57.2613,268.047 Z "/>
			<path fill="#82716A" fill-opacity="1" stroke-width="1.32283" stroke-linejoin="round" stroke="#000000" stroke-opacity="1" d="M 58.4629,261.47L 58.0815,259.885C 58.0815,259.885 56.1348,259.622 56.1876,262.779C 56.2407,265.935 55.1882,268.5 56.2932,269.88C 57.3978,271.26 59.8174,274.141 65.9722,272.089C 66.0075,272.16 70.0399,268.442 70.7415,265.777C 71.4429,263.112 70.7064,263.112 69.0934,263.112C 67.4801,263.112 57.6785,262.743 58.4629,261.47 Z "/>
			<path fill="#847570" fill-opacity="1" stroke-width="1.32283" stroke-linejoin="round" stroke="#000000" stroke-opacity="1" d="M 50.3076,91.9724C 50.3078,91.9725 48.9925,100.389 48.2036,102.966C 47.4146,105.544 48.7299,127.234 54.832,135.51C 60.934,143.787 60.9532,158.235 57.182,161.952C 53.4105,165.669 50.0631,169.176 50.0631,169.176C 50.0631,169.176 55.9272,183.66 78.2624,183.87C 100.597,184.081 104.455,174.349 104.455,174.349C 104.455,174.349 104.981,150.081 99.9308,136.826C 94.8809,123.569 85.4513,110.461 85.4513,110.461C 85.4515,110.461 74.6989,99.2888 71.0168,96.9635C 67.3347,94.638 50.3964,92.0078 50.3076,91.9724 Z "/>
			<path fill="#847570" fill-opacity="1" stroke-width="1.32283" stroke-linejoin="round" d="M 103.153,171.666C 103.153,171.666 91.3781,186.56 70.337,178.564C 49.2961,170.569 54.8369,168.605 54.8369,168.605"/>
			<path fill="#000000" fill-opacity="1" stroke-width="0.2" stroke-linejoin="round" d="M 73.4083,178.662L 72.5487,178.422L 70.6349,177.78C 66.249,176.128 61.825,174.481 57.7234,172.212C 56.61,171.596 55.4144,170.94 54.6924,169.892C 54.5858,169.737 54.4955,169.552 54.4935,169.364C 54.4837,168.367 55.2294,168.5 54.6594,168.475C 53.9492,168.443 53.8293,169.916 54.1566,170.547C 54.7677,171.725 55.9822,172.516 57.1074,173.22C 61.1488,175.747 65.6471,177.488 70.0891,179.217C 77.5845,181.828 86.6242,182.562 93.8999,179.39C 96.1816,178.395 98.346,177.076 100.278,175.508C 100.697,175.168 101.089,174.798 101.622,174.313C 101.892,174.042 102.165,173.774 102.43,173.499C 102.536,173.389 102.64,173.278 102.736,173.16C 102.852,173.018 102.96,172.868 103.068,172.719C 103.242,172.479 103.469,171.964 103.2,171.84C 101.804,171.201 100.458,173.257 99.239,174.191C 97.3785,175.618 95.3569,176.87 93.2109,177.814C 87.1631,180.474 79.7437,180.537 73.4083,178.662 Z "/>
			<path fill="#847570" fill-opacity="1" stroke-width="1.32283" stroke-linejoin="round" d="M 54.9769,135.815C 54.9769,135.815 58.238,141.181 60.7633,149.492C 63.2886,157.804 62.6571,164.642 62.6571,164.642"/>
			<path fill="#000000" fill-opacity="1" stroke-width="0.2" stroke-linejoin="round" d="M 60.6477,152.465C 61.3431,154.996 61.7616,157.608 62.0133,160.221C 62.1025,161.148 62.1563,162.079 62.2426,163.006C 62.295,163.571 62.1772,164.622 62.744,164.631C 63.1582,164.638 63.0287,163.853 63.1428,163.455C 63.4468,162.394 63.3278,161.25 63.2881,160.148C 63.1563,156.477 62.4219,152.826 61.4576,149.281C 60.8551,147.36 60.2932,145.421 59.5605,143.546C 59.0375,142.206 58.4739,140.882 57.8729,139.576C 57.8112,139.442 57.748,139.308 57.6811,139.177C 57.4223,138.67 57.158,138.166 56.8951,137.661C 56.4993,136.901 55.7982,135.246 55.134,135.787C 53.7919,136.883 55.8157,139.216 56.5366,140.791C 57.8647,143.694 58.9396,146.711 59.9275,149.746C 60.1821,150.649 60.4255,151.554 60.6477,152.465 Z "/>
			<path fill="#E1998A" fill-opacity="1" stroke-width="1.32283" stroke-linejoin="round" stroke="#000000" stroke-opacity="1" d="M 73.3197,91.5125C 75.6633,90.8741 78.7176,94.6878 78.6536,96.2121C 78.5898,97.7364 79.3087,98.0825 79.3087,98.0825C 79.3087,98.0825 90.1065,115.3 89.5475,117.33C 88.9882,119.36 88.6358,118.383 88.6358,118.383L 74.0681,98.757C 74.0681,98.757 70.8821,96.8853 72.1576,95.3597C 73.4328,93.8339 73.4205,91.6221 73.3197,91.5125 Z "/>
			<path fill="#FFFFFF" fill-opacity="1" stroke-width="1.32283" stroke-linejoin="round" stroke="#000000" stroke-opacity="1" d="M 49.4705,88.8812L 49.4705,97.3613L 76.2458,100.822L 74.5099,89.5126L 49.4705,88.8812 Z "/>
			<path fill="#F6CFAD" fill-opacity="1" stroke-width="1.32283" stroke-linejoin="round" stroke="#000000" stroke-opacity="1" d="M 124.517,116.914C 124.517,116.914 122.763,111.338 124.798,111.092C 126.832,110.847 128.971,111.653 128.971,111.653C 128.971,111.653 135.178,117.507 134.407,122.769C 133.635,128.031 131.215,127.855 131.11,127.855C 131.005,127.855 128.531,127.61 128.531,127.61L 122.308,121.788L 124.517,116.914 Z "/>
			<path fill="#847570" fill-opacity="1" stroke-width="1.32283" stroke-linejoin="round" d="M 53.5891,130.786C 53.5891,130.786 48.2069,121.254 48.6982,108.973C 49.1896,96.6927 58.3072,92.3507 64.6198,98.4527C 70.9321,104.555 94.0774,128.682 98.1455,129.594C 102.214,130.506 122.641,115.917 124.956,116.583C 127.27,117.25 133.67,126.473 132.408,130.225C 131.146,133.978 108.754,150.091 98.6016,150.46C 88.4496,150.828 65.3207,132.855 63.2169,126.753C 62.3408,126.367 60.5521,129.138 60.6925,130.26"/>
			<path fill="#000000" fill-opacity="1" stroke-width="0.2" stroke-linejoin="round" d="M 130.539,125.08C 131.222,126.594 132.004,128.341 131.592,129.951C 130.754,131.754 128.999,132.989 127.482,134.276C 124.619,136.703 121.552,138.896 118.404,140.94C 112.34,144.88 105.781,149.129 98.5757,149.746C 91.2229,149.641 84.5469,144.818 78.4566,140.697C 72.7966,136.867 66.3937,132.85 63.5273,126.646C 63.4976,126.56 63.4325,126.489 63.3492,126.453C 61.9171,126.021 59.6876,129.006 60.7195,130.089C 60.9847,130.367 61.0707,129.405 61.2434,129.062C 61.657,128.24 62.157,126.95 63.1041,127.009L 62.9521,126.844C 65.621,133.549 72.4023,137.969 78.3376,142.073C 84.4296,146.286 91.221,150.98 98.626,151.134C 106.636,150.506 113.936,145.73 120.62,141.271C 125.193,138.219 130.771,135.443 133.066,130.446C 133.847,127.467 132.081,124.191 130.432,121.59C 129.047,119.406 127.569,116.824 125.151,115.905C 122.741,115.488 120.519,117.554 118.391,118.761C 114.13,121.178 109.932,123.709 105.621,126.038C 103.326,127.278 100.891,129.252 98.3135,128.845C 93.3167,127.034 89.9387,122.269 86.1114,118.581C 79.0437,111.771 72.1857,104.747 65.2115,97.8407C 62.4153,95.3143 57.2813,94.1624 54.0424,96.0889C 49.9591,98.5175 48.1594,104.198 47.8793,108.941C 47.8452,113.651 48.4546,118.415 49.7262,122.951C 50.1479,124.455 50.6965,125.924 51.2913,127.368C 51.329,127.46 51.3707,127.549 51.4133,127.639C 51.6171,128.067 51.8202,128.496 52.03,128.921C 52.0993,129.062 52.1736,129.2 52.2506,129.336C 52.3409,129.496 52.4313,129.656 52.5317,129.81C 52.6498,129.991 52.7708,130.171 52.9058,130.34C 52.9829,130.436 53.1787,130.572 53.252,130.473C 53.7748,129.762 52.9156,128.739 52.6733,127.89C 52.2018,126.239 51.7432,124.584 51.3148,122.922C 50.1487,118.395 49.5175,113.682 49.5713,109.008C 49.8358,104.807 51.2504,99.6296 54.9213,97.5695C 57.6008,96.0658 61.734,97.0195 64.0153,99.0781C 71.3854,106.367 78.6607,113.753 86.1407,120.93C 89.7893,124.43 93.1744,128.797 97.9552,130.442C 100.796,130.889 103.558,128.949 106.107,127.617C 109.804,125.684 113.357,123.49 116.969,121.402C 119.49,119.945 121.889,117.968 124.713,117.426C 127.697,118.598 129.233,122.151 130.539,125.08 Z "/>
			<path fill="#847570" fill-opacity="1" stroke-width="1.32283" stroke-linejoin="round" d="M 121.291,118.93C 121.291,118.93 129.09,125.821 128.005,130.292"/>
			<path fill="#000000" fill-opacity="1" stroke-width="0.2" stroke-linejoin="round" d="M 125.77,125.46C 126.088,125.954 126.449,126.424 126.712,126.949C 126.853,127.231 126.997,127.512 127.119,127.803C 127.232,128.073 127.323,128.352 127.415,128.629C 127.501,128.888 127.555,129.157 127.611,129.424C 127.879,130.696 128.154,130.336 128.197,130.312C 129.353,129.668 128.572,127.557 128.039,126.347C 127.141,124.305 125.746,122.499 124.325,120.781C 123.654,119.97 122.965,119.067 122.002,118.642C 121.512,118.425 120.933,119.557 121.188,120.028C 121.812,121.181 123.032,121.896 123.881,122.894C 124.569,123.703 125.195,124.567 125.77,125.46 Z "/>
			<path fill="#847570" fill-opacity="1" stroke-width="1.32283" stroke-linejoin="round" d="M 102.302,129.871C 102.302,129.871 96.8308,129.503 94.2009,133.869"/>
			<path fill="#000000" fill-opacity="1" stroke-width="0.2" stroke-linejoin="round" d="M 96.5264,130.411C 95.3582,131.157 93.1358,133.124 94.2781,133.909C 95.1846,134.532 96.0127,132.546 96.9614,131.989C 98.4821,131.098 100.471,131.34 102.054,130.565C 102.526,130.334 102.314,129.197 101.824,129.004C 100.124,128.336 98.0665,129.428 96.5264,130.411 Z "/>
		</g>
	</g>
</svg>
