<?xml version="1.0" encoding="utf-8"?>
<!DOCTYPE svg PUBLIC "-//W3C//DTD SVG 1.1//EN" "http://www.w3.org/Graphics/SVG/1.1/DTD/svg11.dtd">
<svg xmlns="http://www.w3.org/2000/svg" xmlns:xlink="http://www.w3.org/1999/xlink" version="1.1" baseProfile="full" width="448.016" height="93.3097" viewBox="0 0 448.02 93.31" enable-background="new 0 0 448.02 93.31" xml:space="preserve">
	<g>
		<path fill="#FA8585" fill-opacity="1" fill-rule="evenodd" stroke-width="0.2" stroke-linejoin="miter" d="M 147.401,26.6517C 147.881,25.8873 148.305,25.1166 148.82,24.413C 150.025,22.7667 151.511,21.4091 153.28,20.3862C 154.422,19.726 155.663,19.4212 156.993,19.5175C 158.335,19.6147 159.433,20.1817 160.302,21.2031C 161.396,22.4907 161.916,23.9874 161.949,25.6702C 161.978,27.123 161.569,28.4791 161.065,29.8144C 160.643,30.9315 160.086,31.9804 159.459,32.9971C 158.215,35.0123 156.915,36.9822 155.324,38.7482C 153.613,40.6454 151.777,42.4066 149.728,43.9327C 149.121,44.3845 148.46,44.7747 147.785,45.1194C 147.208,45.4149 146.644,45.199 146.181,44.8011C 143.526,42.5207 141.114,40.0027 138.942,37.2601C 138.143,36.2504 137.359,35.2189 136.669,34.134C 135.514,32.3188 134.689,30.3452 134.374,28.2073C 133.796,24.288 136.371,21.8128 139.421,21.1733C 140.296,20.9897 141.173,21.1193 141.998,21.4733C 144.273,22.4494 145.959,24.0689 147.138,26.2321C 147.209,26.3622 147.278,26.4937 147.35,26.6235C 147.356,26.6346 147.375,26.6384 147.401,26.6517 Z M 141.167,37.9615L 141.167,37.9615C 144.786,35.6727 148.533,33.7095 152.21,31.6208C 148.043,33.1303 143.958,34.8622 139.558,35.9007C 140.117,36.6166 140.641,37.2877 141.167,37.9615 Z M 147.492,31.676L 147.492,31.676C 147.505,31.7037 147.518,31.7316 147.53,31.7595C 147.652,31.7193 147.775,31.6837 147.895,31.6386C 148.807,31.2951 149.717,30.9483 150.63,30.6052C 153.226,29.6281 155.816,28.6298 158.494,27.8863C 158.971,27.754 159.439,27.586 159.902,27.4123C 160.024,27.3665 160.183,27.2552 160.21,27.1457C 160.33,26.654 160.353,26.1516 160.28,25.5737C 159.928,25.7519 159.637,25.8987 159.346,26.0455C 158.506,26.4692 157.676,26.9146 156.824,27.3127C 153.995,28.6335 151.158,29.9365 148.326,31.2495C 148.043,31.3806 147.77,31.5333 147.492,31.676 Z M 148.096,29.652L 148.096,29.652C 144.742,30.8932 141.556,32.4727 138.326,34.0515C 138.483,34.2963 138.612,34.4987 138.723,34.6716C 139.482,34.2436 140.188,33.8248 140.913,33.4404C 143.043,32.3105 145.18,31.1943 147.314,30.0721C 147.576,29.9343 147.836,29.7922 148.096,29.652 Z M 156.736,33.9417L 156.736,33.9417C 156.711,33.9222 156.687,33.9025 156.662,33.8831C 154.871,34.8692 153.08,35.8553 151.29,36.8415C 151.554,36.835 151.786,36.7592 152.017,36.6802C 153.155,36.291 154.293,35.9022 155.43,35.508C 155.518,35.4772 155.614,35.4235 155.67,35.3519C 156.031,34.8863 156.382,34.4128 156.736,33.9417 Z M 140.951,22.8799L 140.951,22.8799C 139.63,22.362 136.883,23.6066 136.518,24.8721C 137.992,24.2097 139.463,23.5486 140.951,22.8799 Z M 156.894,21.5161L 156.894,21.5161C 154.746,21.4022 153.214,22.5418 151.835,23.9905C 153.521,23.1657 155.208,22.341 156.894,21.5161 Z M 142.75,39.8137L 142.75,39.8137C 144.221,38.7324 145.824,37.9726 147.359,37.1009C 147.343,37.0701 147.327,37.0391 147.311,37.0084C 145.599,37.6852 143.887,38.362 142.109,39.0648C 142.347,39.3426 142.536,39.5635 142.75,39.8137 Z M 141.452,30.6642L 141.452,30.6642C 141.439,30.6365 141.425,30.6086 141.411,30.5809C 140.054,31.1118 138.697,31.6424 137.301,32.1884C 137.441,32.4567 137.559,32.6838 137.697,32.9481C 138.98,32.1679 140.216,31.4161 141.452,30.6642 Z M 159.34,29.7122L 159.34,29.7122C 159.312,29.6965 159.284,29.6807 159.255,29.665C 157.774,30.4979 156.292,31.3307 154.735,32.206C 154.87,32.2144 154.905,32.227 154.932,32.2165C 156.176,31.728 157.421,31.2387 158.663,30.7441C 158.75,30.7094 158.85,30.6509 158.894,30.5745C 159.054,30.2936 159.193,30.0005 159.34,29.7122 Z M 139.739,29.0649L 139.739,29.0649C 139.727,29.0351 139.715,29.0052 139.702,28.9754C 138.614,29.3165 137.525,29.6574 136.414,30.0054C 136.528,30.3088 136.629,30.5793 136.741,30.8775C 137.776,30.2518 138.757,29.6584 139.739,29.0649 Z M 147.175,39.9645L 147.175,39.9645C 147.169,39.9492 147.162,39.9339 147.156,39.9186C 146.086,40.267 145.016,40.6154 143.9,40.9791C 144.135,41.2264 144.341,41.4434 144.526,41.638C 145.437,41.0623 146.306,40.5135 147.175,39.9645 Z M 159.073,22.5978L 159.073,22.5978C 159.003,22.4935 158.961,22.4079 158.898,22.341C 158.546,21.963 158.516,21.9695 158.073,22.2309C 157.592,22.514 157.1,22.7766 156.615,23.0513C 156.531,23.0983 156.458,23.1619 156.38,23.2176C 156.392,23.2348 156.403,23.252 156.415,23.2693C 157.288,23.0488 158.161,22.8283 159.073,22.5978 Z M 142.804,23.6346L 142.804,23.6346C 142.13,24.0815 141.483,24.5101 140.836,24.9385C 140.849,24.9644 140.862,24.9902 140.875,25.0159C 141.714,24.7203 142.553,24.4243 143.472,24.1C 143.193,23.9053 142.995,23.7673 142.804,23.6346 Z M 145.992,26.7947L 145.992,26.7947C 145.484,27.1583 145.025,27.486 144.567,27.8139C 144.581,27.8415 144.595,27.8691 144.61,27.8967C 145.173,27.7206 145.737,27.5446 146.343,27.3553C 146.207,27.1392 146.114,26.9896 145.992,26.7947 Z M 144.581,25.0895L 144.581,25.0895C 144.04,25.4255 143.553,25.7287 143.066,26.032C 143.081,26.0616 143.097,26.0912 143.113,26.1209C 143.719,25.938 144.325,25.7553 144.993,25.5538C 144.835,25.3762 144.719,25.2453 144.581,25.0895 Z M 135.922,26.718L 135.922,26.718C 136.456,26.3812 136.934,26.0792 137.413,25.7769C 137.008,25.831 136.637,25.9543 136.269,26.084C 135.906,26.2119 135.906,26.2148 135.922,26.718 Z M 148.924,27.5003L 148.924,27.5003C 148.941,27.5242 148.958,27.5483 148.976,27.5723C 149.684,27.279 150.392,26.9857 151.099,26.6922C 151.082,26.648 151.066,26.6039 151.049,26.5599C 150.389,26.7997 149.728,27.0353 149.073,27.2859C 149.006,27.3117 148.973,27.4267 148.924,27.5003 Z M 136.03,28.662L 136.03,28.662C 136.432,28.377 136.794,28.1216 137.155,27.8661C 137.14,27.8398 137.125,27.8134 137.11,27.7873C 136.729,27.9278 136.348,28.0684 135.943,28.2177C 135.971,28.3618 135.995,28.4836 136.03,28.662 Z M 145.909,42.9078L 145.909,42.9078C 146.061,43.0353 146.165,43.123 146.277,43.2178C 146.541,42.9825 146.776,42.774 147.01,42.5652C 146.996,42.5457 146.982,42.5261 146.967,42.5067C 146.634,42.6329 146.301,42.7591 145.909,42.9078 Z M 151.817,39.3188L 151.817,39.3188C 152.118,39.384 152.342,39.315 152.42,38.9869C 152.219,39.0975 152.018,39.2082 151.817,39.3188 Z "/>
		<g>
			<path fill="#000000" fill-opacity="1" stroke-width="0.2" stroke-linejoin="round" d="M 33.4076,79.6683C 33.699,80.1052 34.0116,80.6168 34.3455,81.2029C 34.6794,81.789 35.0773,82.1301 35.5392,82.226C 36.026,82.1407 36.2551,81.8849 36.2267,81.4587L 35.9685,81.0324C 35.7247,77.2953 35.61,73.0041 35.6244,68.1588C 35.61,63.6953 35.7247,58.5925 35.9685,52.8502C 41.0197,56.3555 46.447,59.1984 52.2509,61.379C 58.0548,63.5595 63.6115,64.6827 68.9205,64.7485C 72.4156,64.7304 75.9586,63.9703 79.5496,62.4682C 83.1405,60.966 86.455,58.8301 89.493,56.0605C 90.5055,55.1024 91.4646,53.9658 92.3704,52.6507C 93.2762,51.3356 92.9139,51.188 91.2834,52.2082C 87.5735,54.9962 83.7242,57.3541 79.7355,59.2822C 75.7467,61.2103 71.6254,62.2153 67.3718,62.2975C 62.0555,62.1548 56.6208,60.835 51.068,58.338C 45.515,55.8409 40.5105,53.0225 36.0546,49.8828C 39.1663,50.6998 42.579,51.1083 46.2928,51.1083C 55.0094,50.544 62.1932,48.2525 67.8444,44.2335C 73.4954,40.2145 76.4205,35.1575 76.6194,29.0623C 76.6317,26.0793 75.8644,22.9689 74.317,19.7314C 70.8385,14.201 65.78,10.3279 59.1417,8.11249C 52.5032,5.89703 46.1267,4.92987 40.0123,5.21124C 40.1986,3.83295 40.4281,2.58246 40.7006,1.46002C 40.7058,0.754822 40.2219,0.268127 39.2487,-6.10352e-005C 38.2753,-0.26825 37.5548,-0.179443 37.087,0.266418C 36.7716,1.80096 36.4559,3.50616 36.1405,5.38177C 29.9221,5.8653 23.5751,7.62128 17.0996,10.6498C 10.624,13.6784 5.69177,18.1476 2.30261,24.0576C 0.755127,27.7192 -0.0123291,31.4233 0,35.1699C 0.00817871,39.3264 0.883179,42.9739 2.625,46.1125C 4.85071,49.247 7.4679,51.3115 10.4767,52.3061C 13.4854,53.3007 16.3202,53.754 18.9808,53.6658C 20.7933,53.6492 22.3014,53.5626 23.5048,53.4061C 24.7084,53.2496 25.4332,53.123 25.6798,53.0264C 26.0803,52.73 26.171,52.4876 25.9517,52.2991C 25.7323,52.1107 25.4098,52.0761 24.9838,52.1953C 23.7368,52.618 22.4028,52.8596 20.9818,52.9199C 15.6041,52.9507 11.1998,51.39 7.7688,48.2377C 4.33777,45.0854 2.56519,40.9556 2.45105,35.8484C 2.422,32.7099 3.26294,29.4017 4.974,25.9238C 8.48987,20.387 13.0291,16.2341 18.5917,13.4648C 24.1544,10.6955 30.0033,8.9389 36.1385,8.19489C 35.4348,13.5532 34.8395,19.5475 34.3524,26.1782C 33.8656,32.8088 33.4973,39.4819 33.2479,46.1973C 30.4629,45.2784 28.4935,44.4018 27.34,43.5677L 26.3136,42.5497C 25.8503,42.2476 25.4298,42.2582 25.0521,42.5816C 24.6744,42.905 24.5532,43.3185 24.6886,43.8222C 26.8273,46.0674 29.4779,48.2783 32.6404,50.4547C 32.5409,54.5452 32.484,58.4929 32.4698,62.2975C 32.4663,65.9106 32.5374,69.2293 32.683,72.2537C 32.8287,75.278 33.0702,77.7496 33.4076,79.6683 Z M 41.5609,7.68597C 42.4213,7.61298 43.2816,7.5838 44.142,7.59845C 49.6483,7.56317 54.8104,8.50385 59.6285,10.4202C 64.4467,12.3367 68.4044,15.4404 71.5017,19.7314C 73.2938,22.5447 74.1829,25.3157 74.1683,28.0444C 73.9945,33.3036 71.3524,37.8419 66.2424,41.6591C 61.1324,45.4764 54.5973,47.809 46.6371,48.6573C 42.9553,48.6699 39.5935,48.2175 36.5514,47.3001C 36.9006,40.0316 37.3722,32.959 37.9662,26.0828C 38.5602,19.2065 39.2233,13.1308 39.9553,7.85565L 41.5609,7.68597 Z "/>
			<path fill="#000000" fill-opacity="1" stroke-width="0.2" stroke-linejoin="round" d="M 115.463,49.1119C 116.519,48.752 117.113,48.3849 117.242,48.0108C 117.372,47.6367 116.836,47.4543 115.633,47.4638C 115.21,47.478 114.266,47.5349 112.798,47.6343C 111.331,47.7338 109.576,47.7906 107.534,47.8049C 105.516,47.819 103.413,47.7054 101.225,47.4638C 99.9143,45.8724 98.0715,44.8777 95.6965,44.4798C 94.8468,44.4532 94.2247,44.6343 93.8304,45.0234C 93.4363,45.4123 93.1615,45.9133 93.006,46.5259C 92.8615,46.5544 92.7167,46.5828 92.572,46.6113C 91.6512,47.0287 90.851,48.0489 90.171,49.6716C 89.491,51.2944 89.2719,53.0609 89.5135,54.9711C 89.6891,56.2559 90.2133,57.4444 91.0862,58.5368C 91.9589,59.6291 93.1775,60.2521 94.7418,60.4059C 96.7853,60.5251 98.5673,60.0386 100.088,58.9465C 101.609,57.8542 102.584,56.2089 103.015,54.0106C 103.257,52.6716 103.2,51.42 102.845,50.2558C 105.529,50.3636 108.047,50.2873 110.401,50.0272C 112.754,49.767 114.441,49.462 115.463,49.1119 Z M 94.3079,48.4583L 94.4813,48.2949C 95.7111,49.0165 97.3312,49.534 99.3417,49.8472C 99.9998,51.5439 99.9252,53.2894 99.1184,55.0839C 98.3114,56.8784 96.9396,57.8887 95.0022,58.1149C 93.3821,58.2917 92.3695,57.1564 91.9645,54.7092C 91.8383,53.4301 92.0442,52.1848 92.5818,50.9732C 93.1194,49.7617 93.6947,48.9234 94.3079,48.4583 Z "/>
			<path fill="#000000" fill-opacity="1" stroke-width="0.2" stroke-linejoin="round" d="M 114.918,59.7966C 116.31,60.2562 118.129,60.4859 120.374,60.4859C 122.709,60.4732 124.689,60.2689 126.316,59.8732C 127.315,59.5567 128.045,58.9595 128.506,58.0816C 128.968,57.2037 128.79,56.3356 127.974,55.4772C 126.482,54.2126 124.09,52.7348 120.8,51.0439C 119.891,50.543 119.088,50.0528 118.392,49.5733C 117.696,49.0937 117.447,48.5609 117.646,47.9747C 118.36,46.8753 120.036,45.941 122.674,45.1719C 125.312,44.4029 127.436,43.7457 129.049,43.2004C 129.332,42.7208 129.214,42.2093 128.695,41.6657C 128.175,41.1223 127.599,40.8665 126.964,40.8985C 124.549,41.2039 121.803,42.0211 118.725,43.3495C 115.648,44.6782 114.123,46.4756 114.15,48.742C 114.367,49.9765 114.957,50.9178 115.919,51.5661C 116.882,52.2144 117.941,52.8361 119.095,53.4311C 120.003,53.9249 121.129,54.5146 122.474,55.2001C 123.818,55.8858 125.051,56.5181 126.172,57.0971C 125.024,57.36 123.696,57.5803 122.186,57.7579C 120.676,57.9355 119.219,58.0279 117.816,58.035C 116.708,58.035 115.77,57.9496 115.003,57.7792C 114.115,57.648 113.738,57.8735 113.873,58.4556C 114.008,59.0379 114.356,59.4848 114.918,59.7966 Z "/>
			<path fill="#000000" fill-opacity="1" stroke-width="0.2" stroke-linejoin="round" d="M 153.524,58.4503L 151.441,59.9744C 147.066,63.2568 143.373,66.8162 140.363,70.6528C 137.352,74.4893 135.488,78.0914 134.771,81.4589C 134.576,83.0078 134.775,84.514 135.368,85.9776C 135.961,87.4411 136.842,88.7768 138.01,89.9846C 139.246,91.1942 140.593,92.1 142.051,92.7021C 143.509,93.3043 144.792,93.5068 145.901,93.3096C 149.508,92.3113 152.013,89.4695 153.417,84.784C 154.822,80.0984 155.626,74.9547 155.831,69.3526L 156.073,61.4238L 156.159,60.4007L 158.631,58.7038C 160.51,57.6024 162.635,56.4677 165.004,55.2999C 167.373,54.132 169.455,53.2764 171.249,52.7335C 171.974,52.6435 171.974,52.2839 171.249,51.6545C 169.906,50.9787 167.434,51.3774 163.832,52.8503C 160.23,54.3233 157.672,55.4977 156.159,56.3736L 156.073,56.4545L 156.073,56.1309C 156.018,53.6716 155.928,51.6713 155.803,50.1302C 155.678,48.5892 155.591,47.7554 155.543,47.6287C 155.472,47.1368 155.217,46.6927 154.777,46.2967C 154.337,45.9006 153.919,45.691 153.524,45.6679C 153.152,45.6679 152.902,45.7531 152.773,45.9236C 152.645,45.9805 152.645,46.0373 152.773,46.0942C 152.645,46.1652 152.56,46.2789 152.518,46.4352C 152.21,48.1926 150.788,50.5366 148.254,53.4671C 145.719,56.3978 143.457,57.5552 141.466,56.9398C 140.779,56.482 140.328,55.8001 140.114,54.894C 139.899,53.988 139.763,53.1778 139.705,52.4637C 139.831,51.1912 139.999,50.1196 140.208,49.2486C 140.641,48.3819 141.032,47.8987 141.382,47.7993C 141.843,47.5151 141.759,46.9752 141.13,46.1794C 140.343,45.4689 139.681,45.1848 139.145,45.3268C 138.468,45.6679 138.001,46.3499 137.744,47.373C 137.406,48.4955 137.243,49.6607 137.254,50.8685C 137.289,52.4046 137.499,53.7543 137.884,54.9177C 138.367,56.2529 139.165,57.3642 140.278,58.2516C 141.391,59.139 142.653,59.5995 144.064,59.6334C 145.5,59.5599 147.05,58.8718 148.716,57.5688C 150.382,56.2658 151.849,54.7889 153.117,53.1381L 153.524,58.4503 Z M 143.61,90.7519C 143.081,90.8709 142.463,90.782 141.754,90.4855C 141.045,90.1889 140.363,89.7377 139.707,89.132C 139.156,88.5263 138.668,87.7128 138.243,86.6916C 137.818,85.6702 137.713,84.4944 137.926,83.1641C 138.47,80.2707 139.99,77.1909 142.486,73.9245C 144.982,70.6581 147.986,67.429 151.5,64.2372L 153.452,62.4468C 153.476,68.7682 152.651,74.8179 150.976,80.5958C 149.301,86.3736 146.845,89.759 143.61,90.7519 Z "/>
			<path fill="#000000" fill-opacity="1" stroke-width="0.2" stroke-linejoin="round" d="M 211.495,58.4503L 209.411,59.9744C 205.036,63.2568 201.344,66.8162 198.333,70.6528C 195.323,74.4893 193.459,78.0914 192.742,81.4589C 192.546,83.0078 192.745,84.514 193.339,85.9776C 193.932,87.4411 194.812,88.7768 195.981,89.9846C 197.217,91.1942 198.563,92.1 200.022,92.7021C 201.48,93.3043 202.763,93.5068 203.871,93.3096C 207.478,92.3113 209.984,89.4695 211.388,84.784C 212.792,80.0984 213.597,74.9547 213.802,69.3526L 214.044,61.4238L 214.129,60.4007L 216.602,58.7038C 218.481,57.6024 220.605,56.4677 222.974,55.2999C 225.344,54.132 227.426,53.2764 229.219,52.7335C 229.944,52.6435 229.944,52.2839 229.219,51.6545C 227.877,50.9787 225.404,51.3774 221.802,52.8503C 218.2,54.3233 215.642,55.4977 214.129,56.3736L 214.044,56.4545L 214.044,56.1309C 213.989,53.6716 213.899,51.6713 213.774,50.1302C 213.648,48.5892 213.561,47.7554 213.513,47.6287C 213.443,47.1368 213.187,46.6927 212.747,46.2967C 212.307,45.9006 211.89,45.691 211.495,45.6679C 211.123,45.6679 210.872,45.7531 210.743,45.9236C 210.616,45.9805 210.616,46.0373 210.743,46.0942C 210.616,46.1652 210.531,46.2789 210.489,46.4352C 210.18,48.1926 208.759,50.5366 206.224,53.4671C 203.69,56.3978 201.427,57.5552 199.436,56.9398C 198.75,56.482 198.299,55.8001 198.084,54.894C 197.87,53.988 197.733,53.1778 197.676,52.4637C 197.802,51.1912 197.969,50.1196 198.179,49.2486C 198.612,48.3819 199.003,47.8987 199.352,47.7993C 199.813,47.5151 199.729,46.9752 199.101,46.1794C 198.314,45.4689 197.652,45.1848 197.115,45.3268C 196.438,45.6679 195.972,46.3499 195.715,47.373C 195.376,48.4955 195.213,49.6607 195.225,50.8685C 195.26,52.4046 195.47,53.7543 195.855,54.9177C 196.338,56.2529 197.136,57.3642 198.249,58.2516C 199.362,59.139 200.624,59.5995 202.035,59.6334C 203.47,59.5599 205.021,58.8718 206.687,57.5688C 208.353,56.2658 209.82,54.7889 211.088,53.1381L 211.495,58.4503 Z M 201.58,90.7519C 201.052,90.8709 200.433,90.782 199.724,90.4855C 199.016,90.1889 198.334,89.7377 197.678,89.132C 197.126,88.5263 196.638,87.7128 196.214,86.6916C 195.789,85.6702 195.683,84.4944 195.896,83.1641C 196.441,80.2707 197.961,77.1909 200.456,73.9245C 202.952,70.6581 205.957,67.429 209.471,64.2372L 211.422,62.4468C 211.447,68.7682 210.621,74.8179 208.946,80.5958C 207.271,86.3736 204.816,89.759 201.58,90.7519 Z "/>
			<path fill="#000000" fill-opacity="1" stroke-width="0.2" stroke-linejoin="round" d="M 278.643,48.7119C 274.712,48.2336 270.951,47.3129 267.359,45.95C 263.766,44.587 261.473,42.5444 260.478,39.822C 260.099,38.5561 259.909,37.2902 259.909,36.0244C 260.005,32.171 261.474,28.4848 264.316,24.9659C 267.158,21.447 270.8,18.1707 275.241,15.1374C 277.789,13.3519 281.007,11.68 284.895,10.1215C 288.783,8.56317 292.597,7.73273 296.336,7.63031C 299.403,7.60089 301.929,8.34833 303.915,9.8725C 305.397,11.3829 306.109,13.368 306.051,15.8278C 306.031,17.6601 305.708,19.6057 305.079,21.6645C 304.451,23.7233 303.636,25.7768 302.633,27.8249C 302.286,28.9272 302.467,29.3336 303.178,29.044C 303.889,28.7546 304.648,27.8879 305.454,26.4439C 307.363,22.4449 308.379,18.7911 308.502,15.4826C 308.568,12.9077 307.694,10.5485 305.882,8.40521C 302.619,6.18549 298.799,5.11017 294.425,5.17938C 290.787,5.19867 287.096,5.81549 283.352,7.0296C 279.608,8.24384 276.088,9.93939 272.792,12.1165C 268.592,14.873 265.019,18.2067 262.073,22.1176C 259.127,26.0286 257.588,30.2901 257.458,34.9023C 257.446,36.6429 257.686,38.4266 258.179,40.2535C 259.369,43.8047 262.049,46.369 266.216,47.9459C 270.384,49.5229 274.656,50.555 279.034,51.0423C 282.132,51.3632 285.427,51.8795 288.92,52.5909C 292.413,53.3023 295.474,54.4288 298.101,55.9702C 292.821,57.6813 287.884,59.6751 283.288,61.9515C 278.692,64.2277 274.823,66.7546 271.681,69.532C 268.699,72.1335 267.085,74.7776 266.836,77.4645C 266.941,80.0068 267.963,81.7873 269.899,82.8062C 271.836,83.825 274.055,84.3151 276.554,84.2763C 277.922,84.2457 279.205,84.1235 280.402,83.9097C 286.797,82.7672 292.565,80.4715 297.708,77.0226C 302.85,73.5739 305.571,69.2858 305.87,64.1584C 305.827,61.2868 304.975,58.9269 303.312,57.0789L 310.815,54.8613L 321.301,51.9608C 321.898,51.8817 321.983,51.7009 321.557,51.4183C 321.237,51.1292 320.214,51.0646 318.488,51.2247C 316.761,51.3847 313.948,51.8576 310.048,52.6436C 307.063,53.3117 304.08,54.1078 301.099,55.0318C 297.846,52.8882 294.061,51.3901 289.744,50.5375C 285.427,49.685 281.727,49.0765 278.643,48.7119 Z M 302.716,63.732C 302.134,68.5334 299.448,72.4499 294.656,75.4814C 289.864,78.5129 284.924,80.5102 279.834,81.4733C 278.133,81.8145 276.602,81.9852 275.241,81.9852C 273.43,81.9816 271.991,81.6901 270.924,81.1109C 269.857,80.5316 269.311,79.6857 269.286,78.5733C 269.201,76.7822 270.818,74.3939 274.135,71.4085C 276.658,69.1447 280.075,66.8914 284.385,64.6489C 288.695,62.4063 294.068,60.1957 300.504,58.0172C 301.922,59.5383 302.659,61.4432 302.716,63.732 Z "/>
			<path fill="#000000" fill-opacity="1" stroke-width="0.2" stroke-linejoin="round" d="M 330.156,60.4859C 333.153,60.2803 335.878,59.2831 338.33,57.4944C 340.783,55.7057 342.634,53.5599 343.883,51.0568C 344.51,49.804 344.833,48.8776 344.852,48.2775C 344.872,47.6773 344.407,47.8459 343.456,48.783C 341.659,50.7866 339.286,52.9229 336.338,55.1917C 333.389,57.4606 329.908,58.6926 325.894,58.8875C 324.345,58.7914 322.966,58.1644 321.759,57.006C 320.551,55.8478 319.855,54.7344 319.67,53.6658C 321.229,53.6553 322.757,53.2767 324.252,52.5297C 325.748,51.7828 326.807,50.7304 327.428,49.3725C 327.83,48.0966 327.581,46.9617 326.682,45.9678C 325.783,44.9739 324.64,44.4495 323.251,44.3948C 321.213,44.5568 319.684,45.3936 318.664,46.905C 317.644,48.4163 317.134,50.1371 317.134,52.0673C 317.145,52.7147 317.259,53.4182 317.474,54.1776C 318.284,56.9832 319.939,58.7885 322.44,59.5934C 324.94,60.3985 327.512,60.696 330.156,60.4859 Z M 324.615,47.2672C 325.039,47.7724 324.766,48.4882 323.794,49.4146C 322.823,50.341 321.419,51.2252 319.585,52.0673C 319.653,50.8354 320.259,49.5505 321.403,48.2126C 322.547,46.8747 323.618,46.5596 324.615,47.2672 Z "/>
			<path fill="#000000" fill-opacity="1" stroke-width="0.2" stroke-linejoin="round" d="M 343.902,58.6931C 344.19,59.378 344.765,59.8915 345.629,60.2336C 346.492,60.5755 346.959,60.4903 347.029,59.9777C 347.19,58.7805 347.303,57.9418 347.366,57.4619C 347.429,56.9819 347.52,56.593 347.638,56.295C 348.824,53.5556 350.778,51.158 353.499,49.102C 356.22,47.0461 358.728,45.9849 361.023,45.9188L 360.938,46.6008C 360.922,46.9774 361.145,47.2047 361.609,47.2828C 362.073,47.3609 362.616,47.0767 363.24,46.4302C 363.516,46.0359 363.41,45.5244 362.92,44.8957C 362.43,44.2669 361.683,43.8406 360.682,43.6168C 358.217,43.3984 355.708,44.1124 353.158,45.7589C 350.607,47.4053 348.738,48.9932 347.551,50.5225L 347.638,46.5313C 347.594,45.889 347.16,45.2894 346.334,44.7327C 345.882,44.5148 345.484,44.4149 345.14,44.4327C 344.796,44.4506 344.615,44.6076 344.597,44.904C 344.016,50.1517 343.706,53.7023 343.666,55.5562C 343.625,57.4101 343.704,58.4557 343.902,58.6931 Z "/>
			<path fill="#000000" fill-opacity="1" stroke-width="0.2" stroke-linejoin="round" d="M 368.189,90.5051C 369.423,91.5246 370.716,92.2293 372.068,92.6192C 373.42,93.0091 374.649,93.0965 375.754,92.8813C 379.437,92.067 382.101,89.3967 383.748,84.8705C 385.395,80.3444 386.36,75.2519 386.645,69.593L 386.901,61.5565L 386.986,60.5195L 389.459,58.7912C 391.338,57.686 393.462,56.5306 395.832,55.325C 398.201,54.1193 400.283,53.2294 402.077,52.6553C 402.844,52.5272 402.844,52.185 402.077,51.6292C 400.883,51.2827 398.453,51.8668 394.787,53.3814C 391.121,54.8961 388.521,56.0849 386.986,56.9479L 386.901,57.0296L 386.901,56.7028C 386.844,54.0215 386.745,51.8093 386.603,50.066C 386.461,48.3227 386.361,47.3807 386.304,47.2399C 386.175,46.5934 385.731,46.0535 384.972,45.6202C 384.213,45.1867 383.662,45.1583 383.318,45.5349C 383.098,46.3051 382.706,47.038 382.142,47.7337L 381.973,47.8155L 381.888,47.7337C 378.72,46.6171 376.017,46.0726 373.779,46.0998C 372.406,46.1118 371.264,46.2922 370.354,46.6411C 369.443,46.9899 368.636,47.4359 367.933,47.9788C 367.08,48.8686 366.654,49.9429 366.654,51.2016C 366.64,52.242 367.009,53.3253 367.762,54.4512C 368.374,55.3161 369.197,56.1212 370.231,56.8663C 370.4,57.0296 370.653,57.1931 370.991,57.3565C 371.85,57.7514 372.666,57.942 373.441,57.9284C 374.539,57.8603 375.468,57.6696 376.228,57.3565C 377.58,56.6722 378.998,55.6713 380.481,54.3538C 381.627,53.2927 382.602,52.2315 383.404,51.1702L 383.661,50.9913L 383.661,51.4512L 383.832,58.7048L 383.917,59.0505L 381.771,60.6059C 377.351,63.9112 373.622,67.4326 370.584,71.17C 367.545,74.9074 365.667,78.472 364.949,81.8637C 364.664,85.0898 365.745,87.9703 368.189,90.5051 Z M 373.863,91.2828C 373.327,91.3774 372.7,91.28 371.982,90.9905C 371.264,90.701 370.573,90.2512 369.908,89.6409C 369.35,89.027 368.856,88.2026 368.427,87.1673C 367.998,86.1321 367.89,84.9404 368.103,83.592C 368.633,80.6378 370.13,77.4728 372.595,74.0972C 375.059,70.7217 378.146,67.492 381.857,64.4081L 383.661,62.8526C 383.795,68.817 383.118,74.7543 381.63,80.6647C 380.142,86.575 377.553,90.1144 373.863,91.2828 Z M 371.92,55.4774C 371.442,55.4489 371.216,55.4203 371.244,55.3919L 370.653,54.9643C 370.118,54.2516 369.836,53.4536 369.808,52.5699C 369.78,51.7289 370.09,50.9308 370.738,50.1754C 371.695,49.1635 373.328,48.622 375.637,48.5507C 376.904,48.565 378.34,48.7929 379.945,49.2347L 380.537,49.4057L 379.692,50.3465L 377.833,52.1423C 376.397,53.3823 375.046,54.3229 373.779,54.9643C 373.117,55.3063 372.497,55.4774 371.92,55.4774 Z "/>
			<path fill="#000000" fill-opacity="1" stroke-width="0.2" stroke-linejoin="round" d="M 401.735,57.5777C 402.562,58.3951 403.507,58.9559 404.569,59.2602C 405.632,59.5644 406.704,59.6888 407.788,59.6334C 410.896,59.3085 413.972,58.0213 417.017,55.7719C 420.061,53.5225 422.072,51.5486 423.049,49.8504C 423.51,48.9233 423.653,48.3051 423.475,47.996C 423.297,47.6871 423.098,47.6231 422.878,47.8043C 421.386,49.314 418.914,51.1967 415.461,53.4525C 412.008,55.7082 408.854,56.9515 405.997,57.1824C 405.046,57.1824 404.221,56.9267 403.525,56.4151C 402.969,55.4969 402.909,53.5395 403.344,50.5432C 403.779,47.5467 404.209,45.696 404.633,44.9908C 404.69,44.465 404.236,43.982 403.269,43.5414C 402.147,43.2857 401.493,43.3709 401.308,43.7972C 400.838,44.5467 400.479,45.5201 400.232,46.7172C 399.985,47.9144 399.861,49.1861 399.859,50.5324C 399.857,51.9736 400.01,53.3328 400.317,54.6102C 400.625,55.8876 401.097,56.8768 401.735,57.5777 Z M 404.09,37.9478C 404.482,38.1591 404.874,38.2692 405.267,38.2781C 405.659,38.2869 405.927,38.2053 406.072,38.0331C 406.215,37.7596 406.404,37.3049 406.64,36.669C 406.875,36.0331 407.044,35.5784 407.146,35.3049C 407.352,34.7365 407.434,34.2534 407.393,33.8555C 407.492,33.3156 406.969,32.8609 405.824,32.4914C 405.391,32.3245 404.998,32.2747 404.647,32.3422C 404.296,32.4097 404.11,32.5732 404.09,32.8325L 403.919,34.1113C 403.816,34.3813 403.66,34.8005 403.45,35.3688C 403.241,35.9372 403.084,36.3138 402.981,36.4985C 402.777,36.6867 402.781,36.9283 402.992,37.2232C 403.203,37.518 403.569,37.7596 404.09,37.9478 Z "/>
			<path fill="#000000" fill-opacity="1" stroke-width="0.2" stroke-linejoin="round" d="M 446.237,49.1119C 447.293,48.752 447.887,48.3849 448.016,48.0108C 448.146,47.6367 447.61,47.4543 446.407,47.4638C 445.984,47.478 445.039,47.5349 443.572,47.6343C 442.105,47.7338 440.35,47.7906 438.308,47.8049C 436.29,47.819 434.187,47.7054 431.999,47.4638C 430.688,45.8724 428.845,44.8777 426.47,44.4798C 425.621,44.4532 424.999,44.6343 424.604,45.0234C 424.21,45.4123 423.935,45.9133 423.78,46.5259C 423.635,46.5544 423.491,46.5828 423.346,46.6113C 422.425,47.0287 421.625,48.0489 420.945,49.6716C 420.265,51.2944 420.046,53.0609 420.287,54.9711C 420.463,56.2559 420.987,57.4444 421.86,58.5368C 422.733,59.6291 423.951,60.2521 425.516,60.4059C 427.559,60.5251 429.341,60.0386 430.862,58.9465C 432.383,57.8542 433.358,56.2089 433.789,54.0106C 434.031,52.6716 433.974,51.42 433.619,50.2558C 436.302,50.3636 438.821,50.2873 441.175,50.0272C 443.528,49.767 445.215,49.462 446.237,49.1119 Z M 425.082,48.4583L 425.255,48.2949C 426.485,49.0165 428.105,49.534 430.116,49.8472C 430.774,51.5439 430.699,53.2894 429.892,55.0839C 429.086,56.8784 427.714,57.8887 425.776,58.1149C 424.156,58.2917 423.143,57.1564 422.738,54.7092C 422.612,53.4301 422.818,52.1848 423.356,50.9732C 423.893,49.7617 424.469,48.9234 425.082,48.4583 Z "/>
		</g>
	</g>
</svg>
