<?xml version="1.0" encoding="utf-8"?>
<!DOCTYPE svg PUBLIC "-//W3C//DTD SVG 1.1//EN" "http://www.w3.org/Graphics/SVG/1.1/DTD/svg11.dtd">
<svg xmlns="http://www.w3.org/2000/svg" xmlns:xlink="http://www.w3.org/1999/xlink" version="1.1" baseProfile="full" width="153.662" height="132.27" viewBox="0 0 153.66 132.27" enable-background="new 0 0 153.66 132.27" xml:space="preserve">
	<g>
		<path fill="#000000" fill-opacity="1" stroke-width="0.2" stroke-linejoin="round" d="M 69.3292,73.0481L 68.4463,73.6941C 66.5922,75.0853 65.027,76.594 63.7509,78.2201C 62.4747,79.8462 61.6847,81.3729 61.3809,82.8003C 61.2982,83.4568 61.3824,84.0951 61.6338,84.7154C 61.8853,85.3357 62.2587,85.9019 62.7539,86.4138C 63.2775,86.9265 63.8485,87.3104 64.4664,87.5657C 65.0845,87.8208 65.6284,87.9066 66.0981,87.8231C 67.627,87.4 68.6888,86.1955 69.2841,84.2095C 69.8793,82.2236 70.2202,80.0434 70.307,77.669L 70.4098,74.3084L 70.4459,73.8748L 71.4938,73.1555C 72.2904,72.6887 73.1908,72.2078 74.1949,71.7128C 75.1992,71.2178 76.0815,70.8552 76.8419,70.625C 77.149,70.5869 77.149,70.4344 76.8419,70.1677C 76.2728,69.8813 75.225,70.0503 73.6981,70.6746C 72.1714,71.2989 71.0874,71.7967 70.4459,72.1678L 70.4098,72.2022L 70.4098,72.065C 70.3866,71.0227 70.3483,70.1749 70.2953,69.5217C 70.2421,68.8685 70.2052,68.5151 70.1849,68.4615C 70.1549,68.2529 70.0468,68.0647 69.8602,67.8968C 69.6737,67.729 69.4967,67.6401 69.3292,67.6304C 69.1718,67.6304 69.0656,67.6665 69.0107,67.7388C 68.9569,67.7628 68.9569,67.7869 69.0107,67.811C 68.9569,67.8411 68.9209,67.8893 68.903,67.9556C 68.7721,68.7004 68.1698,69.6939 67.0956,70.936C 66.0214,72.1781 65.0621,72.6687 64.2183,72.4078C 63.9274,72.2139 63.7365,71.9249 63.6454,71.5408C 63.5543,71.1567 63.4966,70.8133 63.4722,70.5107C 63.5255,69.9713 63.5966,69.5171 63.6854,69.148C 63.869,68.7806 64.0347,68.5759 64.1827,68.5337C 64.3783,68.4133 64.3427,68.1844 64.0762,67.8472C 63.7427,67.546 63.462,67.4256 63.2347,67.4858C 62.9478,67.6304 62.75,67.9194 62.6411,68.353C 62.4977,68.8288 62.4283,69.3226 62.4335,69.8346C 62.4482,70.4856 62.5372,71.0577 62.7006,71.5508C 62.9052,72.1167 63.2433,72.5878 63.7152,72.9639C 64.1869,73.34 64.7217,73.5352 65.3197,73.5495C 65.9281,73.5184 66.5854,73.2267 67.2915,72.6744C 67.9977,72.1222 68.6195,71.4962 69.1569,70.7966L 69.3292,73.0481 Z M 65.1273,86.7391C 64.9032,86.7894 64.641,86.7518 64.3407,86.6261C 64.0402,86.5004 63.751,86.3091 63.4731,86.0525C 63.2393,85.7957 63.0323,85.451 62.8524,85.0181C 62.6724,84.5852 62.6276,84.0868 62.7179,83.523C 62.9487,82.2966 63.5929,80.9912 64.6508,79.6067C 65.7085,78.2223 66.9821,76.8537 68.4713,75.5008L 69.2987,74.742C 69.3091,77.4214 68.9594,79.9855 68.2491,82.4344C 67.5392,84.8833 66.4985,86.3182 65.1273,86.7391 Z "/>
	</g>
	<g>
		<g>
			<g>
				<path fill="#000000" fill-opacity="1" stroke-width="0.2" stroke-linejoin="round" d="M 29.2192,69.68C 29.474,70.0622 29.7474,70.5096 30.0394,71.0223C 30.3315,71.5349 30.6796,71.8332 31.0835,71.917C 31.5093,71.8425 31.7096,71.6188 31.6847,71.246L 31.459,70.8731C 31.2457,67.6046 31.1455,63.8514 31.1581,59.6135C 31.1455,55.7097 31.2457,51.2466 31.459,46.2242C 35.8768,49.2901 40.6239,51.7767 45.7001,53.6837C 50.7762,55.5909 55.6362,56.5732 60.2798,56.6307C 63.3365,56.615 66.4354,55.9502 69.576,54.6363C 72.7168,53.3226 75.6157,51.4545 78.2729,49.032C 79.1583,48.1941 79.9972,47.1999 80.7896,46.0497C 81.5819,44.8995 81.265,44.7706 79.8389,45.6627C 76.5941,48.1011 73.2274,50.1634 69.7388,51.8498C 66.25,53.5361 62.6455,54.4153 58.9252,54.4871C 54.2754,54.3624 49.5221,53.208 44.6654,51.024C 39.8086,48.84 35.4315,46.375 31.5342,43.6288C 34.2557,44.3434 37.2407,44.7007 40.4889,44.7007C 48.1127,44.2073 54.3959,42.2029 59.3384,38.6879C 64.2811,35.1727 66.8394,30.7497 67.0132,25.4187C 67.024,22.8097 66.3529,20.0893 64.9995,17.2577C 61.9572,12.4206 57.5331,9.03325 51.7267,7.0955C 45.9205,5.15776 40.3436,4.31187 34.9957,4.55797C 35.1588,3.35252 35.3594,2.25883 35.5977,1.27696C 35.6024,0.660263 35.1792,0.234604 34.3278,4.57764e-005C 33.4766,-0.234512 32.8463,-0.156876 32.4371,0.233017C 32.1613,1.57524 31.8854,3.06664 31.6095,4.70708C 26.1708,5.12999 20.6195,6.66588 14.9557,9.31474C 9.29211,11.9636 4.97815,15.8725 2.01392,21.0415C 0.660522,24.244 -0.0108643,27.4837 0,30.7605C 0.00720215,34.396 0.772461,37.5862 2.2959,40.3313C 4.24255,43.0728 6.53162,44.8785 9.16321,45.7483C 11.7947,46.6182 14.274,47.0147 16.6012,46.9376C 18.1864,46.9231 19.5054,46.8473 20.558,46.7104C 21.6105,46.5735 22.2446,46.4629 22.4603,46.3784C 22.8105,46.1192 22.8898,45.9071 22.6979,45.7423C 22.5062,45.5774 22.224,45.5472 21.8514,45.6514C 20.7607,46.0211 19.5941,46.2324 18.3512,46.2852C 13.6478,46.3121 9.79565,44.9471 6.7948,42.19C 3.79395,39.4329 2.24353,35.8209 2.14368,31.3541C 2.11829,28.609 2.85388,25.7156 4.35034,22.6736C 7.42542,17.8311 11.3955,14.1988 16.2607,11.7767C 21.126,9.35472 26.2417,7.81834 31.6078,7.16753C 30.9922,11.854 30.4716,17.0969 30.0455,22.8962C 29.6198,28.6955 29.2977,34.532 29.0795,40.4055C 26.6436,39.6018 24.9213,38.8351 23.9122,38.1055L 23.0146,37.2152C 22.6094,36.951 22.2416,36.9603 21.9113,37.243C 21.5809,37.5259 21.475,37.8876 21.5933,38.3282C 23.4639,40.2919 25.7821,42.2256 28.5482,44.129C 28.4611,47.7068 28.4115,51.1595 28.3989,54.4871C 28.3959,57.6472 28.458,60.5499 28.5854,63.1951C 28.7128,65.8402 28.9242,68.0019 29.2192,69.68 Z M 36.3502,6.7224C 37.1027,6.65855 37.8551,6.6331 38.6078,6.64586C 43.4237,6.61504 47.9386,7.43773 52.1527,9.11388C 56.3667,10.7901 59.8281,13.5047 62.5372,17.2577C 64.1049,19.7183 64.8822,22.142 64.8696,24.5284C 64.7174,29.1284 62.4067,33.0976 57.9374,36.4363C 53.4679,39.7749 47.7521,41.8152 40.79,42.5571C 37.5698,42.568 34.6295,42.1723 31.9688,41.37C 32.2743,35.0127 32.6866,28.827 33.2062,22.8128C 33.7256,16.7986 34.3057,11.4846 34.9459,6.87083L 36.3502,6.7224 Z "/>
			</g>
			<g>
				<path fill="#000000" fill-opacity="1" stroke-width="0.2" stroke-linejoin="round" d="M 98.9547,101.165C 95.5166,100.746 92.2267,99.9412 89.0848,98.7491C 85.943,97.557 83.9371,95.7704 83.067,93.3894C 82.7352,92.2822 82.5692,91.1751 82.5692,90.0679C 82.6528,86.6976 83.9376,83.4736 86.4238,80.3959C 88.9098,77.3182 92.0948,74.4527 95.9789,71.7996C 98.2076,70.238 101.022,68.7757 104.423,67.4126C 107.823,66.0496 111.159,65.3233 114.429,65.2337C 117.112,65.2081 119.321,65.8617 121.058,67.1948C 122.354,68.5159 122.977,70.2521 122.926,72.4035C 122.909,74.0061 122.626,75.7077 122.077,77.5084C 121.527,79.3091 120.814,81.1052 119.937,82.8965C 119.633,83.8605 119.792,84.2159 120.413,83.9627C 121.035,83.7095 121.699,82.9515 122.404,81.6886C 124.074,78.191 124.962,74.9952 125.07,72.1015C 125.127,69.8495 124.363,67.7861 122.778,65.9114C 119.924,63.9701 116.584,63.0296 112.757,63.0901C 109.576,63.107 106.348,63.6463 103.073,64.7084C 99.798,65.7703 96.7194,67.2534 93.8373,69.1575C 90.1639,71.5684 87.0387,74.4842 84.4618,77.9048C 81.8848,81.3253 80.5394,85.0526 80.4254,89.0865C 80.415,90.6089 80.6251,92.169 81.056,93.7668C 82.0973,96.8729 84.4404,99.1155 88.0856,100.495C 91.7308,101.874 95.4677,102.777 99.2964,103.203C 102.006,103.484 104.888,103.935 107.943,104.557C 110.998,105.18 113.675,106.165 115.973,107.513C 111.355,109.01 107.036,110.753 103.017,112.744C 98.9972,114.735 95.6133,116.945 92.8651,119.375C 90.2577,121.65 88.8451,123.963 88.6274,126.313C 88.7198,128.536 89.6132,130.093 91.3071,130.984C 93.0011,131.876 94.9413,132.304 97.1276,132.27C 98.3242,132.244 99.4459,132.137 100.493,131.95C 106.086,130.95 111.131,128.942 115.629,125.926C 120.126,122.91 122.506,119.159 122.768,114.675C 122.731,112.163 121.985,110.099 120.531,108.483L 127.093,106.543L 136.265,104.006C 136.786,103.937 136.861,103.779 136.488,103.532C 136.209,103.279 135.314,103.223 133.804,103.363C 132.294,103.502 129.833,103.916 126.422,104.604C 123.811,105.188 121.203,105.884 118.595,106.692C 115.75,104.817 112.439,103.507 108.663,102.762C 104.888,102.016 101.651,101.484 98.9547,101.165 Z M 120.009,114.302C 119.5,118.501 117.151,121.927 112.96,124.578C 108.769,127.23 104.448,128.976 99.9962,129.819C 98.5083,130.117 97.1691,130.266 95.9789,130.266C 94.3949,130.263 93.1362,130.008 92.2031,129.502C 91.2701,128.995 90.7928,128.255 90.771,127.282C 90.6967,125.716 92.1102,123.627 95.0117,121.016C 97.2188,119.036 100.207,117.065 103.976,115.104C 107.746,113.142 112.445,111.209 118.075,109.303C 119.315,110.634 119.959,112.3 120.009,114.302 Z "/>
			</g>
		</g>
		<g>
			<g>
				<path fill="#E2B7FF" fill-opacity="1" stroke-width="0.2" stroke-linejoin="miter" d="M 138.742,121.557C 138.384,122.596 137.828,123.694 138.653,124.636C 139.213,125.635 140.328,125.602 141.244,125.695C 141.976,125.323 142.461,124.419 142.871,123.841C 142.389,122.385 142.246,120.545 140.562,119.84C 139.644,119.879 139.093,120.781 138.742,121.557 Z "/>
				<path fill="#694249" fill-opacity="1" stroke-width="0.2" stroke-linejoin="miter" d="M 139.326,121.771L 139.742,120.996C 140.852,121.16 140.409,122.852 141.464,122.62C 141.811,121.975 141.506,121.179 141.395,120.521C 141.726,120.398 141.973,120.93 142.374,120.68C 142.153,119.231 140.541,118.332 139.314,117.706C 138.824,116.512 138.541,114.996 137.248,114.368L 137.115,114.429C 137.67,115.626 138.354,116.891 138.449,118.14C 138.312,118.332 138.052,118.26 138.046,118.456C 138.771,118.346 138.549,119.191 138.407,119.581C 137.925,120.353 138.029,121.274 137.355,121.91C 137.797,122.513 136.481,122.671 136.988,123.276C 137.847,123.039 138.715,122.474 139.326,121.771 Z "/>
			</g>
			<g>
				<path fill="#E2B7FF" fill-opacity="1" stroke-width="0.2" stroke-linejoin="miter" d="M 148.523,109.912C 148.694,110.769 148.933,111.563 149.708,111.978C 150.61,112.529 151.788,112.564 152.782,112.199C 153.657,111.438 153.698,110.062 153.662,109.013C 152.703,108.198 151.568,106.657 150.104,107.401C 149.555,108.237 148.683,108.933 148.523,109.912 Z "/>
				<path fill="#694249" fill-opacity="1" stroke-width="0.2" stroke-linejoin="miter" d="M 150.59,113.184C 150.411,112.589 149.7,112.24 149.654,111.583C 149.594,111.385 149.334,111.312 149.471,111.119C 150.2,110.813 151.686,111.577 151.723,110.332C 150.746,110.108 149.909,109.559 149.141,108.946C 149.555,108.237 150.616,107.809 150.637,107.089L 150.317,106.817C 148.279,107.02 146.721,108.745 144.699,108.423L 144.168,108.604C 144.295,108.739 144.426,108.743 144.552,108.943L 143.492,109.306C 144.662,109.668 146.779,109.008 147.454,110.601C 148.28,111.478 149.099,112.616 150.126,113.367C 150.32,113.439 150.455,113.311 150.59,113.184 Z "/>
			</g>
			<g>
				<path fill="#E2B7FF" fill-opacity="1" stroke-width="0.2" stroke-linejoin="miter" d="M 137.819,83.573C 137.599,84.3533 137.378,85.1993 138.018,85.7422C 138.016,85.8077 137.953,85.7403 137.887,85.7383C 138.265,86.274 139.115,86.3641 139.708,86.2506C 140.836,85.7589 142.108,84.8782 142.215,83.439C 141.849,82.5106 140.951,81.829 140.115,81.2798C 138.805,81.2417 138.434,82.7383 137.819,83.573 Z "/>
				<path fill="#694249" fill-opacity="1" stroke-width="0.2" stroke-linejoin="miter" d="M 140.005,87.308C 140.673,86.8687 141.651,87.0285 142.256,86.5213C 141.494,85.7123 140.186,85.609 139.07,85.642C 138.758,85.1078 138.586,84.2508 138.865,83.6691C 138.871,83.4727 138.68,83.2705 138.482,83.3299C 138.023,83.3169 138.073,83.8428 137.939,83.9697C 137.54,86.3838 137.728,88.9462 136.551,91.0753L 136.939,91.2828C 138.025,90.0035 137.903,87.443 140.005,87.308 Z "/>
			</g>
			<g>
				<path fill="#E2B7FF" fill-opacity="1" stroke-width="0.2" stroke-linejoin="miter" d="M 129.514,80.6426C 129.672,81.9586 130.352,83.3551 131.645,83.9829C 132.495,84.0733 133.724,84.6333 133.897,83.1963C 134.527,81.8378 133.582,80.4993 133.226,79.2433C 132.591,78.5039 131.75,78.1514 130.827,78.3208C 130.346,79.0939 129.995,79.8703 129.514,80.6426 Z "/>
				<path fill="#694249" fill-opacity="1" stroke-width="0.2" stroke-linejoin="miter" d="M 134.804,90.3028C 135.025,89.4569 133.994,88.837 134.416,87.8661C 134.312,86.9451 134.155,85.5636 134.903,84.668C 134.673,83.5469 135.16,82.5774 135.515,81.6704C 135.394,81.3386 134.864,81.52 134.598,81.6432C 133.789,82.4067 133.433,83.3793 133.206,84.4215C 132.813,84.4103 132.635,83.7491 132.181,83.6051C 131.598,83.3255 130.969,82.4549 130.365,82.8965C 130.221,83.3511 130.809,83.4336 130.797,83.8269C 131.233,84.6263 131.792,85.691 132.836,85.8531C 133.318,87.3096 133.47,88.8218 134.282,90.2219C 134.547,90.0989 134.604,90.4283 134.804,90.3028 Z "/>
			</g>
			<g>
				<path fill="#FA8585" fill-opacity="1" stroke-width="0.2" stroke-linejoin="miter" d="M 132.531,91.8094C 131.939,91.8581 131.371,91.1204 130.639,91.4927C 129.025,92.8873 128.756,95.3708 129.221,97.4165C 130.28,99.283 131.926,101.298 133.795,102.401C 136.74,100.324 137.564,96.8081 137.006,93.4485C 136.317,92.3789 135.7,91.0499 134.473,90.4243C 133.679,90.6632 133.07,91.3011 132.531,91.8094 Z "/>
				<path fill="#FA8585" fill-opacity="1" stroke-width="0.2" stroke-linejoin="miter" d="M 138.389,97.75C 138.023,99.0501 137.076,100.072 136.97,101.445L 136.755,102.029C 137.889,103.636 139.417,105.187 141.374,105.507C 143.536,105.57 145.335,104.574 146.568,102.775C 146.779,102.256 146.797,101.666 146.877,101.144C 146.242,100.47 144.677,100.162 145.303,98.935L 145.605,97.5672C 144.863,96.0379 143.376,95.3391 141.879,94.9675C 139.987,94.6498 139.146,96.5264 138.389,97.75 Z "/>
				<path fill="#FA8585" fill-opacity="1" stroke-width="0.2" stroke-linejoin="miter" d="M 121.846,100.741C 121.498,101.452 122.454,102.398 121.71,103.163C 120.259,103.448 121.537,104.6 121.714,105.26C 122.921,106.607 124.68,106.986 126.313,107.165C 127.893,106.949 129.172,105.807 130.632,105.193C 131.305,104.623 132.566,104.07 132.14,102.943C 131.4,101.348 130.007,99.6687 128.327,98.8324C 126.119,98.1127 122.646,98.0769 121.846,100.741 Z "/>
				<path fill="#FA8585" fill-opacity="1" stroke-width="0.2" stroke-linejoin="miter" d="M 135.537,107.828C 134.64,109.375 135.446,110.972 135.531,112.548C 136.858,114.225 138.229,116.691 140.925,116.377L 141.257,116.255C 142.014,115.031 142.208,112.874 144.233,113.13C 144.67,111.635 144.72,109.932 143.906,108.597C 142.339,106.125 139.452,106.238 137.049,105.447C 135.547,105.271 135.956,106.988 135.537,107.828 Z "/>
				<path fill="#FA8585" fill-opacity="1" stroke-width="0.2" stroke-linejoin="miter" d="M 126.946,107.97C 125.517,109.764 125.313,112.249 125.968,114.498L 127.596,114.873C 127.91,115.34 128.223,115.874 128.205,116.464C 129.687,117.359 131.542,116.692 132.875,115.945C 134.221,114.738 134.81,112.527 134.338,110.743C 134.359,110.023 134.378,109.367 134.27,108.577C 133.974,107.52 133.546,106.459 133.115,105.463C 130.813,105.723 129.001,107.178 126.946,107.97 Z "/>
				<g>
					<path fill="#694249" fill-opacity="1" stroke-width="0.2" stroke-linejoin="miter" d="M 133.831,108.145C 133.837,107.977 133.842,107.768 133.633,107.762C 133.425,107.713 133.375,107.964 133.288,108.087L 133.401,108.51C 133.57,108.473 133.826,108.355 133.831,108.145 Z "/>
					<path fill="#694249" fill-opacity="1" stroke-width="0.2" stroke-linejoin="miter" d="M 135.299,108.188C 135.266,107.894 135.4,107.604 135.025,107.509C 134.776,107.418 134.602,107.622 134.47,107.828C 134.589,108.042 134.289,108.284 134.622,108.378C 134.872,108.427 135.167,108.394 135.299,108.188 Z "/>
					<path fill="#694249" fill-opacity="1" stroke-width="0.2" stroke-linejoin="miter" d="M 136.354,107.967C 136.401,107.801 136.323,107.589 136.157,107.542C 135.988,107.579 135.776,107.657 135.77,107.866C 135.718,108.2 136.297,108.469 136.354,107.967 Z "/>
					<path fill="#694249" fill-opacity="1" stroke-width="0.2" stroke-linejoin="miter" d="M 132.84,107.613C 132.891,107.321 132.56,107.143 132.352,107.095C 132.018,107.044 132.05,107.38 131.961,107.545C 131.869,107.836 132.204,107.846 132.37,107.935C 132.617,108.068 132.793,107.779 132.84,107.613 Z "/>
					<path fill="#694249" fill-opacity="1" stroke-width="0.2" stroke-linejoin="miter" d="M 134.583,106.824C 134.548,106.613 134.513,106.361 134.263,106.312C 134.095,106.307 133.967,106.387 133.88,106.51C 134.039,106.809 133.611,107.09 134.026,107.228C 134.317,107.32 134.494,107.032 134.583,106.824 Z "/>
					<path fill="#694249" fill-opacity="1" stroke-width="0.2" stroke-linejoin="miter" d="M 137.899,106.795C 137.948,106.545 137.7,106.412 137.534,106.365C 137.117,106.269 137.062,106.729 136.928,106.977C 137.123,107.486 137.722,107.084 137.899,106.795 Z "/>
					<path fill="#694249" fill-opacity="1" stroke-width="0.2" stroke-linejoin="miter" d="M 136.269,106.58C 136.233,106.369 136.157,106.115 135.906,106.066C 135.614,106.015 135.604,106.351 135.432,106.514C 135.381,106.806 135.545,106.937 135.753,107.026C 136.043,107.119 136.179,106.788 136.269,106.58 Z "/>
					<path fill="#694249" fill-opacity="1" stroke-width="0.2" stroke-linejoin="miter" d="M 131.53,106.484C 131.578,106.275 131.458,106.104 131.334,106.016C 131.208,106.055 131.039,106.091 130.993,106.217L 131.02,106.721C 131.271,106.77 131.359,106.605 131.53,106.484 Z "/>
					<path fill="#694249" fill-opacity="1" stroke-width="0.2" stroke-linejoin="miter" d="M 133.017,105.856C 133.067,105.605 132.776,105.513 132.739,105.344C 132.449,105.21 132.147,105.495 132.014,105.743C 132.052,105.869 131.918,106.159 132.169,106.167C 132.466,106.05 133.005,106.275 133.017,105.856 Z "/>
					<path fill="#694249" fill-opacity="1" stroke-width="0.2" stroke-linejoin="miter" d="M 138.424,106.056C 138.387,105.886 138.265,105.757 138.098,105.71C 137.932,105.664 137.926,105.873 137.839,105.954C 137.794,106.079 137.916,106.208 138.041,106.254C 138.207,106.301 138.336,106.179 138.424,106.056 Z "/>
					<path fill="#694249" fill-opacity="1" stroke-width="0.2" stroke-linejoin="miter" d="M 137.698,105.07C 137.662,104.858 137.625,104.689 137.375,104.598C 137.123,104.633 136.866,104.793 136.817,105.086C 136.81,105.295 136.8,105.631 137.051,105.638C 137.346,105.605 137.605,105.36 137.698,105.07 Z "/>
					<path fill="#694249" fill-opacity="1" stroke-width="0.2" stroke-linejoin="miter" d="M 131.032,104.875C 131.038,104.665 131.089,104.373 130.84,104.282C 130.51,104.104 130.414,104.479 130.284,104.643C 130.235,104.852 130.397,105.066 130.607,105.072C 130.775,105.035 130.984,105.083 131.032,104.875 Z "/>
					<path fill="#694249" fill-opacity="1" stroke-width="0.2" stroke-linejoin="miter" d="M 138.978,104.31C 139.027,104.101 138.818,104.053 138.651,104.007C 138.397,104.083 138.265,104.33 138.257,104.582C 138.209,104.791 138.289,104.919 138.498,104.966C 138.792,104.933 138.889,104.517 138.978,104.31 Z "/>
					<path fill="#694249" fill-opacity="1" stroke-width="0.2" stroke-linejoin="miter" d="M 132.815,104.172C 132.952,103.798 132.751,103.498 132.464,103.281C 132.045,103.226 131.907,103.642 131.814,103.974C 131.755,104.56 132.636,104.544 132.815,104.172 Z "/>
					<path fill="#694249" fill-opacity="1" stroke-width="0.2" stroke-linejoin="miter" d="M 130.911,103.277C 130.957,103.152 130.836,102.981 130.711,102.935C 130.545,102.888 130.458,103.012 130.37,103.135C 130.319,103.427 130.817,103.61 130.911,103.277 Z "/>
					<path fill="#694249" fill-opacity="1" stroke-width="0.2" stroke-linejoin="miter" d="M 138.169,103.279C 138.302,103.031 138.188,102.65 137.896,102.6C 137.73,102.511 137.517,102.631 137.387,102.753C 137.256,102.958 137.165,103.208 137.369,103.382C 137.573,103.598 138.077,103.57 138.169,103.279 Z "/>
					<path fill="#694249" fill-opacity="1" stroke-width="0.2" stroke-linejoin="miter" d="M 139.145,102.93C 139.154,102.595 138.989,102.506 138.65,102.622C 138.436,102.783 138.469,103.078 138.588,103.333C 138.798,103.297 139.013,103.136 139.145,102.93 Z "/>
					<path fill="#694249" fill-opacity="1" stroke-width="0.2" stroke-linejoin="miter" d="M 131.738,102.252C 131.743,102.084 131.58,101.912 131.414,101.865C 131.166,101.732 130.866,101.933 130.859,102.185C 130.843,102.729 131.68,102.796 131.738,102.252 Z "/>
					<path fill="#694249" fill-opacity="1" stroke-width="0.2" stroke-linejoin="miter" d="M 133.599,101.761C 133.693,101.387 133.234,101.331 132.985,101.198C 132.734,101.19 132.684,101.483 132.511,101.645C 132.545,101.898 132.705,102.197 132.997,102.247C 133.331,102.299 133.59,102.054 133.599,101.761 Z "/>
					<path fill="#694249" fill-opacity="1" stroke-width="0.2" stroke-linejoin="miter" d="M 138.597,101.571C 138.692,101.196 138.49,100.939 138.2,100.805C 137.82,100.877 137.974,101.343 137.84,101.633C 137.912,102.055 138.584,101.991 138.597,101.571 Z "/>
					<path fill="#694249" fill-opacity="1" stroke-width="0.2" stroke-linejoin="miter" d="M 137.004,101.525C 137.005,101.483 136.97,101.272 137.135,101.36C 137.015,101.148 136.73,100.845 136.438,100.795C 136.139,100.954 136.044,101.329 136.08,101.54C 136.158,101.752 136.413,101.633 136.534,101.805C 136.745,101.769 136.914,101.732 137.004,101.525 Z "/>
					<path fill="#694249" fill-opacity="1" stroke-width="0.2" stroke-linejoin="miter" d="M 132.199,100.839C 132.247,100.631 132.125,100.502 132,100.456C 131.834,100.409 131.703,100.573 131.657,100.697C 131.561,101.114 132.304,101.556 132.199,100.839 Z "/>
					<path fill="#694249" fill-opacity="1" stroke-width="0.2" stroke-linejoin="miter" d="M 135.153,100.254C 135.157,100.128 135.034,99.9988 134.867,99.994C 134.535,99.858 134.4,100.19 134.268,100.396C 134.262,100.605 134.424,100.778 134.589,100.867C 134.884,100.833 135.226,100.634 135.153,100.254 Z "/>
					<path fill="#694249" fill-opacity="1" stroke-width="0.2" stroke-linejoin="miter" d="M 137.92,100.335C 138.008,100.17 137.886,100.04 137.763,99.9526C 137.555,99.9046 137.466,100.07 137.379,100.193C 137.415,100.404 137.239,100.651 137.49,100.7C 137.741,100.707 137.832,100.458 137.92,100.335 Z "/>
					<path fill="#694249" fill-opacity="1" stroke-width="0.2" stroke-linejoin="miter" d="M 133.567,99.9559C 133.703,99.6243 133.374,99.4048 133.123,99.3555C 132.917,99.2656 132.742,99.4703 132.654,99.6358C 132.645,99.9294 132.89,100.188 133.138,100.279C 133.348,100.285 133.437,100.12 133.567,99.9559 Z "/>
					<path fill="#694249" fill-opacity="1" stroke-width="0.2" stroke-linejoin="miter" d="M 136.43,99.6201C 136.436,99.4104 136.271,99.3219 136.107,99.1907C 135.859,99.058 135.724,99.3897 135.594,99.5121C 135.544,99.8042 135.751,99.8938 135.957,100.026C 136.166,100.032 136.504,99.9577 136.43,99.6201 Z "/>
					<path fill="#694249" fill-opacity="1" stroke-width="0.2" stroke-linejoin="miter" d="M 134.808,99.1531C 134.812,98.985 134.777,98.774 134.611,98.6858C 134.486,98.6824 134.275,98.7182 134.227,98.9261C 134.176,99.2188 134.864,100.078 134.808,99.1531 Z "/>
				</g>
			</g>
		</g>
		<g>
			<g>
				<path fill="#E2B7FF" fill-opacity="1" stroke-width="0.2" stroke-linejoin="miter" d="M 25.3387,53.0243C 25.0309,53.9154 24.5538,54.858 25.2617,55.6664C 25.7427,56.524 26.6998,56.4956 27.485,56.5748C 28.1134,56.2555 28.5294,55.4801 28.8818,54.9842C 28.4681,53.7346 28.3456,52.1555 26.9005,51.5509C 26.1122,51.5838 25.6393,52.3578 25.3387,53.0243 Z "/>
				<path fill="#694249" fill-opacity="1" stroke-width="0.2" stroke-linejoin="miter" d="M 25.8394,53.2075L 26.1964,52.5427C 27.1488,52.6831 26.7689,54.135 27.6747,53.9363C 27.972,53.3826 27.7108,52.6995 27.6151,52.1346C 27.8993,52.0299 28.1108,52.4862 28.455,52.2712C 28.266,51.0281 26.8823,50.2566 25.829,49.7192C 25.4087,48.6944 25.1659,47.3936 24.0563,46.8548L 23.9419,46.9075C 24.4183,47.9341 25.0055,49.0203 25.0868,50.0914C 24.9694,50.2568 24.7465,50.1944 24.7412,50.3628C 25.3629,50.2681 25.1729,50.994 25.0507,51.3282C 24.6372,51.9908 24.7267,52.781 24.1483,53.3271C 24.527,53.8442 23.3979,53.9803 23.8329,54.4994C 24.5702,54.2957 25.3156,53.8113 25.8394,53.2075 Z "/>
			</g>
			<g>
				<path fill="#E2B7FF" fill-opacity="1" stroke-width="0.2" stroke-linejoin="miter" d="M 33.7316,43.0306C 33.8788,43.7661 34.0839,44.4474 34.7487,44.8039C 35.5226,45.2768 36.5338,45.3066 37.3868,44.9935C 38.1381,44.3404 38.1727,43.16 38.1421,42.2593C 37.3188,41.5601 36.3453,40.2377 35.0885,40.8763C 34.6176,41.5936 33.8688,42.1908 33.7316,43.0306 Z "/>
				<path fill="#694249" fill-opacity="1" stroke-width="0.2" stroke-linejoin="miter" d="M 35.5059,45.8387C 35.3517,45.3281 34.7422,45.029 34.7025,44.4651C 34.651,44.2948 34.4279,44.2325 34.545,44.0667C 35.1714,43.8039 36.4462,44.4598 36.4775,43.3916C 35.6396,43.1988 34.9214,42.7276 34.2621,42.2021C 34.6176,41.5936 35.5277,41.2264 35.5463,40.6083L 35.2715,40.3752C 33.5225,40.5491 32.1857,42.0291 30.4501,41.7529L 29.995,41.9084C 30.104,42.0244 30.2163,42.0275 30.3239,42.1998L 29.4147,42.5108C 30.4186,42.8211 32.2352,42.2554 32.8143,43.6224C 33.5238,44.3744 34.2261,45.3514 35.1079,45.9959C 35.2744,46.0572 35.3901,45.948 35.5059,45.8387 Z "/>
			</g>
			<g>
				<path fill="#E2B7FF" fill-opacity="1" stroke-width="0.2" stroke-linejoin="miter" d="M 24.5464,20.428C 24.3579,21.0978 24.1681,21.8237 24.7172,22.2897C 24.7153,22.3458 24.6608,22.2879 24.6046,22.2862C 24.9287,22.7459 25.6582,22.8232 26.1671,22.7259C 27.1357,22.3039 28.2267,21.5481 28.3192,20.3131C 28.0045,19.5164 27.234,18.9315 26.5167,18.4602C 25.3926,18.4275 25.0739,19.7118 24.5464,20.428 Z "/>
				<path fill="#694249" fill-opacity="1" stroke-width="0.2" stroke-linejoin="miter" d="M 26.422,23.6333C 26.9956,23.2563 27.8351,23.3934 28.3544,22.9581C 27.6998,22.2639 26.5771,22.1753 25.6196,22.2036C 25.3519,21.7452 25.2047,21.0098 25.4442,20.5105C 25.4491,20.342 25.2853,20.1684 25.1149,20.2195C 24.7217,20.2083 24.7645,20.6597 24.649,20.7685C 24.3071,22.8401 24.4681,25.039 23.4584,26.8662L 23.7909,27.0442C 24.723,25.9465 24.6187,23.7491 26.422,23.6333 Z "/>
			</g>
			<g>
				<path fill="#E2B7FF" fill-opacity="1" stroke-width="0.2" stroke-linejoin="miter" d="M 17.4193,17.9134C 17.5547,19.0427 18.1385,20.2411 19.248,20.7798C 19.9772,20.8575 21.0319,21.338 21.1805,20.1048C 21.7211,18.939 20.9103,17.7903 20.6049,16.7125C 20.0604,16.078 19.3383,15.7755 18.5463,15.9209C 18.1329,16.5843 17.8324,17.2506 17.4193,17.9134 Z "/>
				<path fill="#694249" fill-opacity="1" stroke-width="0.2" stroke-linejoin="miter" d="M 21.959,26.2032C 22.149,25.4773 21.2638,24.9454 21.6261,24.1122C 21.5367,23.3218 21.4023,22.1363 22.0439,21.3677C 21.8467,20.4056 22.2648,19.5737 22.5688,18.7954C 22.4648,18.5106 22.0103,18.6663 21.7821,18.772C 21.0879,19.4272 20.7822,20.2618 20.5873,21.1562C 20.25,21.1466 20.0978,20.5791 19.7076,20.4556C 19.208,20.2157 18.6676,19.4686 18.1499,19.8475C 18.0264,20.2377 18.5308,20.3084 18.5206,20.646C 18.8942,21.3321 19.3739,22.2457 20.2701,22.3848C 20.684,23.6346 20.8145,24.9324 21.5109,26.1338C 21.7389,26.0282 21.787,26.3109 21.959,26.2032 Z "/>
			</g>
			<g>
				<path fill="#FA8585" fill-opacity="1" stroke-width="0.2" stroke-linejoin="miter" d="M 20.0084,27.4962C 19.5009,27.5379 19.0128,26.9049 18.3848,27.2242C 16.9994,28.4211 16.7687,30.5524 17.1676,32.3079C 18.077,33.9097 19.4893,35.6388 21.0931,36.5855C 23.6206,34.8028 24.3273,31.7858 23.8491,28.9026C 23.257,27.9849 22.7277,26.8445 21.6744,26.3075C 20.9932,26.5126 20.4708,27.06 20.0084,27.4962 Z "/>
				<path fill="#FA8585" fill-opacity="1" stroke-width="0.2" stroke-linejoin="miter" d="M 25.0352,32.5941C 24.7212,33.7098 23.9083,34.5863 23.8174,35.7647L 23.6338,36.2662C 24.6063,37.6448 25.918,38.9764 27.597,39.2508C 29.452,39.3052 30.996,38.45 32.0538,36.906C 32.2355,36.461 32.2504,35.9549 32.3197,35.5069C 31.7743,34.9282 30.4315,34.6642 30.9689,33.6109L 31.2284,32.4372C 30.5912,31.1248 29.3149,30.5251 28.0303,30.2063C 26.4066,29.9336 25.6846,31.5441 25.0352,32.5941 Z "/>
				<path fill="#FA8585" fill-opacity="1" stroke-width="0.2" stroke-linejoin="miter" d="M 10.8394,35.1609C 10.5406,35.771 11.3605,36.5824 10.7223,37.2389C 9.47754,37.4842 10.5741,38.4723 10.7263,39.0391C 11.7612,40.1949 13.2709,40.52 14.6726,40.6734C 16.0283,40.4881 17.1259,39.5079 18.3788,38.9816C 18.9559,38.4922 20.0385,38.0173 19.673,37.0506C 19.0381,35.6817 17.8422,34.2407 16.4008,33.5229C 14.506,32.9053 11.5254,32.8746 10.8394,35.1609 Z "/>
				<path fill="#FA8585" fill-opacity="1" stroke-width="0.2" stroke-linejoin="miter" d="M 22.5884,41.2424C 21.8185,42.5701 22.5101,43.9404 22.5826,45.2927C 23.722,46.7322 24.8981,48.8485 27.212,48.5785L 27.4966,48.4742C 28.1461,47.4239 28.313,45.5727 30.0502,45.7923C 30.4253,44.5093 30.4683,43.0479 29.7699,41.9022C 28.4257,39.7813 25.9474,39.8779 23.8857,39.1988C 22.5966,39.0486 22.9474,40.5213 22.5884,41.2424 Z "/>
				<path fill="#FA8585" fill-opacity="1" stroke-width="0.2" stroke-linejoin="miter" d="M 15.2152,41.3644C 13.989,42.904 13.8138,45.0367 14.3767,46.966L 15.7736,47.2879C 16.0431,47.6892 16.3112,48.1473 16.2964,48.6534C 17.5679,49.4215 19.1597,48.8494 20.3033,48.2079C 21.459,47.1727 21.9645,45.2749 21.5591,43.744C 21.5773,43.1258 21.5934,42.5635 21.501,41.8856C 21.2465,40.9783 20.879,40.0674 20.5099,39.2126C 18.5345,39.4366 16.979,40.6849 15.2152,41.3644 Z "/>
				<g>
					<path fill="#694249" fill-opacity="1" stroke-width="0.2" stroke-linejoin="miter" d="M 21.1244,41.5144C 21.1289,41.3707 21.1339,41.1908 20.9542,41.1858C 20.7754,41.1443 20.7329,41.3591 20.6577,41.465L 20.7554,41.8281C 20.9004,41.7961 21.1195,41.6944 21.1244,41.5144 Z "/>
					<path fill="#694249" fill-opacity="1" stroke-width="0.2" stroke-linejoin="miter" d="M 22.3837,41.5517C 22.3553,41.2988 22.4706,41.0499 22.1486,40.9684C 21.9349,40.8904 21.7858,41.066 21.6727,41.2427C 21.775,41.4258 21.5172,41.6341 21.8027,41.7146C 22.0176,41.7569 22.2706,41.728 22.3837,41.5517 Z "/>
					<path fill="#694249" fill-opacity="1" stroke-width="0.2" stroke-linejoin="miter" d="M 23.2896,41.3619C 23.3292,41.2192 23.2628,41.0372 23.1202,40.9969C 22.975,41.0286 22.793,41.0954 22.7876,41.2753C 22.7435,41.5621 23.2406,41.7922 23.2896,41.3619 Z "/>
					<path fill="#694249" fill-opacity="1" stroke-width="0.2" stroke-linejoin="miter" d="M 20.2738,41.0577C 20.3174,40.807 20.0336,40.6548 19.855,40.6134C 19.568,40.5694 19.5953,40.858 19.5195,40.9998C 19.4399,41.2494 19.7277,41.2581 19.8698,41.3343C 20.0822,41.4483 20.2334,41.2007 20.2738,41.0577 Z "/>
					<path fill="#694249" fill-opacity="1" stroke-width="0.2" stroke-linejoin="miter" d="M 21.7695,40.3813C 21.7393,40.2002 21.7094,39.9836 21.4945,39.9412C 21.351,39.9375 21.2404,40.0061 21.1656,40.1118C 21.3022,40.368 20.9351,40.6095 21.2916,40.7275C 21.5414,40.8069 21.6925,40.5596 21.7695,40.3813 Z "/>
					<path fill="#694249" fill-opacity="1" stroke-width="0.2" stroke-linejoin="miter" d="M 24.6146,40.3562C 24.6569,40.1413 24.4445,40.0275 24.3016,39.9872C 23.944,39.905 23.8965,40.2993 23.7821,40.5124C 23.9493,40.949 24.4634,40.6041 24.6146,40.3562 Z "/>
					<path fill="#694249" fill-opacity="1" stroke-width="0.2" stroke-linejoin="miter" d="M 23.2163,40.1714C 23.1855,39.9907 23.1198,39.7728 22.9047,39.7305C 22.6542,39.687 22.6459,39.9749 22.4979,40.1145C 22.4542,40.3655 22.5951,40.4776 22.7729,40.5545C 23.0226,40.6343 23.139,40.3497 23.2163,40.1714 Z "/>
					<path fill="#694249" fill-opacity="1" stroke-width="0.2" stroke-linejoin="miter" d="M 19.1498,40.0889C 19.1909,39.9099 19.0878,39.763 18.9814,39.6876C 18.8726,39.7208 18.7277,39.7521 18.6885,39.8596L 18.712,40.2923C 18.9269,40.3347 19.0029,40.1929 19.1498,40.0889 Z "/>
					<path fill="#694249" fill-opacity="1" stroke-width="0.2" stroke-linejoin="miter" d="M 20.4258,39.55C 20.4681,39.3352 20.2183,39.2561 20.1866,39.1108C 19.9379,38.9957 19.6787,39.2401 19.5648,39.4529C 19.5977,39.5618 19.4823,39.8103 19.6981,39.8169C 19.9528,39.7165 20.4154,39.9098 20.4258,39.55 Z "/>
					<path fill="#694249" fill-opacity="1" stroke-width="0.2" stroke-linejoin="miter" d="M 25.0656,39.7217C 25.0337,39.5763 24.9288,39.4654 24.786,39.4254C 24.6434,39.3852 24.6381,39.565 24.5638,39.6348C 24.5248,39.7417 24.6298,39.8526 24.7365,39.8921C 24.879,39.9322 24.9904,39.8276 25.0656,39.7217 Z "/>
					<path fill="#694249" fill-opacity="1" stroke-width="0.2" stroke-linejoin="miter" d="M 24.4423,38.8754C 24.4115,38.6942 24.3799,38.5492 24.1655,38.471C 23.9491,38.5006 23.7285,38.6383 23.686,38.8893C 23.6802,39.069 23.6719,39.3569 23.8877,39.3631C 24.1407,39.3345 24.3629,39.1247 24.4423,38.8754 Z "/>
					<path fill="#694249" fill-opacity="1" stroke-width="0.2" stroke-linejoin="miter" d="M 18.7217,38.7081C 18.7274,38.5284 18.7706,38.2775 18.5571,38.1993C 18.2738,38.0469 18.1919,38.3688 18.0797,38.5093C 18.0386,38.6883 18.1772,38.8724 18.3573,38.8775C 18.502,38.8457 18.681,38.8871 18.7217,38.7081 Z "/>
					<path fill="#694249" fill-opacity="1" stroke-width="0.2" stroke-linejoin="miter" d="M 25.5414,38.2234C 25.5829,38.0443 25.4038,38.0032 25.2607,37.9632C 25.0426,38.0284 24.9288,38.241 24.9222,38.4573C 24.881,38.6358 24.9501,38.7461 25.1288,38.7868C 25.3818,38.7585 25.4644,38.4012 25.5414,38.2234 Z "/>
					<path fill="#694249" fill-opacity="1" stroke-width="0.2" stroke-linejoin="miter" d="M 20.252,38.1048C 20.3695,37.7842 20.1971,37.527 19.9506,37.3401C 19.5917,37.2934 19.4731,37.65 19.3931,37.9355C 19.3423,38.4383 20.0986,38.4244 20.252,38.1048 Z "/>
					<path fill="#694249" fill-opacity="1" stroke-width="0.2" stroke-linejoin="miter" d="M 18.618,37.337C 18.6576,37.23 18.5536,37.0833 18.4469,37.0439C 18.3041,37.0035 18.229,37.11 18.1538,37.2156C 18.1104,37.466 18.538,37.6226 18.618,37.337 Z "/>
					<path fill="#694249" fill-opacity="1" stroke-width="0.2" stroke-linejoin="miter" d="M 24.8468,37.3391C 24.9611,37.126 24.8632,36.7991 24.6119,36.7559C 24.4701,36.6795 24.2871,36.7825 24.1759,36.8872C 24.0629,37.0638 23.9847,37.2778 24.1605,37.4269C 24.335,37.6121 24.7679,37.5886 24.8468,37.3391 Z "/>
					<path fill="#694249" fill-opacity="1" stroke-width="0.2" stroke-linejoin="miter" d="M 25.6841,37.0392C 25.6924,36.7516 25.5504,36.6756 25.2594,36.7749C 25.0757,36.9134 25.104,37.1666 25.2059,37.3853C 25.3867,37.3546 25.5707,37.2157 25.6841,37.0392 Z "/>
					<path fill="#694249" fill-opacity="1" stroke-width="0.2" stroke-linejoin="miter" d="M 19.3281,36.4576C 19.3324,36.3135 19.1925,36.1658 19.0497,36.1255C 18.837,36.0108 18.58,36.1834 18.5736,36.3998C 18.5601,36.8669 19.2783,36.9241 19.3281,36.4576 Z "/>
					<path fill="#694249" fill-opacity="1" stroke-width="0.2" stroke-linejoin="miter" d="M 20.9247,36.0365C 21.0057,35.7148 20.6115,35.6671 20.3984,35.5528C 20.1827,35.5462 20.1395,35.7972 19.9912,35.9368C 20.0209,36.1537 20.1573,36.41 20.4083,36.4532C 20.6948,36.4976 20.917,36.2879 20.9247,36.0365 Z "/>
					<path fill="#694249" fill-opacity="1" stroke-width="0.2" stroke-linejoin="miter" d="M 25.214,35.8733C 25.2955,35.5514 25.1217,35.3306 24.8729,35.2156C 24.5475,35.2776 24.6797,35.6774 24.5643,35.9265C 24.6259,36.2883 25.2031,36.2334 25.214,35.8733 Z "/>
					<path fill="#694249" fill-opacity="1" stroke-width="0.2" stroke-linejoin="miter" d="M 23.847,35.8335C 23.8481,35.7978 23.8174,35.6167 23.959,35.6922C 23.8563,35.5098 23.6119,35.2502 23.3612,35.2074C 23.105,35.344 23.0234,35.6656 23.0542,35.8464C 23.1212,36.0281 23.3402,35.9266 23.444,36.074C 23.6246,36.0433 23.7699,36.011 23.847,35.8335 Z "/>
					<path fill="#694249" fill-opacity="1" stroke-width="0.2" stroke-linejoin="miter" d="M 19.7236,35.2447C 19.7648,35.066 19.66,34.9554 19.5532,34.916C 19.4103,34.8757 19.2982,35.0162 19.2588,35.1233C 19.1764,35.481 19.8134,35.8598 19.7236,35.2447 Z "/>
					<path fill="#694249" fill-opacity="1" stroke-width="0.2" stroke-linejoin="miter" d="M 22.2588,34.743C 22.2618,34.6349 22.1567,34.5239 22.0131,34.5198C 21.7284,34.4031 21.6119,34.6881 21.4985,34.8646C 21.4937,35.0443 21.6333,35.1926 21.7749,35.269C 22.028,35.24 22.3209,35.0687 22.2588,34.743 Z "/>
					<path fill="#694249" fill-opacity="1" stroke-width="0.2" stroke-linejoin="miter" d="M 24.6327,34.8121C 24.7089,34.6705 24.6041,34.5591 24.498,34.4842C 24.3193,34.4432 24.243,34.5848 24.1686,34.6905C 24.1992,34.8716 24.0488,35.0835 24.2637,35.1258C 24.4794,35.1317 24.5575,34.9181 24.6327,34.8121 Z "/>
					<path fill="#694249" fill-opacity="1" stroke-width="0.2" stroke-linejoin="miter" d="M 20.8978,34.4871C 21.014,34.2025 20.7316,34.0142 20.5167,33.9719C 20.3392,33.8948 20.1896,34.0704 20.1136,34.2124C 20.1064,34.4643 20.316,34.6863 20.5297,34.7643C 20.7095,34.7696 20.7855,34.6279 20.8978,34.4871 Z "/>
					<path fill="#694249" fill-opacity="1" stroke-width="0.2" stroke-linejoin="miter" d="M 23.3545,34.1988C 23.3597,34.0189 23.2178,33.943 23.0771,33.8304C 22.8643,33.7165 22.7482,34.0012 22.6368,34.1062C 22.5938,34.3568 22.7716,34.4337 22.9482,34.5472C 23.1281,34.5525 23.4181,34.4886 23.3545,34.1988 Z "/>
					<path fill="#694249" fill-opacity="1" stroke-width="0.2" stroke-linejoin="miter" d="M 21.9623,33.7981C 21.9659,33.6539 21.9357,33.4728 21.7938,33.3972C 21.6862,33.3943 21.505,33.425 21.4637,33.6033C 21.4203,33.8545 22.0109,34.5917 21.9623,33.7981 Z "/>
				</g>
			</g>
		</g>
	</g>
</svg>
