<?xml version="1.0" encoding="utf-8"?>
<!DOCTYPE svg PUBLIC "-//W3C//DTD SVG 1.1//EN" "http://www.w3.org/Graphics/SVG/1.1/DTD/svg11.dtd">
<svg xmlns="http://www.w3.org/2000/svg" xmlns:xlink="http://www.w3.org/1999/xlink" version="1.1" baseProfile="full" width="127.586" height="75.9496" viewBox="0 0 127.59 75.95" enable-background="new 0 0 127.59 75.95" xml:space="preserve">
	<g>
		<path fill="#EBCD55" fill-opacity="1" stroke-width="0.2" stroke-linejoin="round" d="M 102.251,11.9679L 101.195,16.6613C 101.195,16.6613 104.598,15.0186 104.011,10.7946C 103.424,6.57056 104.363,5.1626 104.363,5.1626C 104.363,5.1626 101.43,5.1626 102.251,11.9679 Z "/>
		<path fill="#EBCD55" fill-opacity="1" stroke-width="0.2" stroke-linejoin="round" d="M 97.6748,16.7786C 97.6748,16.7786 97.6748,15.2532 100.256,13.0239C 102.838,10.7946 100.374,3.87195 100.374,3.87195C 100.374,3.87195 100.139,2.22925 102.838,-0.00012207C 102.838,-0.00012207 98.4963,1.8772 96.6189,7.15723C 94.7416,12.4373 97.6748,16.8959 97.6748,16.8959"/>
		<path fill="#EBCD55" fill-opacity="1" stroke-width="0.2" stroke-linejoin="round" d="M 105.536,21.9412C 105.536,21.9413 96.3843,17.9519 86.6455,23.1146C 76.907,28.2772 57.0775,26.6345 50.1548,25.6959C 43.2323,24.7572 30.9124,14.6665 23.8723,21.3546C 16.8323,28.0426 21.6429,37.6638 31.3816,36.8425C 41.1201,36.0212 41.1201,32.736 44.4056,34.7306C 44.5228,34.7306 42.8802,31.7972 37.4829,32.8533C 32.0854,33.9093 24.9282,35.2 25.0457,28.9813C 25.163,22.7626 28.4482,22.1759 30.6776,22.6453C 32.907,23.1146 38.1869,24.8745 44.6401,29.9199C 51.0936,34.9652 57.1948,40.0106 65.5256,39.3066C 73.8562,38.6025 79.208,37.8618 90.4003,27.8079C 97.323,21.5892 105.536,21.9413 105.536,21.9412 Z "/>
		<path fill="#EBCD55" fill-opacity="1" stroke-width="0.2" stroke-linejoin="round" d="M 46.8695,49.2799C 46.8695,49.2799 50.1511,41.0823 64.0002,40.9492C 76.2029,40.8319 80.7788,49.2799 80.7788,49.2799L 46.8695,49.2799 Z "/>
		<path fill="#EBCD55" fill-opacity="1" stroke-width="0.2" stroke-linejoin="round" d="M 48.8643,23.8186C 48.8643,23.8186 57.5469,24.9918 64.0002,25.1093C 70.4535,25.2266 79.1362,23.7013 79.1362,23.7013C 79.1362,23.7013 77.1416,16.6613 64.0002,16.3092C 50.8589,15.9573 48.8643,23.8186 48.8643,23.8186 Z "/>
	</g>
	<path fill="#EBCD55" fill-opacity="1" stroke-width="0.2" stroke-linejoin="round" d="M 127.586,47.3599C 127.586,47.3599 126.354,56.5992 116.639,58.4603C 115.479,59.4867 114.329,60.4287 113.19,61.2919C 115.613,60.7302 119.504,60.6824 123.746,64.0004C 123.745,64.0001 117.65,67.8589 111.201,62.7278C 108.371,64.6699 105.616,66.1342 102.957,67.207C 105.765,67.0977 109.707,67.8433 113.397,71.6832C 113.397,71.6832 105.667,75.1246 99.495,68.4063C 97.2988,69.0425 95.1807,69.4205 93.1548,69.5944C 95.3933,70.5656 97.7605,72.2965 99.7661,75.3187C 99.766,75.3186 90.849,77.4816 85.5791,69.3292C 82.7412,68.8854 80.1941,68.0959 77.9974,67.1895C 77.9164,67.1599 77.835,67.1296 77.7598,67.0905C 77.3179,66.9042 76.8906,66.7135 76.4785,66.5203C 78.5717,67.8744 81.8569,70.804 81.8257,75.84C 81.8259,75.8397 74.2645,72.8612 74.7802,65.6678C 71.1121,63.703 69.0261,61.7599 69.0261,61.7599L 69.9861,60.4799C 72.7875,63.0723 75.7201,64.8943 78.7009,66.103C 80.6816,64.2598 85.7162,60.7108 93.3138,63.0959C 93.3137,63.0958 90.455,66.84 85.4403,67.8523C 88.7104,68.2642 91.9644,68.0896 95.0956,67.5308C 95.7034,64.7869 97.8275,59.2233 105.185,56.8132C 105.185,56.8132 105.013,62.2958 100.654,66.1282C 102.644,65.4846 104.547,64.7217 106.332,63.9016C 106.072,61.8219 105.98,55.8856 112.331,51.5198C 112.331,51.5198 113.936,57.647 109.271,62.4508C 111.979,61.0215 114.311,59.5339 116.12,58.2699C 116.444,56.7147 118.445,49.3595 127.586,47.3599 Z "/>
	<path fill="#EBCD55" fill-opacity="1" stroke-width="0.2" stroke-linejoin="round" d="M 0,47.4694C 0.000244141,47.4694 1.2323,56.7089 10.9473,58.5699C 12.1068,59.5962 13.2568,60.5382 14.3959,61.4014C 11.9735,60.8398 8.08179,60.7919 3.84033,64.1099C 3.84058,64.1097 9.93628,67.9685 16.385,62.8374C 19.2147,64.7794 21.9702,66.2438 24.6289,67.3165C 21.8215,67.2072 17.8788,67.9528 14.1888,71.7927C 14.189,71.7927 21.9194,75.2343 28.0911,68.5159C 30.2871,69.152 32.4053,69.53 34.4312,69.7039C 32.1927,70.6752 29.8256,72.406 27.8198,75.4283C 27.8201,75.4281 36.7371,77.5912 42.0068,69.4388C 44.8447,68.995 47.392,68.2056 49.5886,67.2991C 49.6697,67.2695 49.751,67.2391 49.8262,67.2C 50.2681,67.0138 50.6953,66.8231 51.1074,66.6298C 49.0144,67.984 45.729,70.9136 45.7603,75.9495C 45.7601,75.9493 53.3215,72.9708 52.8059,65.7775C 56.474,63.8125 58.5599,61.8694 58.5599,61.8694L 57.6,60.5895C 54.7986,63.1818 51.866,65.0039 48.8851,66.2126C 46.9043,64.3693 41.8699,60.8204 34.2722,63.2054C 34.2723,63.2054 37.1311,66.9495 42.1458,67.9618C 38.8755,68.3737 35.6216,68.1992 32.4905,67.6404C 31.8827,64.8965 29.7585,59.3329 22.4011,56.9227C 22.4012,56.9227 22.5732,62.4053 26.9316,66.2378C 24.9424,65.5942 23.0389,64.8312 21.2542,64.0111C 21.5139,61.9315 21.606,55.9952 15.2546,51.6293C 15.2546,51.6293 13.6498,57.7566 18.3153,62.5604C 15.6073,61.1311 13.2748,59.6434 11.4663,58.3794C 11.1423,56.8243 9.14136,49.4691 0,47.4694 Z "/>
</svg>
